<?xml version="1.0" standalone="no"?>
<!DOCTYPE svg PUBLIC "-//W3C//DTD SVG 1.1//EN" "http://www.w3.org/Graphics/SVG/1.1/DTD/svg11.dtd" >
<svg>
<metadata>
Created by FontForge 20090914 at Tue Aug 17 08:31:04 2021
 By www-data
Copyright (c) Chank Co, 2007. All rights reserved. Do not redistribute or alter this font without permission.
</metadata>
<defs>
<font id="Adrianna-Demibold" horiz-adv-x="584" >
  <font-face 
    font-family="Adrianna Lt"
    font-weight="600"
    font-stretch="normal"
    units-per-em="1000"
    panose-1="2 0 7 3 3 0 0 2 0 3"
    ascent="800"
    descent="-200"
    x-height="490"
    cap-height="700"
    bbox="-109 -306.001 1147.01 991.999"
    underline-thickness="20"
    underline-position="-113"
    unicode-range="U+0020-U+FB02"
  />
<missing-glyph horiz-adv-x="558" 
d="M504 0h-456v722h456v-722zM94 33h363l-181 300zM276 392l180 297h-360zM78 659v-594l180 297zM472 67v589l-178 -294z" />
    <glyph glyph-name="fi" unicode="fi" horiz-adv-x="589" 
d="M76 490l-0.00292969 94c0 27.333 5.83301 55 17.5 83s26.834 49.667 45.501 65c17.333 14 33.833 23.5 49.5 28.5s32.167 7.5 49.5 7.5c11.333 0 24.833 -1.66699 40.5 -5s29.834 -8 42.501 -14l-11 -113c-7.33301 5.33301 -16.166 8.83301 -26.499 10.5
s-18.5 2.5 -24.5 2.5c-10 0 -18.5 -1.33301 -25.5 -4s-13.167 -6.33398 -18.5 -11.001c-8 -8 -14.333 -18.167 -19 -30.5s-7 -26.166 -7 -41.499v-72h115v-94h-115v-396h-113v396h-59v94h59zM413.997 0v490h114v-490h-114zM536.997 630c0 -21.333 -6.5 -39 -19.5 -53
s-28.833 -21 -47.5 -21c-17.333 0 -32.666 7 -45.999 21s-20 31.667 -20 53s6.66699 39 20 53s28.666 21 45.999 21c18.667 0 34.5 -7 47.5 -21s19.5 -31.667 19.5 -53z" />
    <glyph glyph-name="fl" unicode="fl" horiz-adv-x="620" 
d="M76 490l-0.00292969 94c0 27.333 5.83301 55 17.5 83s26.834 49.667 45.501 65c17.333 14 33.833 23.5 49.5 28.5s32.167 7.5 49.5 7.5c11.333 0 24.833 -1.66699 40.5 -5s29.834 -8 42.501 -14l-11 -113c-7.33301 5.33301 -16.166 8.83301 -26.499 10.5
s-18.5 2.5 -24.5 2.5c-10 0 -18.5 -1.33301 -25.5 -4s-13.167 -6.33398 -18.5 -11.001c-8 -8 -14.333 -18.167 -19 -30.5s-7 -26.166 -7 -41.499v-72h115v-94h-115v-396h-113v396h-59v94h59zM428.997 0v768h114v-768h-114z" />
    <glyph glyph-name=".notdef" horiz-adv-x="558" 
d="M504 0h-456v722h456v-722zM94 33h363l-181 300zM276 392l180 297h-360zM78 659v-594l180 297zM472 67v589l-178 -294z" />
    <glyph glyph-name="space" unicode=" " horiz-adv-x="320" 
 />
    <glyph glyph-name="exclam" unicode="!" horiz-adv-x="217" 
d="M64 226l-20 475h130l-20 -475h-90zM176 67c0 -19.333 -6.5 -36.333 -19.5 -51s-29.167 -22 -48.5 -22s-35.5 7.33301 -48.5 22s-19.5 31.667 -19.5 51c0 20.667 6.5 38.167 19.5 52.5s29.167 21.5 48.5 21.5s35.5 -7.16699 48.5 -21.5s19.5 -31.833 19.5 -52.5z" />
    <glyph glyph-name="quotedbl" unicode="&#x22;" horiz-adv-x="375" 
d="M127 396h-85l-8 209v96h102v-96zM322 396h-85l-8 209v96h102v-96z" />
    <glyph glyph-name="numbersign" unicode="#" horiz-adv-x="640" 
d="M249 302h148l10 178h-148zM263 556h148l7 124h63l-7 -124h120l-5 -76h-119l-10 -178h119l-4 -75h-120l-10 -180h-63l10 180h-148l-10 -180h-63l10 180h-134l5 75h134l10 178h-134l4 76h134l7 124h63z" />
    <glyph glyph-name="dollar" unicode="$" horiz-adv-x="589" 
d="M551 221c0 -40.667 -8.83398 -74 -26.501 -100s-39.834 -46.667 -66.501 -62s-55.5 -26 -86.5 -32s-59.833 -9 -86.5 -9h-12c-4 0 -8 0.333008 -12 1l-19 -107h-67l21 116c-25.333 6 -50.333 15.167 -75 27.5s-52 28.5 -82 48.5l37 102
c28.667 -16 54.5 -29.833 77.5 -41.5s44.167 -20.5 63.5 -26.5l29 158c-26 4 -51.833 9.83301 -77.5 17.5s-48.5 18.5 -68.5 32.5s-36.333 32.333 -49 55s-19 51.334 -19 86.001c0 40 8.66699 72.833 26 98.5s39 45.667 65 60s54 24.166 84 29.499s57.667 8 83 8h28l19 99
h67l-21 -110c26.667 -6 52.334 -14.833 77.001 -26.5s49.667 -26.167 75 -43.5l-35 -93c-22 13.333 -44.5 24.833 -67.5 34.5s-46.167 17.167 -69.5 22.5l-28 -153c24.667 -3.33301 49.834 -8.16602 75.501 -14.499s49 -16.333 70 -30s38 -32.334 51 -56.001
s19.5 -54.167 19.5 -91.5zM285.999 575c-26 0 -47.998 -2.50195 -65.998 -7.50195s-32.5 -11.333 -43.5 -19s-18.833 -16.5 -23.5 -26.5s-7 -20 -7 -30c0 -13.333 4.16699 -24.166 12.5 -32.499s18.666 -15.166 30.999 -20.499s25.666 -9.5 39.999 -12.5
s27.833 -5.16699 40.5 -6.5l28 155h-12zM435.001 220.998c0 12 -3.16699 21.8301 -9.5 29.4971s-15 13.834 -26 18.501s-24 8.33398 -39 11.001s-31.5 5.33398 -49.5 8.00098l-29 -160c16 0.666992 33 2.66699 51 6s34.5 8.5 49.5 15.5s27.5 16.333 37.5 28
s15 26.167 15 43.5z" />
    <glyph glyph-name="percent" unicode="%" horiz-adv-x="627" 
d="M592 186c0 -21.333 -2.83398 -41.5 -8.50098 -60.5s-14.167 -35.667 -25.5 -50s-25.166 -25.666 -41.499 -33.999s-34.833 -12.5 -55.5 -12.5c-21.333 0 -40.166 4.16699 -56.499 12.5s-30 19.666 -41 33.999s-19.333 31 -25 50s-8.5 39.167 -8.5 60.5
s2.83301 41.5 8.5 60.5s14 35.667 25 50s24.667 25.666 41 33.999s35.166 12.5 56.499 12.5c22 0 41.167 -4.16699 57.5 -12.5s30 -19.666 41 -33.999s19.167 -31 24.5 -50s8 -39.167 8 -60.5zM111.999 0l-71 12l462 689l74 -11zM280.999 512
c0 -21.333 -2.99902 -41.5 -8.99902 -60.5s-14.5 -35.667 -25.5 -50s-24.667 -25.666 -41 -33.999s-34.833 -12.5 -55.5 -12.5c-22.667 0 -42.167 4.16699 -58.5 12.5s-29.833 19.666 -40.5 33.999s-18.667 31 -24 50s-8 39.167 -8 60.5c0 22 2.66699 42.5 8 61.5
s13.5 35.667 24.5 50s24.667 25.666 41 33.999s35.5 12.5 57.5 12.5c20 0 38.167 -4.16699 54.5 -12.5s30.166 -19.666 41.499 -33.999s20 -31 26 -50s9 -39.5 9 -61.5zM522 186c0 24 -6 44.333 -18 61s-26.333 25 -43 25c-17.333 0 -31.833 -8.33301 -43.5 -25
s-17.5 -37 -17.5 -61s5.83301 -44.333 17.5 -61s26.167 -25 43.5 -25c16.667 0 31 8.33301 43 25s18 37 18 61zM211 512c0 24 -6 44.5 -18 61.5s-26.333 25.5 -43 25.5c-17.333 0 -31.833 -8.5 -43.5 -25.5s-17.5 -37.5 -17.5 -61.5s5.83301 -44.333 17.5 -61
s26.167 -25 43.5 -25c16.667 0 31 8.33301 43 25s18 37 18 61z" />
    <glyph glyph-name="ampersand" unicode="&#x26;" horiz-adv-x="708" 
d="M654 0l-117.999 -0.00292969l-73 91c-10.667 -12.667 -22.5 -25 -35.5 -37s-27 -22.833 -42 -32.5s-31 -17.334 -48 -23.001s-35.167 -8.5 -54.5 -8.5c-25.333 0 -51.833 2.16699 -79.5 6.5s-53.334 14 -77.001 29s-43.167 37 -58.5 66s-23 68.167 -23 117.5
c0 27.333 4.83301 51.833 14.5 73.5s22 40.834 37 57.501s32 31 51 43s37.5 22.667 55.5 32l-20 25l-30 46c-16 24.667 -24 50.667 -24 78c0 20 4.5 39.167 13.5 57.5s21.667 34.5 38 48.5s36.166 25.167 59.499 33.5s49.666 12.5 78.999 12.5
c30.667 0 56.834 -4.5 78.501 -13.5s39.5 -21 53.5 -36s24.167 -32 30.5 -51s9.5 -38.167 9.5 -57.5c0 -21.333 -3.66699 -40.666 -11 -57.999s-17 -33.166 -29 -47.499s-25.833 -27.666 -41.5 -39.999s-31.5 -23.5 -47.5 -33.5l98 -123l32.5 54.5l26.5 46.5
c8.66699 16 16.334 31 23.001 45l75 -54l-31 -60l-30.5 -56c-11 -20 -21.833 -38.667 -32.5 -56l132 -164zM386.001 558.997c0 7.33301 -0.999023 15.167 -2.99902 23.5s-5.5 16 -10.5 23s-11.667 12.833 -20 17.5s-18.833 7 -31.5 7
c-22.667 0 -40.834 -6.83301 -54.501 -20.5s-20.5 -30.167 -20.5 -49.5c0 -16.667 5.33301 -32.667 16 -48l40 -56h1c8.66699 4.66699 17.834 11.167 27.501 19.5s18.667 17.5 27 27.5s15.166 20 20.499 30s8 18.667 8 26zM271.002 329.998
c-14 -7.33301 -27.6689 -15.166 -41.002 -23.499s-25.166 -17.5 -35.499 -27.5s-18.666 -21 -24.999 -33s-9.5 -25.667 -9.5 -41c0 -24.667 4 -44.334 12 -59.001s18.167 -26 30.5 -34s26.166 -13.333 41.499 -16s30.333 -4 45 -4c17.333 0 35.333 7.5 54 22.5
s37.334 33.5 56.001 55.5z" />
    <glyph glyph-name="quotesingle" unicode="'" horiz-adv-x="210" 
d="M127 396h-85l-9 209l1 96h102v-96z" />
    <glyph glyph-name="parenleft" unicode="(" horiz-adv-x="311" 
d="M29 353c0 54.667 6 105.499 18 152.499s27.833 89.667 47.5 128s42 72.166 67 101.499s50.5 54 76.5 74l62 -41c-28 -34 -51.833 -65.167 -71.5 -93.5s-35.5 -57.666 -47.5 -87.999s-20.667 -64 -26 -101s-8 -81.5 -8 -133.5c0 -38 2.33301 -73.667 7 -107
s12.5 -66.166 23.5 -98.499s26 -65 45 -98s43.167 -68.5 72.5 -106.5l-57 -43c-30.667 28 -58.834 58.833 -84.501 92.5s-47.667 69.5 -66 107.5s-32.666 78.167 -42.999 120.5s-15.5 86.833 -15.5 133.5z" />
    <glyph glyph-name="parenright" unicode=")" horiz-adv-x="318" 
d="M302 353c0 -46.667 -5.16699 -91.166 -15.5 -133.499s-24.666 -82.5 -42.999 -120.5s-40.333 -73.833 -66 -107.5s-53.834 -64.5 -84.501 -92.5l-57 43c28.667 38 52.667 73.5 72 106.5s34.5 65.667 45.5 98s18.833 65.166 23.5 98.499s7 69 7 107
c0 52 -2.66699 96.5 -8 133.5s-14 70.667 -26 101s-27.833 59.666 -47.5 87.999s-43.5 59.5 -71.5 93.5l62 41c26 -20 51.5 -44.667 76.5 -74s47.333 -63.166 67 -101.499s35.5 -81 47.5 -128s18 -97.833 18 -152.5z" />
    <glyph glyph-name="asterisk" unicode="*" horiz-adv-x="489" 
d="M289 442l110 -147l-76 -66l-81 187l-86 -181l-76 66l116 142l-159 41l29 106l152 -91l-18 202h94l-25 -202l152 82l29 -107z" />
    <glyph glyph-name="plus" unicode="+" horiz-adv-x="462" 
d="M270 287v-166h-79v166h-137v93h137v166h79v-166h137v-93h-137z" />
    <glyph glyph-name="comma" unicode="," horiz-adv-x="221" 
d="M176 48c0 -18 -2.33398 -36.501 -7.00098 -55.501s-10.667 -36.833 -18 -53.5s-16.166 -31.5 -26.499 -44.5s-20.833 -22.5 -31.5 -28.5l-55 28c6 4 12.5 10.167 19.5 18.5s13.5 17.5 19.5 27.5s11 20 15 30s6 19 6 27c0 3.33301 -0.333008 5.33301 -1 6
c-7.33301 -2 -14.333 -3 -21 -3c-11.333 0 -22 7 -32 21s-15 30.667 -15 50c0 18.667 7.33301 34.834 22 48.501s32 20.5 52 20.5c22.667 0 40.5 -8.16699 53.5 -24.5s19.5 -38.833 19.5 -67.5z" />
    <glyph glyph-name="hyphen" unicode="-" horiz-adv-x="304" 
d="M19 277v113h264v-113h-264z" />
    <glyph glyph-name="period" unicode="." horiz-adv-x="250" 
d="M191 67c0 -19.333 -6.5 -36.333 -19.5 -51s-29.167 -22 -48.5 -22s-35.5 7.33301 -48.5 22s-19.5 31.667 -19.5 51c0 20.667 6.5 38.167 19.5 52.5s29.167 21.5 48.5 21.5s35.5 -7.16699 48.5 -21.5s19.5 -31.833 19.5 -52.5z" />
    <glyph glyph-name="slash" unicode="/" horiz-adv-x="447" 
d="M91 -67h-80l347 834h80z" />
    <glyph glyph-name="zero" unicode="0" horiz-adv-x="718" 
d="M681 337c0 -56 -9.33301 -105.5 -28 -148.5s-43.334 -79 -74.001 -108s-65.334 -51 -104.001 -66s-78 -22.5 -118 -22.5s-79.5 7.5 -118.5 22.5s-73.833 37 -104.5 66s-55.334 65 -74.001 108s-28 92.5 -28 148.5c0 61.333 9.33301 114.833 28 160.5
s43.334 83.5 74.001 113.5s65.5 52.5 104.5 67.5s78.5 22.5 118.5 22.5s79.333 -7.5 118 -22.5s73.334 -37.5 104.001 -67.5s55.334 -67.833 74.001 -113.5s28 -99.167 28 -160.5zM556 337c0 35.333 -4.66699 68 -14 98s-22.833 56 -40.5 78s-38.667 39.167 -63 51.5
s-51.5 18.5 -81.5 18.5s-57.167 -6.16699 -81.5 -18.5s-45.333 -29.5 -63 -51.5s-31.167 -48 -40.5 -78s-14 -62.667 -14 -98c0 -33.333 4.66699 -64 14 -92s22.833 -52 40.5 -72s38.667 -35.667 63 -47s51.5 -17 81.5 -17s57.167 6 81.5 18s45.333 28.167 63 48.5
s31.167 44.333 40.5 72s14 57.5 14 89.5z" />
    <glyph glyph-name="one" unicode="1" horiz-adv-x="461" 
d="M217 0v497l-48 -67l-65 81l127 178h98v-689h-112z" />
    <glyph glyph-name="two" unicode="2" horiz-adv-x="640" 
d="M358 230c-15.333 -7.33301 -32.334 -14.6641 -51.001 -21.9971s-35.667 -16.333 -51 -27c-15.333 -9.33301 -28.833 -19.833 -40.5 -31.5s-19.167 -23.834 -22.5 -36.501h383v-113h-513l-12 92c10 28.667 21.5 53.667 34.5 75s27.5 40.166 43.5 56.499
s33.667 30.5 53 42.5s40.333 23.667 63 35l36.5 17.5l34.5 17.5c22.667 12.667 43.167 24.834 61.5 36.501s33.833 23 46.5 34s22.334 22.333 29.001 34s10 24.167 10 37.5c0 14.667 -2 28.5 -6 41.5s-11.333 24.167 -22 33.5s-25.167 16.666 -43.5 21.999
s-41.833 8 -70.5 8c-36 0 -73.833 -6.5 -113.5 -19.5s-78.5 -32.167 -116.5 -57.5l-36 104c43.333 30.667 86.5 53.334 129.5 68.001s88.5 22 136.5 22c26.667 0 55.167 -3.33301 85.5 -10s58.333 -18.334 84 -35.001s47 -39.334 64 -68.001s25.5 -64.667 25.5 -108
c0 -34 -6.33301 -63.333 -19 -88s-29.5 -46.5 -50.5 -65.5s-44.667 -36.167 -71 -51.5s-53.5 -30 -81.5 -44z" />
    <glyph glyph-name="three" unicode="3" horiz-adv-x="640" 
d="M594 208c0 -29.333 -4.33594 -55.1709 -13.0029 -77.5039s-20.167 -41.5 -34.5 -57.5s-30.833 -29.167 -49.5 -39.5s-38 -18.666 -58 -24.999s-40.333 -10.666 -61 -12.999s-39.667 -3.5 -57 -3.5c-48 0 -93 7.16699 -135 21.5s-84 36.5 -126 66.5l37 102
c36 -23.333 73.167 -41.5 111.5 -54.5s75.833 -19.5 112.5 -19.5c28.667 0 52.167 3 70.5 9s32.833 13.5 43.5 22.5s18 19 22 30s6 21.833 6 32.5c0 22.667 -7 41 -21 55s-31.333 24 -52 30c-21.333 3.33301 -40.833 5.16602 -58.5 5.49902s-33.167 -0.166992 -46.5 -1.5
c-15.333 -1.33301 -29 -3 -41 -5c-5.33301 16.667 -8 36.167 -8 58.5s2.66699 42.166 8 59.499c11.333 -2 23 -3.66699 35 -5c10.667 -1.33301 22.334 -2.16602 35.001 -2.49902s25.334 0.833984 38.001 3.50098c12 2 24.5 5 37.5 9s25 9.5 36 16.5s20 15.833 27 26.5
s10.5 23.667 10.5 39c0 10.667 -2 21.334 -6 32.001s-11.333 20.5 -22 29.5s-25.167 16.333 -43.5 22s-41.833 8.5 -70.5 8.5c-36.667 0 -74.167 -6.5 -112.5 -19.5s-75.5 -31.167 -111.5 -54.5l-37 102c42 30 84 52.333 126 67s87 22 135 22c26.667 0 55.834 -3 87.501 -9
s61.167 -16.833 88.5 -32.5s50.333 -37.5 69 -65.5s28 -64 28 -108c0 -32.667 -7.66699 -60 -23 -82s-35.666 -40 -60.999 -54c25.333 -11.333 45.666 -28.166 60.999 -50.499s23 -52.5 23 -90.5z" />
    <glyph glyph-name="four" unicode="4" horiz-adv-x="657" 
d="M542 166v-166h-120v166h-347v78l387 446h80v-412h88v-112h-88zM226 278h196v225z" />
    <glyph glyph-name="five" unicode="5" horiz-adv-x="640" 
d="M594 217c0 -44 -9.49805 -80.501 -28.498 -109.501s-42.667 -52 -71 -69s-58.666 -28.833 -90.999 -35.5s-61.833 -10 -88.5 -10c-48 0 -93 7.33301 -135 22s-84 37 -126 67l37 102c36 -23.333 73.167 -41.666 111.5 -54.999s75.833 -20 112.5 -20
c28.667 0 53 3.5 73 10.5s36.167 15.833 48.5 26.5s21.166 22.667 26.499 36s8 26.666 8 39.999c0 14 -2 28 -6 42s-11.167 26.833 -21.5 38.5s-24 21.167 -41 28.5s-38.5 11 -64.5 11s-48.667 -2 -68 -6s-36 -9 -50 -15s-25.667 -12.167 -35 -18.5
s-16.333 -11.833 -21 -16.5h-99l17 404h478v-115h-374l-9 -183c15.333 10.667 37.166 21.834 65.499 33.501s61.166 17.5 98.499 17.5c28 0 57 -3.33301 87 -10s57.167 -18.5 81.5 -35.5s44.5 -40.167 60.5 -69.5s24 -66.333 24 -111z" />
    <glyph glyph-name="six" unicode="6" horiz-adv-x="667" 
d="M623 224c0 -41.333 -9.66309 -76.668 -28.9961 -106.001s-43.5 -53.5 -72.5 -72.5s-60.333 -33 -94 -42s-65.167 -13.5 -94.5 -13.5c-35.333 0 -70.833 7.66699 -106.5 23s-67.834 38 -96.501 68s-51.834 67.333 -69.501 112s-26.5 96.334 -26.5 155.001
s9 110.167 27 154.5s41.833 81.333 71.5 111s63.667 51.834 102 66.501s78.166 22 119.499 22c50 0 92.167 -6 126.5 -18s65.5 -29.667 93.5 -53l-48 -91c-14.667 12 -28.167 21.167 -40.5 27.5s-25 11.166 -38 14.499s-27.5 5.33301 -43.5 6s-34.667 1 -56 1
c-28.667 0 -55.334 -5.5 -80.001 -16.5s-46 -26.5 -64 -46.5s-32.167 -44.333 -42.5 -73s-15.5 -60.667 -15.5 -96v-13c0 -2 0.333008 -3.66699 1 -5c24 32 55.333 58.833 94 80.5s83.667 32.5 135 32.5c34 0 66 -5.5 96 -16.5s56.167 -26.5 78.5 -46.5s40 -44 53 -72
s19.5 -59 19.5 -93zM519.004 232.998c0 17.333 -5.16699 32.999 -15.5 46.999s-23.166 25.833 -38.499 35.5s-31.833 16.834 -49.5 21.501s-33.834 6 -48.501 4c-14.667 -1.33301 -31.167 -4.83301 -49.5 -10.5s-36.666 -13.5 -54.999 -23.5s-35.333 -22.5 -51 -37.5
s-28.167 -32.833 -37.5 -53.5c16 -34 37.333 -60.333 64 -79s57 -28 91 -28c22 0 44.167 1.5 66.5 4.5s42.666 9 60.999 18s33.333 21.5 45 37.5s17.5 37.333 17.5 64z" />
    <glyph glyph-name="seven" unicode="7" horiz-adv-x="614" 
d="M222 0h-131l340 571l-1 3h-369v115h504l2 -115z" />
    <glyph glyph-name="eight" unicode="8" horiz-adv-x="619" 
d="M582 190c0 -30 -6.99707 -57.1719 -20.9971 -81.5049s-33 -45.166 -57 -62.499s-51.833 -30.666 -83.5 -39.999s-65.167 -14 -100.5 -14c-39.333 0 -76.333 4.5 -111 13.5s-64.667 22 -90 39s-45.333 37.333 -60 61s-22 50.5 -22 80.5c0 22 3.33301 42.5 10 61.5
s15.667 35.833 27 50.5s24.333 27 39 37s30 16.667 46 20c-0.666992 0 -0.666992 0.333008 0 1c-36 13.333 -64.833 33.166 -86.5 59.499s-32.5 56.5 -32.5 90.5c0 60.667 23.5 108.167 70.5 142.5s112.5 51.5 196.5 51.5c84.667 0 149.834 -17.667 195.501 -53
s68.5 -83.333 68.5 -144c0 -34.667 -10.833 -63.167 -32.5 -85.5s-48.834 -39.166 -81.501 -50.499h1l-1 -1c17.333 -7.33301 33.666 -16.666 48.999 -27.999s28.666 -24.666 39.999 -39.999s20.166 -32.166 26.499 -50.499s9.5 -37.5 9.5 -57.5zM448.003 189.995
c0 13.333 -4.33496 26.335 -13.002 39.002s-20.667 24.167 -36 34.5s-33.166 19.166 -53.499 26.499s-41.833 12.666 -64.5 15.999c-46 -7.33301 -79 -22.5 -99 -45.5s-30 -48.167 -30 -75.5c0 -26 12.167 -47.333 36.5 -64s60.833 -25 109.5 -25
s85.834 9.16699 111.501 27.5s38.5 40.5 38.5 66.5zM460.001 508.997c0 25.333 -12.666 46.999 -37.999 64.999s-62.333 27 -111 27s-86.334 -8 -113.001 -24s-40 -36.667 -40 -62c0 -13.333 4.83301 -25.833 14.5 -37.5s22.5 -22 38.5 -31s34.333 -16.667 55 -23
s42 -11.166 64 -14.499c46.667 11.333 80 24 100 38s30 34.667 30 62z" />
    <glyph glyph-name="nine" unicode="9" horiz-adv-x="665" 
d="M618 343c0 -59.333 -8.50488 -111.168 -25.5049 -155.501s-39.5 -81.166 -67.5 -110.499s-60 -51.333 -96 -66s-73 -22 -111 -22c-34 0 -67.667 3.83301 -101 11.5s-64 21.167 -92 40.5l18 98c12.667 -7.33301 24.834 -13.833 36.501 -19.5s24 -10.167 37 -13.5
s27.333 -5.83301 43 -7.5s33.834 -2.5 54.501 -2.5c28.667 0 54.834 5.66699 78.501 17s43.834 27.5 60.501 48.5s29.667 46.167 39 75.5s14 61.666 14 96.999c0 2 -0.166992 4.33301 -0.5 7s-0.5 5 -0.5 7c-0.666992 2.66699 -1 5 -1 7
c-14.667 -17.333 -30 -33.333 -46 -48s-33.333 -27.667 -52 -39s-38.334 -20.166 -59.001 -26.499s-42.667 -9.5 -66 -9.5c-37.333 0 -71.333 5.5 -102 16.5s-56.667 26.5 -78 46.5s-37.833 44.333 -49.5 73s-17.5 60.667 -17.5 96c0 41.333 8.83301 76.833 26.5 106.5
s40.167 54.167 67.5 73.5s57 33.666 89 42.999s62.667 14 92 14c36 0 72.333 -7.66699 109 -23s69.834 -38.166 99.501 -68.499s53.834 -67.833 72.501 -112.5s28 -96 28 -154zM485.995 457.998c-8.66699 20.667 -19.6709 39.3291 -33.0039 55.9961
s-28.166 30.834 -44.499 42.501s-33.333 20.667 -51 27s-34.834 9.5 -51.501 9.5c-21.333 0 -42.166 -2 -62.499 -6s-38.5 -11 -54.5 -21s-28.833 -23.5 -38.5 -40.5s-14.5 -38.5 -14.5 -64.5c0 -20.667 4.66699 -38.5 14 -53.5s21.333 -27.5 36 -37.5
s30.334 -17.5 47.001 -22.5s32.667 -7.5 48 -7.5c14.667 0 31.834 2.33301 51.501 7s39.334 11.834 59.001 21.501s38 21.834 55 36.501s30.167 32.334 39.5 53.001z" />
    <glyph glyph-name="colon" unicode=":" horiz-adv-x="232" 
d="M173 67c0 -19.333 -6.5 -36.333 -19.5 -51s-29.167 -22 -48.5 -22s-35.5 7.33301 -48.5 22s-19.5 31.667 -19.5 51c0 20.667 6.5 38.167 19.5 52.5s29.167 21.5 48.5 21.5s35.5 -7.16699 48.5 -21.5s19.5 -31.833 19.5 -52.5zM173 420c0 -19.333 -6.5 -36.333 -19.5 -51
s-29.167 -22 -48.5 -22s-35.5 7.33301 -48.5 22s-19.5 31.667 -19.5 51c0 20.667 6.5 38.167 19.5 52.5s29.167 21.5 48.5 21.5s35.5 -7.16699 48.5 -21.5s19.5 -31.833 19.5 -52.5z" />
    <glyph glyph-name="semicolon" unicode=";" horiz-adv-x="228" 
d="M171 424c0 -19.333 -6.5 -36.333 -19.5 -51s-29.167 -22 -48.5 -22s-35.5 7.33301 -48.5 22s-19.5 31.667 -19.5 51c0 20.667 6.5 38.167 19.5 52.5s29.167 21.5 48.5 21.5s35.5 -7.16699 48.5 -21.5s19.5 -31.833 19.5 -52.5zM174 47c0 -18 -2.33301 -35.833 -7 -53.5
s-10.834 -34.167 -18.501 -49.5s-16.667 -28.833 -27 -40.5s-20.833 -20.5 -31.5 -26.5l-52 23c6 4 12.5 9.83301 19.5 17.5s13.5 16 19.5 25s11 18.333 15 28s6 18.5 6 26.5c0 3.33301 -0.333008 5.33301 -1 6c-7.33301 -2 -14.333 -3 -21 -3
c-11.333 0 -21.666 7 -30.999 21s-14 30.667 -14 50c0 10.667 2.16699 20.334 6.5 29.001s10 16 17 22s14.833 10.5 23.5 13.5s17 4.5 25 4.5c22.667 0 40.167 -8.33301 52.5 -25s18.5 -39.334 18.5 -68.001z" />
    <glyph glyph-name="less" unicode="&#x3c;" horiz-adv-x="598" 
d="M50 298v106l490 294v-134l-352 -215l352 -221v-134z" />
    <glyph glyph-name="equal" unicode="=" horiz-adv-x="423" 
d="M44 390v102h334v-102h-334zM44 175v102h334v-102h-334z" />
    <glyph glyph-name="greater" unicode="&#x3e;" horiz-adv-x="622" 
d="M60 -6v134l352 221l-352 215v134l490 -294v-106z" />
    <glyph glyph-name="question" unicode="?" horiz-adv-x="547" 
d="M32 628c10.667 10 22.6709 20.1621 36.0039 30.4951s28.5 19.5 45.5 27.5s36.167 14.667 57.5 20s45.666 8 72.999 8c54 0 98 -7.66699 132 -23s60.5 -33.833 79.5 -55.5s32 -44.5 39 -68.5s10.5 -44.667 10.5 -62c0 -51.333 -15.333 -94.166 -46 -128.499
s-73.334 -56.166 -128.001 -65.499c-24.667 -4.66699 -43 -13 -55 -25s-20 -23.667 -24 -35c-2 -7.33301 -3.16699 -14.166 -3.5 -20.499s0.166992 -12.166 1.5 -17.499c1.33301 -6 3 -11.667 5 -17h-102c-6 19.333 -9.16699 41.5 -9.5 66.5s6.16699 50.167 19.5 75.5
c14 26 35.833 44.833 65.5 56.5s62.167 20.834 97.5 27.501c15.333 2.66699 27.833 7.16699 37.5 13.5s17.167 13.5 22.5 21.5s9 16.333 11 25s3 17.334 3 26.001c0 8 -2.5 18.167 -7.5 30.5s-13.333 24 -25 35s-27.334 20.5 -47.001 28.5s-44.834 12 -75.501 12
c-21.333 0 -39.333 -1.83301 -54 -5.5s-27.5 -8.83398 -38.5 -15.501s-21.167 -14.167 -30.5 -22.5s-19.333 -16.833 -30 -25.5zM276.004 64.9951c0 -18 -6.5 -34 -19.5 -48s-28.833 -21 -47.5 -21s-34.5 7 -47.5 21s-19.5 30 -19.5 48c0 19.333 6.5 36 19.5 50
s28.833 21 47.5 21s34.5 -7 47.5 -21s19.5 -30.667 19.5 -50z" />
    <glyph glyph-name="at" unicode="@" horiz-adv-x="800" 
d="M547 94c-12.667 0 -24.998 2.82715 -36.998 8.49414s-23 13 -33 22s-18.833 19.5 -26.5 31.5s-13.167 24.333 -16.5 37c-7.33301 -9.33301 -15.5 -18.166 -24.5 -26.499s-18.333 -16 -28 -23s-19.334 -12.5 -29.001 -16.5s-18.834 -6 -27.501 -6
c-26 0 -48.333 6.83301 -67 20.5s-33.834 31.5 -45.501 53.5s-19.834 46.5 -24.501 73.5s-6 53.833 -4 80.5c2 28 7.66699 55.333 17 82s22.333 50.334 39 71.001s36.834 37.334 60.501 50.001s50.5 19 80.5 19c12 0 23.167 -2.83301 33.5 -8.5s19.833 -12.667 28.5 -21
s16 -17.333 22 -27s11 -18.834 15 -27.501l15 57h89l-69 -251c-5.33301 -18 -7.33301 -34.167 -6 -48.5s4.5 -26.5 9.5 -36.5s11.5 -17.5 19.5 -22.5s16.667 -7.5 26 -7.5c13.333 0 26.5 4.83301 39.5 14.5s24.667 23.334 35 41.001s18.666 38.834 24.999 63.501
s9.5 52 9.5 82c0 40.667 -7.66699 78.167 -23 112.5s-35.666 64 -60.999 89s-54 44.5 -86 58.5s-64.333 21 -97 21c-36 0 -72.167 -6.83301 -108.5 -20.5s-69 -33.5 -98 -59.5s-52.5 -57.667 -70.5 -95s-27 -79.666 -27 -126.999c0 -44 7.83301 -86.5 23.5 -127.5
s37.167 -77.333 64.5 -109s59.5 -56.834 96.5 -75.501s76.833 -28 119.5 -28c18 0 36.333 2.33301 55 7s34.667 10.667 48 18l15 -62c-16 -8 -33.5 -15 -52.5 -21s-40.833 -9 -65.5 -9c-53.333 0 -102.5 10.833 -147.5 32.5s-83.833 50.834 -116.5 87.501
s-58.167 79.5 -76.5 128.5s-27.5 100.833 -27.5 155.5c0 60.667 10.667 114.167 32 160.5s49.333 85 84 116s74 54.5 118 70.5s88.667 24 134 24c42.667 0 84 -8.83301 124 -26.5s75.5 -42 106.5 -73s55.833 -67.5 74.5 -109.5s28 -87.667 28 -137
c0 -41.333 -5 -79.333 -15 -114s-23.667 -64.667 -41 -90s-37.666 -45.166 -60.999 -59.499s-48.333 -21.5 -75 -21.5v-1zM381.002 492.994c-10 0 -20.668 -3.83203 -32.001 -11.499s-22.166 -18.167 -32.499 -31.5s-19.333 -29 -27 -47s-12.834 -37 -15.501 -57
c-3.33301 -25.333 -3.5 -46.5 -0.5 -63.5s7.66699 -30.5 14 -40.5s13.833 -17 22.5 -21s17 -6 25 -6c6.66699 0 14.5 1.5 23.5 4.5s18.333 7.33301 28 13s18.834 12.667 27.501 21s16 17.833 22 28.5l23 109c-5.33301 35.333 -16 61.166 -32 77.499s-31.333 24.5 -46 24.5z
" />
    <glyph glyph-name="A" unicode="A" horiz-adv-x="694" 
d="M544 0l-58 157l-278 -1l-59 -156h-123l276 703h105l264 -703h-127zM349 532h-1l-99 -262h197z" />
    <glyph glyph-name="B" unicode="B" horiz-adv-x="661" 
d="M605 193c0 -30 -5.83203 -56.835 -17.499 -80.502s-27.334 -43.834 -47.001 -60.501s-42.334 -29.5 -68.001 -38.5s-52.5 -13.5 -80.5 -13.5h-316l1 701h306c33.333 0 63.333 -5.16699 90 -15.5s49.334 -24.166 68.001 -41.499s33 -37.666 43 -60.999s15 -48.333 15 -75
c0 -20 -2.66699 -38.167 -8 -54.5s-12.5 -30.666 -21.5 -42.999s-19.167 -23 -30.5 -32s-23.333 -16.5 -36 -22.5v-2c12.667 -2.66699 25 -9 37 -19s22.833 -22.333 32.5 -37s17.5 -31.167 23.5 -49.5s9 -36.833 9 -55.5zM480.001 496.998
c0 12.667 -2.33301 24.666 -7 35.999s-11.5 21.333 -20.5 30s-20.167 15.5 -33.5 20.5s-29 7.16699 -47 6.5h-171v-188l161 -1c36 0 64.667 9.33301 86 28s32 41.334 32 68.001zM477.001 199.997c0 26.667 -9 49.668 -27 69.001s-45 29 -81 29h-168v-188h161
c36 0 64.167 8.66699 84.5 26s30.5 38.666 30.5 63.999z" />
    <glyph glyph-name="C" unicode="C" horiz-adv-x="703" 
d="M374 -18c-36 0 -73.499 7.83496 -112.499 23.502s-74.667 39.167 -107 70.5s-59 70 -80 116s-31.5 99.667 -31.5 161c0 56.667 9.66699 107.834 29 153.501s44.666 84.5 75.999 116.5s66.5 56.5 105.5 73.5s78.167 25.5 117.5 25.5c31.333 0 60.5 -3.33301 87.5 -10
s52.167 -15.667 75.5 -27s44.833 -24.333 64.5 -39s37.5 -30.334 53.5 -47.001l-56 -105c-14 13.333 -28.667 26.166 -44 38.499s-32 23.333 -50 33s-37.333 17.5 -58 23.5s-43.334 9 -68.001 9c-26 0 -51.333 -5.66699 -76 -17s-46.5 -27.666 -65.5 -48.999
s-34.333 -47.333 -46 -78s-17.5 -65.334 -17.5 -104.001c0 -37.333 5.66699 -71.333 17 -102s26.5 -56.667 45.5 -78s40.833 -37.833 65.5 -49.5s50 -17.5 76 -17.5c24.667 0 47.5 3 68.5 9s40.833 14 59.5 24s36 21.333 52 34s31 25.667 45 39l63 -91
c-9.33301 -13.333 -22.666 -27.833 -39.999 -43.5s-38.333 -30.334 -63 -44.001s-52.667 -25.167 -84 -34.5s-65.333 -14 -102 -14z" />
    <glyph glyph-name="D" unicode="D" horiz-adv-x="723" 
d="M657 350c0 -49.333 -7.83301 -95.335 -23.5 -138.002s-38 -79.667 -67 -111s-64.333 -56 -106 -74s-88.167 -27 -139.5 -27h-253v701h281c47.333 0 90 -9.66699 128 -29s70.333 -45.166 97 -77.499s47.167 -69.666 61.5 -111.999s21.5 -86.5 21.5 -132.5zM532 346.998
c0 32.667 -4.16602 63.668 -12.499 93.001s-21.5 54.666 -39.5 75.999s-41.5 38.333 -70.5 51s-64.167 19 -105.5 19h-107l-1 -471h105c35.333 0 67.166 6 95.499 18s52.5 28.5 72.5 49.5s35.5 45.667 46.5 74s16.5 58.5 16.5 90.5z" />
    <glyph glyph-name="E" unicode="E" horiz-adv-x="619" 
d="M84 0v701h485v-115h-356v-183h304v-111h-304v-176h366v-116h-495z" />
    <glyph glyph-name="F" unicode="F" horiz-adv-x="610" 
d="M205 586v-194h293v-116h-294l1 -276h-128v701h483v-115h-355z" />
    <glyph glyph-name="G" unicode="G" horiz-adv-x="745" 
d="M675 114c-8.66699 -9.33301 -21.8281 -20.667 -39.4951 -34s-38.834 -26.666 -63.501 -39.999c-24 -13.333 -52.333 -25 -85 -35s-68 -15 -106 -15s-76 7.83301 -114 23.5s-72.167 38.834 -102.5 69.501s-55 68.667 -74 114s-28.5 97.666 -28.5 156.999
c0 60 9.66699 112.5 29 157.5s44.333 82.5 75 112.5s65 52.333 103 67s75.667 22 113 22c15.333 0 37.166 -1.5 65.499 -4.5s57.166 -9.5 86.499 -19.5c14 -5.33301 28.667 -12.333 44 -21s29.5 -17.667 42.5 -27s24.333 -18.166 34 -26.499s16.5 -14.833 20.5 -19.5
l-54 -93c-4.66699 4 -11.834 9 -21.501 15l-30.5 18.5c-10.667 6.33301 -21.334 12.166 -32.001 17.499l-26 13c-16 7.33301 -35 13.166 -57 17.499s-46.333 6.5 -73 6.5c-29.333 0 -56.166 -5.33301 -80.499 -16s-45.333 -26 -63 -46s-31.5 -44.5 -41.5 -73.5
s-15 -61.833 -15 -98.5s5.33301 -69.834 16 -99.501s25 -55 43 -76s39.167 -37.167 63.5 -48.5s50.166 -17 77.499 -17c34 0 67.333 6.33301 100 19s60 29.334 82 50.001v100h-193l1 108h304v-278v0z" />
    <glyph glyph-name="H" unicode="H" horiz-adv-x="692" 
d="M487 0v278h-284v-278h-129v701h130v-299h283v299h130v-701h-130z" />
    <glyph glyph-name="I" unicode="I" horiz-adv-x="328" 
d="M107 0v701h130v-701h-130z" />
    <glyph glyph-name="J" unicode="J" horiz-adv-x="317" 
d="M243 59c0 -34.667 -5.50195 -67.5 -16.502 -98.5s-26.167 -58 -45.5 -81s-41.833 -41.333 -67.5 -55s-53.167 -20.5 -82.5 -20.5c-33.333 0 -64.666 9.66699 -93.999 29l20 102c10 -4 20.333 -7.33301 31 -10s21.334 -4 32.001 -4c20.667 0 37.167 5.33301 49.5 16
s21.833 24.5 28.5 41.5s11 35.833 13 56.5s3 40.667 3 60v606h129v-642z" />
    <glyph glyph-name="K" unicode="K" horiz-adv-x="640" 
d="M479 0l-194 312l-71 -80v-232h-129v701h129v-304l263 304h137l-246 -289l260 -412h-149z" />
    <glyph glyph-name="L" unicode="L" horiz-adv-x="630" 
d="M86 0l-1 701h129v-579h366v-122h-494z" />
    <glyph glyph-name="M" unicode="M" horiz-adv-x="897" 
d="M818 0h-115l-37 413l-2 2l-216 -403h-38l-204 400l-2 -3l-36 -409h-114l49 701h75l256 -481h1l259 481h69z" />
    <glyph glyph-name="N" unicode="N" horiz-adv-x="734" 
d="M603 0l-400 442v-442h-127v701h75l383 -421v421h126v-701h-57z" />
    <glyph glyph-name="O" unicode="O" horiz-adv-x="797" 
d="M759 347c0 -61.333 -10.333 -114.835 -31 -160.502s-47.667 -83.667 -81 -114s-71 -53.166 -113 -68.499s-84 -23 -126 -23c-42.667 0 -85 7.83301 -127 23.5s-79.667 39 -113 70s-60.333 69.333 -81 115s-31 98.834 -31 159.501c0 63.333 10.333 118.333 31 165
s47.667 85.334 81 116.001s71 53.5 113 68.5s84.333 22.5 127 22.5c42 0 84 -8.16699 126 -24.5s79.667 -40.333 113 -72s60.333 -70.834 81 -117.501s31 -100 31 -160zM637 346.998c0 34.667 -5.5 67.3301 -16.5 97.9971s-26.5 57.334 -46.5 80.001
s-44.167 40.5 -72.5 53.5s-59.5 19.5 -93.5 19.5c-34.667 0 -66.167 -6.5 -94.5 -19.5s-52.5 -30.667 -72.5 -53s-35.5 -48.833 -46.5 -79.5s-16.5 -63.667 -16.5 -99c0 -34 5.5 -65.667 16.5 -95s26.5 -55 46.5 -77s44.167 -39.333 72.5 -52s59.833 -19 94.5 -19
c34 0 65.167 6.16699 93.5 18.5s52.5 29.333 72.5 51s35.5 47.334 46.5 77.001s16.5 61.834 16.5 96.501z" />
    <glyph glyph-name="P" unicode="P" horiz-adv-x="662" 
d="M610 452c0 -38 -6.33398 -72 -19.001 -102s-30 -55.333 -52 -76s-47.667 -36.5 -77 -47.5s-61 -16.5 -95 -16.5h-162v-210h-129v701h287c34 0 65.833 -5.5 95.5 -16.5s55.834 -27.167 78.501 -48.5s40.5 -47.5 53.5 -78.5s19.5 -66.167 19.5 -105.5zM480.999 450
c0 15.333 -2.66699 30.332 -8 44.999s-13 27.834 -23 39.501s-22.167 21 -36.5 28s-30.5 10.167 -48.5 9.5h-160v-244h144c18 0 35 3 51 9s30 14.5 42 25.5s21.5 24 28.5 39s10.5 31.167 10.5 48.5z" />
    <glyph glyph-name="Q" unicode="Q" horiz-adv-x="774" 
d="M732 345c0 -49.333 -6.83691 -93.502 -20.5039 -132.502s-32.167 -73 -55.5 -102s-50.166 -53 -80.499 -72s-62.166 -32.833 -95.499 -41.5c10.667 -16 24.334 -31 41.001 -45s34.667 -27.167 54 -39.5s39.333 -23.5 60 -33.5s40.667 -18.667 60 -26l-60 -98
c-33.333 12.667 -65.5 28.167 -96.5 46.5s-60 38 -87 59s-51.667 42.5 -74 64.5s-41.5 43.667 -57.5 65c-36 6.66699 -71 18.834 -105 36.501s-64.167 41.334 -90.5 71.001s-47.5 65 -63.5 106s-24 88.167 -24 141.5c0 57.333 10.167 108.833 30.5 154.5
s46.833 84.334 79.5 116.001s69.834 56 111.501 73s83.5 25.5 125.5 25.5c44 0 86.833 -8.5 128.5 -25.5s78.667 -41.333 111 -73s58.5 -70.334 78.5 -116.001s30 -97.167 30 -154.5zM614.996 344.998c0 34.667 -5.5 67.166 -16.5 97.499s-26.667 56.5 -47 78.5
s-44.666 39.333 -72.999 52s-59.833 19 -94.5 19c-34 0 -65.167 -6.33301 -93.5 -19s-52.5 -30 -72.5 -52s-35.5 -48 -46.5 -78s-16.5 -62.667 -16.5 -98c0 -34 5.5 -65.667 16.5 -95s26.5 -54.666 46.5 -75.999s44.167 -38.166 72.5 -50.499s59.5 -18.5 93.5 -18.5
c34.667 0 66.167 6 94.5 18s52.666 28.667 72.999 50s36 46.666 47 75.999s16.5 61.333 16.5 96z" />
    <glyph glyph-name="R" unicode="R" horiz-adv-x="703" 
d="M496 0l-71.001 111l-30.5 46l-30 46l-28 41.5l-23.5 33.5h-99l-1 -278h-128v701h319c33.333 0 64 -5 92 -15s52 -24 72 -42s35.667 -39.667 47 -65s17 -53 17 -83c0 -28 -4.83301 -54.167 -14.5 -78.5s-23 -45.833 -40 -64.5s-36.667 -34 -59 -46
s-46.166 -19.667 -71.499 -23l9 -4l169 -268v-12h-129zM512.999 494c0 25.333 -8.33203 46.667 -24.999 64s-43.334 26 -80.001 26h-194v-184l185 -2c36 0 64 9.5 84 28.5s30 41.5 30 67.5z" />
    <glyph glyph-name="S" unicode="S" horiz-adv-x="671" 
d="M611 214c0 -44.667 -9.66992 -81.332 -29.0029 -109.999s-43.333 -51.5 -72 -68.5s-59.667 -28.833 -93 -35.5s-64 -10 -92 -10c-25.333 0 -48.833 1.83301 -70.5 5.5s-42.834 9.33398 -63.501 17.001s-41.667 17.5 -63 29.5s-44 26.333 -68 43l40 112
c46 -28 86.167 -49.5 120.5 -64.5s65.5 -22.5 93.5 -22.5c17.333 0 35.833 1.83301 55.5 5.5s38 9.5 55 17.5s31.167 18.667 42.5 32s17 29.666 17 48.999c0 16 -4.66699 29 -14 39s-22.166 18.333 -38.499 25s-35.333 11.834 -57 15.501s-44.5 7.16699 -68.5 10.5
c-29.333 4 -59.166 9 -89.499 15s-57.666 16 -81.999 30s-44.166 33.167 -59.499 57.5s-23 56.833 -23 97.5c0 44 9.5 80 28.5 108s42.5 49.833 70.5 65.5s58.167 26.5 90.5 32.5s61.833 9 88.5 9c94 0 181.667 -29.667 263 -89l-37 -102
c-36 23.333 -73.667 41.166 -113 53.499s-77 18.5 -113 18.5c-28.667 0 -52.834 -2.66699 -72.501 -8s-35.5 -12.333 -47.5 -21s-20.5 -18.334 -25.5 -29.001s-7.5 -21.334 -7.5 -32.001c0 -18 6.66699 -31.833 20 -41.5s29 -17 47 -22s36.333 -8.33301 55 -10
s33 -3.16699 43 -4.5c18.667 -2 38.334 -4.5 59.001 -7.5s41 -7.5 61 -13.5s39 -14 57 -24s33.833 -22.667 47.5 -38s24.5 -34.166 32.5 -56.499s12 -48.5 12 -78.5z" />
    <glyph glyph-name="T" unicode="T" horiz-adv-x="693" 
d="M417 586v-586h-129l-1 586h-238v115h606v-115h-238z" />
    <glyph glyph-name="U" unicode="U" horiz-adv-x="735" 
d="M74 701l125.999 0.000976562v-354c0 -44 4.33301 -80.667 13 -110s20.5 -52.833 35.5 -70.5s33 -30 54 -37s44.167 -10.5 69.5 -10.5c23.333 0 45.166 4.5 65.499 13.5s38 23 53 42s26.833 43.167 35.5 72.5s13 64.333 13 105l-1 349h127v-342
c0 -57.333 -6.66699 -108.833 -20 -154.5s-32.666 -84.5 -57.999 -116.5s-56.166 -56.5 -92.499 -73.5s-77.166 -25.5 -122.499 -25.5c-46.667 0 -88.5 8.5 -125.5 25.5s-68.333 41.167 -94 72.5s-45.334 69.166 -59.001 113.499s-20.5 93.833 -20.5 148.5z" />
    <glyph glyph-name="V" unicode="V" horiz-adv-x="712" 
d="M34 701h134l192 -529l187 529h129l-262 -703h-107z" />
    <glyph glyph-name="W" unicode="W" horiz-adv-x="962" 
d="M710 0h-83l-144 494h-1l-130 -494h-93l-229 701h131l147 -452h2l113 440h109l139 -451h1l132 463h126z" />
    <glyph glyph-name="X" unicode="X" horiz-adv-x="652" 
d="M635 0h-146l-162 246l-166 -246h-134l232 344v2l-232 355h146l160 -244l6.5 10l17 27.5l24.5 39.5l29 45l79 122h137l-226 -343z" />
    <glyph glyph-name="Y" unicode="Y" horiz-adv-x="631" 
d="M383 265v-265h-129l-1 271l-230 430h130l171 -319l162 319h129z" />
    <glyph glyph-name="Z" unicode="Z" horiz-adv-x="651" 
d="M225 116h349v-116h-521v80l367 506h-358v115h525v-79z" />
    <glyph glyph-name="bracketleft" unicode="[" horiz-adv-x="342" 
d="M70 -92l-2 884h208v-91h-84l-1 -701h95v-92h-216z" />
    <glyph glyph-name="backslash" unicode="\" horiz-adv-x="504" 
d="M377 -65l-360 834h103l360 -834h-103z" />
    <glyph glyph-name="bracketright" unicode="]" horiz-adv-x="342" 
d="M70 -92v92h94v701h-84v91h207v-884h-217z" />
    <glyph glyph-name="asciicircum" unicode="^" horiz-adv-x="437" 
d="M298 402l-75 166l-76 -166h-94l134 299h75l129 -299h-93z" />
    <glyph glyph-name="underscore" unicode="_" horiz-adv-x="367" 
d="M-2 -119v49h376v-49h-376z" />
    <glyph glyph-name="grave" unicode="`" horiz-adv-x="582" 
d="M154 769h124l144 -173h-87l-186 165z" />
    <glyph glyph-name="a" unicode="a" 
d="M390 48l-10.0088 -11.502c-3.33301 -3.66699 -7 -7.16699 -11 -10.5c-15.333 -12 -32.666 -20.5 -51.999 -25.5s-41.333 -7.5 -66 -7.5s-49.167 3.66699 -73.5 11s-46.166 17.833 -65.499 31.5s-35 30.667 -47 51s-18 43.5 -18 69.5c0 30 5.83301 55.833 17.5 77.5
s27 39.334 46 53.001s40.833 23.667 65.5 30s50.334 9.5 77.001 9.5c18.667 0 39.334 -1.66699 62.001 -5l54 -8v11c0 9.33301 -1.5 21 -4.5 35s-9.83301 24.667 -20.5 32c-13.333 9.33301 -27.833 15.333 -43.5 18s-32.167 4 -49.5 4c-12 0 -24.5 -1.16699 -37.5 -3.5
s-26 -5.5 -39 -9.5s-25.333 -8.33301 -37 -13l-31.5 -13l-20 74c6 6 15.333 12 28 18s27 11.5 43 16.5s32.833 9.16699 50.5 12.5s34.834 5 51.501 5c10.667 0 22.834 -0.333008 36.501 -1s27.5 -2.33398 41.5 -5.00098s27.833 -6.5 41.5 -11.5s26.167 -11.833 37.5 -20.5
c26.667 -19.333 44.5 -39.5 53.5 -60.5s13.5 -47.167 13.5 -78.5v-166c0 -13.333 0.5 -25.666 1.5 -36.999s5.16699 -20.666 12.5 -27.999c10.667 -10.667 24 -12 40 -4l22 -69c-11.333 -9.33301 -21.666 -15.833 -30.999 -19.5s-19.666 -5.5 -30.999 -5.5
c-14 0 -29 1.83301 -45 5.5s-29.667 10.5 -41 20.5c-4 3.33301 -7.66699 7.33301 -11 12s-6.66602 10 -9.99902 16zM368.991 231.998c-13.333 2.66699 -29.834 5.5 -49.501 8.5s-38.167 4.5 -55.5 4.5c-34 0 -59.5 -7 -76.5 -21s-25.5 -34 -25.5 -60
c0 -27.333 8.16699 -47.833 24.5 -61.5s39.5 -20.5 69.5 -20.5c27.333 0 50.333 3.5 69 10.5s34.334 16.167 47.001 27.5c-1.33301 4.66699 -2 9.16699 -2 13.5v14.5z" />
    <glyph glyph-name="b" unicode="b" horiz-adv-x="549" 
d="M509 253c0 -42 -6.16699 -79.165 -18.5 -111.498s-28.833 -59.5 -49.5 -81.5s-44.334 -38.667 -71.001 -50s-54 -17 -82 -17c-20.667 0 -41.667 5.16699 -63 15.5s-41.666 24.166 -60.999 41.499v-50h-114v768h114v-318c17.333 15.333 36.333 27.333 57 36
s41.667 13 63 13c28.667 0 56.5 -5.83301 83.5 -17.5s51 -28.334 72 -50.001s37.833 -47.667 50.5 -78s19 -63.833 19 -100.5zM395 246.002c0 18.667 -2.83301 36.501 -8.5 53.501s-13.667 31.833 -24 44.5s-23 22.667 -38 30s-31.5 11 -49.5 11
c-21.333 0 -41.833 -5.16699 -61.5 -15.5s-36.167 -24.166 -49.5 -41.499v-167c13.333 -16.667 29.833 -29.834 49.5 -39.501s40.167 -14.5 61.5 -14.5c18 0 34.5 3.66699 49.5 11s27.667 17.166 38 29.499s18.333 27 24 44s8.5 35.167 8.5 54.5z" />
    <glyph glyph-name="c" unicode="c" horiz-adv-x="533" 
d="M487 59c-21.333 -19.333 -49.333 -35.334 -84 -48.001s-72 -19 -112 -19c-30.667 0 -60.667 5.33301 -90 16s-55.666 26.5 -78.999 47.5s-42.166 47 -56.499 78s-21.5 67.167 -21.5 108.5c0 43.333 7.16699 81 21.5 113s33.166 58.667 56.499 80s49.666 37.333 78.999 48
s59.333 16 90 16c81.333 0 148.333 -22.667 201 -68l-38 -93c-16 11.333 -38 22.5 -66 33.5s-60.333 16.5 -97 16.5c-19.333 0 -37 -3.83301 -53 -11.5s-29.667 -18 -41 -31s-20.333 -28.167 -27 -45.5s-10 -35.666 -10 -54.999c0 -18.667 3.33301 -36 10 -52
s15.667 -30 27 -42s25 -21.333 41 -28s33.667 -10 53 -10c30 0 58.167 3.16699 84.5 9.5s50.5 16.833 72.5 31.5l39 -95v0z" />
    <glyph glyph-name="d" unicode="d" horiz-adv-x="549" 
d="M33 239c0 41.333 6.16602 78.165 18.499 110.498s28.666 59.5 48.999 81.5s43.833 38.833 70.5 50.5s54.334 17.5 83.001 17.5c21.333 0 42.5 -5.16699 63.5 -15.5s41.167 -24.166 60.5 -41.499v326h114v-768h-104l-10 42c-17.333 -15.333 -36.166 -27.333 -56.499 -36
s-41.5 -13 -63.5 -13c-28.667 0 -56.5 5.83301 -83.5 17.5s-51 28.334 -72 50.001s-37.833 47.5 -50.5 77.5s-19 63.667 -19 101zM146.999 245.999c0 -19.333 2.83301 -37.5 8.5 -54.5s13.667 -31.833 24 -44.5s22.833 -22.667 37.5 -30s31 -11 49 -11
c22 0 42.833 5.33301 62.5 16s36.167 24.667 49.5 42v166c-13.333 17.333 -29.833 30.833 -49.5 40.5s-40.5 14.5 -62.5 14.5c-18 0 -34.333 -3.66699 -49 -11s-27.167 -17.333 -37.5 -30s-18.333 -27.5 -24 -44.5s-8.5 -34.833 -8.5 -53.5z" />
    <glyph glyph-name="e" unicode="e" horiz-adv-x="543" 
d="M394 292c0 8.66699 -0.999023 19.332 -2.99902 31.999s-7 24.834 -15 36.501s-19.833 21.5 -35.5 29.5s-36.834 12 -63.501 12c-28.667 0 -53.5 -9.66699 -74.5 -29s-35.167 -46.333 -42.5 -81h234zM277.001 498.998c34 0 63.668 -4.66797 89.001 -14.001
s47 -22.166 65 -38.499s32.333 -35.5 43 -57.5s18.667 -46 24 -72c3.33301 -17.333 5.33301 -35.833 6 -55.5s0.333984 -39.167 -0.999023 -58.5h-348c0 -11.333 3.5 -23.333 10.5 -36s16.5 -24.167 28.5 -34.5s26 -18.833 42 -25.5s33 -10 51 -10c30 0 57.333 2.33301 82 7
s47.667 14.334 69 29.001l43 -72c-8.66699 -10 -20.334 -19.167 -35.001 -27.5s-30.834 -15.5 -48.501 -21.5s-36.334 -10.667 -56.001 -14s-39.167 -5 -58.5 -5c-30 0 -59.667 5.33301 -89 16s-55.666 26.5 -78.999 47.5s-42.333 47.167 -57 78.5s-22 67.666 -22 108.999
c0 42.667 7 80 21 112s32.5 58.5 55.5 79.5s48.833 36.833 77.5 47.5s57.667 16 87 16z" />
    <glyph glyph-name="f" unicode="f" horiz-adv-x="344" 
d="M76 490l-0.00292969 94c0 27.333 5.83301 55 17.5 83s26.834 49.667 45.501 65c17.333 14 33.833 23.5 49.5 28.5s32.167 7.5 49.5 7.5c11.333 0 24.833 -1.66699 40.5 -5s29.834 -8 42.501 -14l-11 -113c-7.33301 5.33301 -16.166 8.83301 -26.499 10.5
s-18.5 2.5 -24.5 2.5c-10 0 -18.5 -1.33301 -25.5 -4s-13.167 -6.33398 -18.5 -11.001c-8 -8 -14.333 -18.167 -19 -30.5s-7 -26.166 -7 -41.499v-72h115v-94h-115v-396h-113v396h-59v94h59z" />
    <glyph glyph-name="g" unicode="g" horiz-adv-x="549" 
d="M492 19c0 -42 -9.33398 -78.333 -28.001 -109s-42 -54.334 -70 -71.001c-25.333 -14.667 -52 -24.834 -80 -30.501s-53 -8.5 -75 -8.5c-30.667 0 -59.834 5.66699 -87.501 17s-51.167 26.333 -70.5 45l38 83c12.667 -11.333 30 -20.333 52 -27s44.667 -10 68 -10
c16 0 32.833 2.33301 50.5 7s33.167 11.667 46.5 21c12 8.66699 21.833 19 29.5 31s11.5 26.333 11.5 43v31c-17.333 -15.333 -36.166 -27.166 -56.499 -35.499s-41.166 -12.5 -62.499 -12.5c-28.667 0 -56.5 5.83301 -83.5 17.5s-51 28.334 -72 50.001
s-37.833 47.5 -50.5 77.5s-19 63.667 -19 101c0 41.333 6.16699 78.166 18.5 110.499s28.666 59.5 48.999 81.5s43.833 38.833 70.5 50.5s54.334 17.5 83.001 17.5c21.333 0 42.5 -5.16699 63.5 -15.5s41.167 -24.166 60.5 -41.499v48h114v-471zM377.999 330
c-13.333 17.333 -29.833 30.833 -49.5 40.5s-40.5 14.5 -62.5 14.5c-18 0 -34.333 -3.66699 -49 -11s-27.167 -17.333 -37.5 -30s-18.333 -27.5 -24 -44.5s-8.5 -34.833 -8.5 -53.5c0 -19.333 2.83301 -37.5 8.5 -54.5s13.667 -31.833 24 -44.5s22.833 -22.667 37.5 -30
s31 -11 49 -11c22 0 42.833 5.33301 62.5 16s36.167 24.667 49.5 42v166z" />
    <glyph glyph-name="h" unicode="h" horiz-adv-x="528" 
d="M164 428c14.667 16.667 33.1689 32.498 55.502 47.498s49.166 22.5 80.499 22.5c26 0 49.5 -4.33301 70.5 -13s39.167 -20.667 54.5 -36s27.166 -33.5 35.499 -54.5s12.5 -43.833 12.5 -68.5v-326h-114v304c0 10 -1 19.833 -3 29.5s-5.5 18.334 -10.5 26.001
s-12.167 13.834 -21.5 18.501s-21.333 7 -36 7c-10.667 0 -21.667 -2.16699 -33 -6.5s-22.333 -10 -33 -17s-21 -14.667 -31 -23s-19 -16.5 -27 -24.5v-314h-114v768h114v-340v0z" />
    <glyph glyph-name="i" unicode="i" horiz-adv-x="245" 
d="M70 0v490h114v-490h-114zM193 630c0 -21.333 -6.5 -39 -19.5 -53s-28.833 -21 -47.5 -21c-17.333 0 -32.666 7 -45.999 21s-20 31.667 -20 53s6.66699 39 20 53s28.666 21 45.999 21c18.667 0 34.5 -7 47.5 -21s19.5 -31.667 19.5 -53z" />
    <glyph glyph-name="j" unicode="j" horiz-adv-x="217" 
d="M173 630c0 -21.333 -6.5 -39 -19.5 -53s-28.833 -21 -47.5 -21c-17.333 0 -32.666 7 -45.999 21s-20 31.667 -20 53s6.66699 39 20 53s28.666 21 45.999 21c18.667 0 34.5 -7 47.5 -21s19.5 -31.667 19.5 -53zM164 -12c0 -27.333 -5.99902 -55.001 -17.999 -83.001
s-27.333 -49.667 -46 -65c-16.667 -13.333 -32.834 -22.666 -48.501 -27.999s-32.167 -8 -49.5 -8c-23.333 0 -46 5 -68 15l12 113c12 -4 23.333 -6 34 -6s19.5 1 26.5 3s13.167 5.66699 18.5 11c8.66699 7.33301 15 17.333 19 30s6 26.667 6 42v478h114v-502z" />
    <glyph glyph-name="k" unicode="k" horiz-adv-x="495" 
d="M50 0v768h114v-449h2l164 171h121v-10l-159 -166l165 -304v-10h-119l-131 232l-43 -42v-190h-114z" />
    <glyph glyph-name="l" unicode="l" horiz-adv-x="276" 
d="M85 0v768h114v-768h-114z" />
    <glyph glyph-name="m" unicode="m" horiz-adv-x="829" 
d="M446 414c8 9.33301 16.8379 18.9951 26.5049 28.9951s20.5 19 32.5 27s25 14.667 39 20s29 8 45 8c26 0 50.167 -4.33301 72.5 -13s41.666 -20.667 57.999 -36s29 -33.5 38 -54.5s13.5 -43.833 13.5 -68.5v-326h-114v304c0 10 -1.16699 19.833 -3.5 29.5
s-6.33301 18.334 -12 26.001s-13.334 13.834 -23.001 18.501s-21.834 7 -36.501 7c-18.667 0 -37.667 -5.66699 -57 -17s-37.333 -24 -54 -38v-330h-114v304c0 10 -1.16699 19.833 -3.5 29.5s-6.5 18.334 -12.5 26.001s-13.833 13.834 -23.5 18.501s-21.834 7 -36.501 7
c-19.333 0 -39.333 -6.33301 -60 -19s-39.667 -26.667 -57 -42v-324h-114v490h114v-56c14.667 16 32.5 30.667 53.5 44s44.833 20 71.5 20c35.333 0 66.666 -7.66699 93.999 -23s48.333 -35.666 63 -60.999z" />
    <glyph glyph-name="n" unicode="n" horiz-adv-x="537" 
d="M164 432c6.66699 8 14.502 15.833 23.502 23.5s18.667 14.667 29 21s21.833 11.5 34.5 15.5s26.667 6 42 6c26 0 50.333 -4.33301 73 -13s42.167 -20.667 58.5 -36s29.166 -33.5 38.499 -54.5s14 -43.833 14 -68.5v-326h-113v300c0 10 -1.33301 20.167 -4 30.5
s-7 19.5 -13 27.5s-14 14.5 -24 19.5s-22.333 7.5 -37 7.5c-10.667 0 -21.5 -2.16699 -32.5 -6.5s-21.833 -9.83301 -32.5 -16.5s-20.834 -14 -30.501 -22s-18.5 -16 -26.5 -24v-316h-114v490h114v-58z" />
    <glyph glyph-name="o" unicode="o" horiz-adv-x="579" 
d="M543 242c0 -41.333 -7.16699 -77.667 -21.5 -109s-33.333 -57.5 -57 -78.5s-50.667 -36.667 -81 -47s-61.833 -15.5 -94.5 -15.5c-32 0 -63.333 5.33301 -94 16s-58 26.5 -82 47.5s-43.167 47 -57.5 78s-21.5 67.167 -21.5 108.5c0 42.667 7.16699 80.167 21.5 112.5
s33.5 59 57.5 80s51.333 36.833 82 47.5s62 16 94 16c32.667 0 64.167 -5.66699 94.5 -17s57.333 -27.833 81 -49.5s42.667 -48.5 57 -80.5s21.5 -68.333 21.5 -109zM427 244.999c0 20 -3.33301 38.5 -10 55.5s-16 31.667 -28 44s-26.5 22.166 -43.5 29.499
s-35.833 11 -56.5 11s-39.5 -3.66699 -56.5 -11s-31.5 -17.166 -43.5 -29.499s-21.333 -27 -28 -44s-10 -35.5 -10 -55.5c0 -19.333 3.33301 -37.333 10 -54s16 -31.167 28 -43.5s26.5 -22 43.5 -29s35.833 -10.5 56.5 -10.5s39.5 3.5 56.5 10.5s31.5 16.5 43.5 28.5
s21.333 26.333 28 43s10 35 10 55z" />
    <glyph glyph-name="p" unicode="p" horiz-adv-x="549" 
d="M509 253c0 -42 -6.16699 -79.165 -18.5 -111.498s-28.833 -59.5 -49.5 -81.5s-44.334 -38.667 -71.001 -50s-54 -17 -82 -17c-20.667 0 -41.667 5.16699 -63 15.5s-41.666 24.166 -60.999 41.499v-242h-114v682h114v-40c17.333 15.333 36.333 27.333 57 36
s41.667 13 63 13c28.667 0 56.5 -5.83301 83.5 -17.5s51 -28.334 72 -50.001s37.833 -47.667 50.5 -78s19 -63.833 19 -100.5zM395 246.002c0 18.667 -2.83301 36.501 -8.5 53.501s-13.667 31.833 -24 44.5s-23 22.667 -38 30s-31.5 11 -49.5 11
c-21.333 0 -41.833 -5.16699 -61.5 -15.5s-36.167 -24.166 -49.5 -41.499v-167c13.333 -16.667 29.833 -29.834 49.5 -39.501s40.167 -14.5 61.5 -14.5c18 0 34.5 3.66699 49.5 11s27.667 17.166 38 29.499s18.333 27 24 44s8.5 35.167 8.5 54.5z" />
    <glyph glyph-name="q" unicode="q" horiz-adv-x="549" 
d="M33 239c0 41.333 6.16602 78.165 18.499 110.498s28.666 59.5 48.999 81.5s43.833 38.833 70.5 50.5s54.334 17.5 83.001 17.5c21.333 0 42.5 -5.16699 63.5 -15.5s41.167 -24.166 60.5 -41.499l10 48h104v-682h-114v234c-17.333 -15.333 -36.166 -27.333 -56.499 -36
s-41.5 -13 -63.5 -13c-28.667 0 -56.5 5.83301 -83.5 17.5s-51 28.334 -72 50.001s-37.833 47.5 -50.5 77.5s-19 63.667 -19 101zM146.999 245.999c0 -19.333 2.83301 -37.5 8.5 -54.5s13.667 -31.833 24 -44.5s22.833 -22.667 37.5 -30s31 -11 49 -11
c22 0 42.833 5.33301 62.5 16s36.167 24.667 49.5 42v166c-13.333 17.333 -29.833 30.833 -49.5 40.5s-40.5 14.5 -62.5 14.5c-18 0 -34.333 -3.66699 -49 -11s-27.167 -17.333 -37.5 -30s-18.333 -27.5 -24 -44.5s-8.5 -34.833 -8.5 -53.5z" />
    <glyph glyph-name="r" unicode="r" horiz-adv-x="424" 
d="M347 354c-16.667 19.333 -40.666 29.001 -71.999 29.001c-10.667 0 -21.334 -2.33301 -32.001 -7s-20.667 -10.834 -30 -18.501s-18.166 -16 -26.499 -25s-15.833 -17.833 -22.5 -26.5v-306h-114v490h114v-59c15.333 17.333 33.833 33 55.5 47s43.167 21 64.5 21
c15.333 0 31.666 -2.33301 48.999 -7s34.333 -12 51 -22z" />
    <glyph glyph-name="s" unicode="s" horiz-adv-x="521" 
d="M255 -7c-20.667 0 -39.5029 1.16211 -56.5029 3.49512s-33.5 6 -49.5 11s-31.833 11.667 -47.5 20s-32.5 18.5 -50.5 30.5l39 90c29.333 -19.333 55.833 -33.5 79.5 -42.5s52.167 -13.5 85.5 -13.5c6 0 15 0.666992 27 2s24 4 36 8s22.5 9.66699 31.5 17s13.5 17 13.5 29
c0 10 -4.16699 17.833 -12.5 23.5s-18.166 10 -29.499 13s-22.666 4.83301 -33.999 5.5s-20.333 1 -27 1c-19.333 0 -41.833 1.33301 -67.5 4s-50 8.83398 -73 18.501s-42.5 24 -58.5 43s-24 45.167 -24 78.5c0 34 7.5 61.833 22.5 83.5s33.5 38.5 55.5 50.5
s46 20.167 72 24.5s50 6.5 72 6.5c46 0 84.333 -6.66699 115 -20s58.667 -33.666 84 -60.999l-42 -76c-23.333 18 -47.666 32 -72.999 42s-53.333 15 -84 15c-8.66699 0 -19.5 -0.333008 -32.5 -1s-25.667 -2.66699 -38 -6s-22.833 -9.16602 -31.5 -17.499
s-13 -19.833 -13 -34.5c0 -10.667 4.83301 -19 14.5 -25s21 -10.5 34 -13.5s26 -4.83301 39 -5.5s22.5 -1 28.5 -1c19.333 0 41.5 -1.83301 66.5 -5.5s48.5 -10.667 70.5 -21s40.667 -25.166 56 -44.499s23 -44.666 23 -75.999c0 -32 -7.83301 -58 -23.5 -78
s-34.667 -35.833 -57 -47.5s-46.333 -19.667 -72 -24s-48.5 -6.5 -68.5 -6.5z" />
    <glyph glyph-name="t" unicode="t" horiz-adv-x="403" 
d="M374 82c-25.333 -27.333 -49.498 -47.8301 -72.498 -61.4971s-46.167 -20.5 -69.5 -20.5c-17.333 0 -33.833 2.5 -49.5 7.5s-31.834 14.5 -48.501 28.5c-18.667 15.333 -33.834 37 -45.501 65s-17.5 55.667 -17.5 83v212h-67v94h67v96l112 55v-151h160v-94h-160v-190
c0 -30.667 8.66699 -54.667 26 -72c10.667 -8.66699 25.667 -13 45 -13c2.66699 0 7.16699 0.666992 13.5 2s13.166 3.66602 20.499 6.99902s14.833 7.66602 22.5 12.999s14.834 11.666 21.501 18.999l42 -80v0z" />
    <glyph glyph-name="u" unicode="u" horiz-adv-x="522" 
d="M356 53c-14.667 -15.333 -32.499 -29.332 -53.499 -41.999s-45.5 -19 -73.5 -19c-26 0 -50 4.33301 -72 13s-40.833 20.667 -56.5 36s-28 33.5 -37 54.5s-13.5 43.5 -13.5 67.5v327h113v-304c0 -10 1.16699 -20 3.5 -30s6.16602 -18.833 11.499 -26.5
s12.833 -13.834 22.5 -18.501s21.834 -7 36.501 -7c10 0 20.167 2 30.5 6s20.666 9 30.999 15s20.5 12.833 30.5 20.5s19 15.5 27 23.5v321h115v-490h-102l-13 52v1v0z" />
    <glyph glyph-name="v" unicode="v" horiz-adv-x="568" 
d="M318 0h-76l-212 478v12h118l131 -321l132 321h118v-12z" />
    <glyph glyph-name="w" unicode="w" horiz-adv-x="791" 
d="M598 0h-79l-117 325l-114 -325h-81l-167 478v12h106l100 -296l116 296h75l116 -310l96 310h105v-12z" />
    <glyph glyph-name="x" unicode="x" horiz-adv-x="545" 
d="M338 245l169 -233v-12h-127l-114 157l-117 -157h-118v12l169 233l-169 233v12h129l114 -158l114 158h119v-12z" />
    <glyph glyph-name="y" unicode="y" horiz-adv-x="564" 
d="M308 -102c-8 -20 -19.1689 -36.165 -33.502 -48.498s-30.5 -21.833 -48.5 -28.5s-36.667 -10.834 -56 -12.501s-37.666 -1.83398 -54.999 -0.500977l-55 5l14 108l51 -5c3.33301 0 9.5 -0.166992 18.5 -0.5s18.5 0.833984 28.5 3.50098s19.833 7.16699 29.5 13.5
s16.834 16.166 21.501 29.499l25 68l-217 448v12h120l150 -308l118 308h117v-12z" />
    <glyph glyph-name="z" unicode="z" horiz-adv-x="529" 
d="M484 451l-254 -345h254v-106h-434v35l263 350h-263v105h434v-39z" />
    <glyph glyph-name="braceleft" unicode="{" horiz-adv-x="354" 
d="M337 -25c-6.66699 -6.66699 -14.4971 -13.3379 -23.4971 -20.0049s-18.5 -12.5 -28.5 -17.5s-20 -9 -30 -12s-19.333 -4.5 -28 -4.5c-23.333 0 -43 4.33301 -59 13s-28.833 20.667 -38.5 36s-16.667 33.5 -21 54.5s-6.5 43.5 -6.5 67.5c0 22.667 1.66699 44.667 5 66
s5 43 5 65c0 5.33301 -0.333008 13.5 -1 24.5s-2 21.833 -4 32.5s-5.16699 20.167 -9.5 28.5s-9.83301 12.833 -16.5 13.5l-62 4v52c6.66699 0 13.667 0.166992 21 0.5s13.666 0.833008 18.999 1.5c6.66699 0.666992 13 1.33398 19 2.00098
c10.667 0.666992 18.667 6.16699 24 16.5s8 27.833 8 52.5c0 26.667 -1.66699 52.5 -5 77.5s-5 50.833 -5 77.5c0 25.333 2.16699 48.333 6.5 69s11.5 38.334 21.5 53.001s23.167 26 39.5 34s36.166 12 59.499 12c7.33301 0 16 -1.33301 26 -4s20 -6.16699 30 -10.5
s19.5 -9 28.5 -14s16.5 -9.83301 22.5 -14.5l-12 -41c-6 2.66699 -14 5.33398 -24 8.00098s-18.333 4 -25 4c-12.667 0 -22.5 -1.66699 -29.5 -5s-12.333 -8.16602 -16 -14.499s-6 -14.333 -7 -24s-1.5 -20.834 -1.5 -33.501c0 -25.333 1.33301 -51.166 4 -77.499
s4 -52.833 4 -79.5c0 -25.333 -6.33301 -49 -19 -71s-29.334 -37.667 -50.001 -47c26 -9.33301 44 -25.666 54 -48.999s15 -50 15 -80c0 -23.333 -1.16699 -46.5 -3.5 -69.5s-3.5 -46.167 -3.5 -69.5c0 -26.667 3.33301 -46.667 10 -60s22.667 -20 48 -20
c14 0 29 2.66699 45 8l14 -35v0z" />
    <glyph glyph-name="bar" unicode="|" horiz-adv-x="208" 
d="M63 -67v834h83v-834h-83z" />
    <glyph glyph-name="braceright" unicode="}" horiz-adv-x="354" 
d="M275 322c-7.33301 -0.666992 -12.998 -5.16309 -16.998 -13.4961s-7 -17.833 -9 -28.5s-3.33301 -21.5 -4 -32.5s-1 -19.167 -1 -24.5c0 -22 1.66699 -43.667 5 -65s5 -43.333 5 -66c0 -24 -2.16699 -46.5 -6.5 -67.5s-11.333 -39.167 -21 -54.5s-22.5 -27.333 -38.5 -36
s-35.667 -13 -59 -13c-9.33301 0 -19 1.5 -29 4.5s-19.833 7 -29.5 12s-19 10.833 -28 17.5s-16.833 13.334 -23.5 20.001l14 35c16 -5.33301 31 -8 45 -8c25.333 0 41.333 6.66699 48 20s10 33.333 10 60c0 23.333 -1.16699 46.5 -3.5 69.5s-3.5 46.167 -3.5 69.5
c0 30 5 56.667 15 80s28 39.666 54 48.999c-21.333 9.33301 -38.166 25 -50.499 47s-18.5 45.667 -18.5 71c0 26.667 1.33301 53.167 4 79.5s4 52.166 4 77.499s-2.83301 44.5 -8.5 57.5s-20.834 19.5 -45.501 19.5c-6 0 -14.167 -1.33301 -24.5 -4
s-18.5 -5.33398 -24.5 -8.00098l-12 41c6 4.66699 13.5 9.5 22.5 14.5s18.5 9.66699 28.5 14s20 7.83301 30 10.5s18.667 4 26 4c23.333 0 43.166 -4 59.499 -12s29.5 -19.333 39.5 -34s17.167 -32.334 21.5 -53.001s6.5 -43.667 6.5 -69
c0 -26.667 -1.83301 -52.5 -5.5 -77.5s-5.5 -50.833 -5.5 -77.5c0 -24.667 2.66699 -42.167 8 -52.5s13.666 -15.833 24.999 -16.5c6 -0.666992 12.333 -1.33398 19 -2.00098c5.33301 -0.666992 11.5 -1.16699 18.5 -1.5s14.167 -0.5 21.5 -0.5v-52z" />
    <glyph glyph-name="asciitilde" unicode="~" horiz-adv-x="555" 
d="M518 661c-12 -27.333 -25.6709 -51.667 -41.0039 -73c-13.333 -18 -28.666 -34.5 -45.999 -49.5s-36.666 -22.5 -57.999 -22.5s-40.666 4.33301 -57.999 13s-33.166 18.167 -47.499 28.5l-40 28.5c-12.333 8.66699 -24.5 13 -36.5 13c-23.333 0 -42.5 -7.5 -57.5 -22.5
s-26.833 -32.833 -35.5 -53.5l-49 22c9.33301 28.667 20.666 54 33.999 76c11.333 19.333 25.5 37 42.5 53s36.833 24 59.5 24s42.667 -4.16699 60 -12.5s33 -17.666 47 -27.999l39.5 -28c12.333 -8.33301 24.833 -12.5 37.5 -12.5c22.667 0 42.834 7.16699 60.501 21.5
s31.5 30.166 41.5 47.499l47 -25v0z" />
    <glyph glyph-name="uni00A0" unicode="&#xa0;" horiz-adv-x="341" 
 />
    <glyph glyph-name="exclamdown" unicode="&#xa1;" horiz-adv-x="217" 
d="M154 467l20 -475l-130 1l20 474h90zM49 625c0 21.333 6 39.333 18 54s26.667 22 44 22s32.166 -7.33301 44.499 -22s18.5 -32.667 18.5 -54c0 -20.667 -6.16699 -38.167 -18.5 -52.5s-27.166 -21.5 -44.499 -21.5s-32 7.16699 -44 21.5s-18 31.833 -18 52.5z" />
    <glyph glyph-name="cent" unicode="&#xa2;" horiz-adv-x="461" 
d="M419 216c-6.66699 -9.33301 -15.501 -18.999 -26.501 -28.999s-24.167 -19.5 -39.5 -28.5s-32.666 -16.333 -51.999 -22s-40.666 -8.5 -63.999 -8.5h-8.5c-3 0 -6.16699 0.666992 -9.5 2l-27 -130h-48l29 142c-17.333 6.66699 -34 16.5 -50 29.5s-30 28.5 -42 46.5
s-21.5 38.667 -28.5 62s-10.5 49.333 -10.5 78c0 34.667 5.5 66 16.5 94s25.5 52 43.5 72s38.667 35.333 62 46s47.666 16 72.999 16c4 0 8.16699 -0.333008 12.5 -1l12.5 -2l23 107h48l-23 -116c18.667 -6 36.5 -14.5 53.5 -25.5s33.167 -25.5 48.5 -43.5l-39 -68
c-12 11.333 -24.5 21.833 -37.5 31.5s-27.167 17.167 -42.5 22.5l-57 -280h1c30 0 55.667 6.66699 77 20s41.333 28.666 60 45.999zM238.999 500.001c-32 0 -59 -12.835 -81 -38.502s-33 -61.167 -33 -106.5c0 -31.333 6 -58.166 18 -80.499s27.333 -39.166 46 -50.499
l57 276h-7z" />
    <glyph glyph-name="sterling" unicode="&#xa3;" horiz-adv-x="571" 
d="M77 0l0.998047 299.999h-50v96h50v1c0 55.333 5.33301 103 16 143s25.334 72.833 44.001 98.5s40.667 44.667 66 57s53 18.5 83 18.5c42 0 78.167 -12.333 108.5 -37s52.166 -58 65.499 -100l-78 -58c-10 26.667 -22.167 48.167 -36.5 64.5s-33.166 24.5 -56.499 24.5
c-15.333 0 -29.166 -3.5 -41.499 -10.5s-22.833 -18.667 -31.5 -35s-15.5 -38.166 -20.5 -65.499s-8.16699 -61 -9.5 -101h100v-96h-101v-189h334v-111h-443z" />
    <glyph glyph-name="currency" unicode="&#xa4;" horiz-adv-x="737" 
d="M503 316c0 18.667 -3.16699 36.5 -9.5 53.5s-15.5 32 -27.5 45s-26.833 23.167 -44.5 30.5s-37.834 11 -60.501 11c-23.333 0 -43.833 -3.66699 -61.5 -11s-32.834 -17.333 -45.501 -30s-22.167 -27.5 -28.5 -44.5s-9.5 -35.167 -9.5 -54.5
c0 -18.667 3.16699 -36.167 9.5 -52.5s15.833 -30.666 28.5 -42.999s27.834 -22.166 45.501 -29.499s38.167 -11 61.5 -11c22.667 0 42.834 3.5 60.501 10.5s32.5 16.667 44.5 29s21.167 26.666 27.5 42.999s9.5 34.166 9.5 53.499zM501 121
c-22.667 -12 -45.501 -20.668 -68.501 -26.001s-46.167 -8 -69.5 -8c-42.667 0 -84 8.33301 -124 25l-104 -97l-35 33v-1l-31 26l98 96c-14 21.333 -25 44.333 -33 69s-12 51 -12 79c0 24 3.33301 47.333 10 70s15.667 43.667 27 63l-95 95
c12.667 11.333 22.5 20.5 29.5 27.5s13.5 13.833 19.5 20.5l21 23l99 -97c42.667 19.333 86 29 130 29c50.667 0 100.334 -15.333 149.001 -46l100 98l47 -45l19 -17l-105 -102c8 -18 14.667 -37.5 20 -58.5s8 -41.167 8 -60.5c0 -22.667 -2.66699 -44.667 -8 -66
s-12.333 -41.666 -21 -60.999l52.5 -49.5l50.5 -50.5l-69 -68z" />
    <glyph glyph-name="yen" unicode="&#xa5;" horiz-adv-x="618" 
d="M416 350h80v-84h-124v-80h124v-85h-124v-101h-129v101h-121v85h120v80h-120v84h81l-175 351h129l155 -327l162 327h124z" />
    <glyph glyph-name="brokenbar" unicode="&#xa6;" horiz-adv-x="215" 
d="M63 412v357h89v-357h-89zM63 -65v364h89v-364h-89z" />
    <glyph glyph-name="section" unicode="&#xa7;" horiz-adv-x="569" 
d="M527 397c0 -30 -6.99902 -54.8311 -20.999 -74.498s-29 -35.5 -45 -47.5c29.333 -16 44 -47 44 -93c0 -25.333 -5.5 -47.666 -16.5 -66.999s-25.167 -36.166 -42.5 -50.499s-36.833 -26.333 -58.5 -36s-43.167 -17.334 -64.5 -23.001s-41.666 -9.83398 -60.999 -12.501
s-35 -4 -47 -4c-25.333 0 -50.166 3.33301 -74.499 10s-48.833 14.667 -73.5 24l28 84c23.333 -8 47.166 -15.167 71.499 -21.5s48.833 -9.5 73.5 -9.5c8 0 21.167 1.83301 39.5 5.5s36.666 9.16699 54.999 16.5s34.666 17 48.999 29s21.5 26.333 21.5 43
c0 10 -2.33301 17.667 -7 23s-10.334 9.16602 -17.001 11.499s-13.334 3.66602 -20.001 3.99902s-12.334 0.5 -17.001 0.5c-24.667 0 -48.667 -1.16699 -72 -3.5s-46.666 -3.5 -69.999 -3.5c-14 0 -30.5 1 -49.5 3s-37 7.16699 -54 15.5s-31.333 20.833 -43 37.5
s-17.5 39.334 -17.5 68.001c0 30.667 7.5 56.167 22.5 76.5s30.833 36.166 47.5 47.499c-14.667 7.33301 -26.5 18.333 -35.5 33s-13.5 34 -13.5 58c0 24.667 5.33301 46.5 16 65.5s24.667 35.5 42 49.5s36.5 25.5 57.5 34.5s42.167 16.167 63.5 21.5
s41.333 9.16602 60 11.499s34 3.5 46 3.5c24.667 0 49.167 -2.33301 73.5 -7s48.166 -12 71.499 -22l-24 -76c-42 14 -84 21 -126 21c-8.66699 0 -22.834 -1.16699 -42.501 -3.5s-39.667 -6.66602 -60 -12.999s-38.333 -15.166 -54 -26.499s-23.5 -26 -23.5 -44
c0 -10.667 3.16699 -18.834 9.5 -24.501s13.833 -9.66699 22.5 -12s17.334 -3.66602 26.001 -3.99902s15.334 -0.5 20.001 -0.5c22.667 0 45.334 1.33301 68.001 4s45.667 4 69 4c13.333 0 28.833 -1 46.5 -3s34.334 -7.33301 50.001 -16s29 -21.334 40 -38.001
s16.5 -39.667 16.5 -69zM427.001 385.002c0 6.66699 -1 12.4941 -3 17.4941s-4.66699 9.16699 -8 12.5c-16 5.33301 -32.167 8.83301 -48.5 10.5s-32.833 2.5 -49.5 2.5c-8.66699 0 -23 -1.16699 -43 -3.5s-40.167 -6.66602 -60.5 -12.999s-38.333 -15.166 -54 -26.499
s-23.5 -26.333 -23.5 -45c0 -7.33301 1.33301 -13.166 4 -17.499s5.66699 -8.16602 9 -11.499c18.667 -5.33301 37.167 -10.166 55.5 -14.499s36.833 -6.5 55.5 -6.5c8 0 21.167 1.83301 39.5 5.5s36.833 9.33398 55.5 17.001s35.167 17.5 49.5 29.5s21.5 26.333 21.5 43z
" />
    <glyph glyph-name="dieresis" unicode="&#xa8;" horiz-adv-x="588" 
d="M432 646c0 -15.333 -5.16699 -28.666 -15.5 -39.999s-23.166 -17 -38.499 -17s-28.166 5.66699 -38.499 17s-15.5 24.666 -15.5 39.999s5.16699 28.666 15.5 39.999s23.166 17 38.499 17s28.166 -5.66699 38.499 -17s15.5 -24.666 15.5 -39.999zM233 646
c0 -15.333 -5.33301 -28.666 -16 -39.999s-23.667 -17 -39 -17c-14.667 0 -27.167 5.66699 -37.5 17s-15.5 24.666 -15.5 39.999s5.16699 28.666 15.5 39.999s22.833 17 37.5 17c15.333 0 28.333 -5.66699 39 -17s16 -24.666 16 -39.999z" />
    <glyph glyph-name="copyright" unicode="&#xa9;" horiz-adv-x="837" 
d="M777 368c0 -52 -9.66699 -100.667 -29 -146s-45.666 -85 -78.999 -119s-72 -60.667 -116 -80s-91 -29 -141 -29s-97.167 9.66699 -141.5 29s-83.166 46 -116.499 80s-59.666 73.667 -78.999 119s-29 94 -29 146s9.66699 100.833 29 146.5s45.666 85.5 78.999 119.5
s72.166 60.667 116.499 80s91.5 29 141.5 29s97 -9.66699 141 -29s82.667 -46 116 -80s59.666 -73.833 78.999 -119.5s29 -94.5 29 -146.5zM727 368c0 43.333 -8.16699 84.5 -24.5 123.5s-38.666 73 -66.999 102s-61.666 52 -99.999 69s-79.5 25.5 -123.5 25.5
s-85.167 -8.5 -123.5 -25.5s-71.833 -40 -100.5 -69s-51.167 -63 -67.5 -102s-24.5 -80.167 -24.5 -123.5s8.16699 -84.333 24.5 -123s38.833 -72.5 67.5 -101.5s62.167 -52 100.5 -69s79.5 -25.5 123.5 -25.5s85.167 8.5 123.5 25.5s71.666 40 99.999 69
s50.666 62.833 66.999 101.5s24.5 79.667 24.5 123zM596 216c-6 -8 -14.667 -17.1631 -26 -27.4961s-25 -20 -41 -29s-34.167 -16.5 -54.5 -22.5s-42.833 -9 -67.5 -9c-24 0 -48.167 5.16699 -72.5 15.5s-46.166 25.666 -65.499 45.999s-35.166 45.666 -47.499 75.999
s-18.5 65.166 -18.5 104.499c0 36.667 5.66699 69.667 17 99s26.5 54.5 45.5 75.5s40.833 37 65.5 48s50 16.167 76 15.5c15.333 0 31.166 -1.33301 47.499 -4s32.333 -7.16699 48 -13.5s30.834 -14.666 45.501 -24.999s28 -22.833 40 -37.5l-36 -64
c-17.333 17.333 -37.333 32.666 -60 45.999s-50.334 20 -83.001 20c-18 0 -34.833 -3.83301 -50.5 -11.5s-29.167 -18.5 -40.5 -32.5s-20.333 -31 -27 -51s-10 -42.667 -10 -68c0 -24 3.33301 -46 10 -66s15.834 -37.167 27.501 -51.5s25.167 -25.333 40.5 -33
s31.666 -11.5 48.999 -11.5c33.333 0 61.666 7.16699 84.999 21.5s44 30.166 62 47.499z" />
    <glyph glyph-name="ordfeminine" unicode="&#xaa;" horiz-adv-x="469" 
d="M52 497c0 32.667 4.66602 61.668 13.999 87.001s22 46.666 38 63.999s34.167 30.5 54.5 39.5s41.5 13.5 63.5 13.5c16.667 0 33 -4 49 -12s31.333 -19.333 46 -34l10 38h78v-384h-88v33c-13.333 -12 -27.666 -21.5 -42.999 -28.5s-32 -10.5 -50 -10.5
c-22 0 -43.333 4.66699 -64 14s-39 22.5 -55 39.5s-28.833 37.333 -38.5 61s-14.5 50.167 -14.5 79.5zM138.999 503.001c0 -30 8.49805 -55.832 25.498 -77.499s39.5 -32.5 67.5 -32.5c16.667 0 32.5 4 47.5 12s27.5 19 37.5 33v131c-10 13.333 -22.5 23.666 -37.5 30.999
s-30.833 11 -47.5 11c-14 0 -26.667 -2.83301 -38 -8.5s-21.166 -13.5 -29.499 -23.5s-14.666 -21.5 -18.999 -34.5s-6.5 -26.833 -6.5 -41.5z" />
    <glyph glyph-name="guillemotleft" unicode="&#xab;" horiz-adv-x="673" 
d="M324 206v97l284 196v-120l-182 -126l182 -130v-122zM41 206v97l284 196v-120l-183 -126l183 -130v-122z" />
    <glyph glyph-name="logicalnot" unicode="&#xac;" horiz-adv-x="610" 
d="M549 489l1 -366h-119v254h-386v112h504z" />
    <glyph glyph-name="registered" unicode="&#xae;" horiz-adv-x="837" 
d="M777 368c0 -52 -9.66699 -100.667 -29 -146s-45.666 -85 -78.999 -119s-72 -60.667 -116 -80s-91 -29 -141 -29s-97.167 9.66699 -141.5 29s-83.166 46 -116.499 80s-59.666 73.667 -78.999 119s-29 94 -29 146s9.66699 100.833 29 146.5s45.666 85.5 78.999 119.5
s72.166 60.667 116.499 80s91.5 29 141.5 29s97 -9.66699 141 -29s82.667 -46 116 -80s59.666 -73.833 78.999 -119.5s29 -94.5 29 -146.5zM727 368c0 43.333 -8.16699 84.5 -24.5 123.5s-38.666 73 -66.999 102s-61.666 52 -99.999 69s-79.5 25.5 -123.5 25.5
s-85.167 -8.5 -123.5 -25.5s-71.833 -40 -100.5 -69s-51.167 -63 -67.5 -102s-24.5 -80.167 -24.5 -123.5s8.16699 -84.333 24.5 -123s38.833 -72.5 67.5 -101.5s62.167 -52 100.5 -69s79.5 -25.5 123.5 -25.5s85.167 8.5 123.5 25.5s71.666 40 99.999 69
s50.666 62.833 66.999 101.5s24.5 79.667 24.5 123zM525 152c-6.66699 10.667 -15.333 23.833 -26 39.5l-33.5 49l-35 50.5c-11.667 16.667 -22.167 31 -31.5 43h-48v-182h-87v458h187c44.667 0 79.667 -11.167 105 -33.5s38 -54.833 38 -97.5
c0 -35.333 -10.5 -65.833 -31.5 -91.5s-49.167 -42.5 -84.5 -50.5l7 -1l121 -175v-9h-81zM524.001 475.999c0 16.667 -5.5 30.501 -16.5 41.501s-29.167 16.5 -54.5 16.5h-102v-127h96c24.667 0 43.667 7.16699 57 21.5s20 30.166 20 47.499z" />
    <glyph glyph-name="macron" unicode="&#xaf;" horiz-adv-x="559" 
d="M90 622v79h375v-79h-375z" />
    <glyph glyph-name="degree" unicode="&#xb0;" horiz-adv-x="403" 
d="M340 529c0 -24 -4 -46.5 -12 -67.5s-18.667 -39.333 -32 -55s-29.333 -28 -48 -37s-38.334 -13.5 -59.001 -13.5s-40.167 4.5 -58.5 13.5s-34.333 21.333 -48 37s-24.5 34 -32.5 55s-12 43.5 -12 67.5s4 46.5 12 67.5s18.833 39.5 32.5 55.5s29.667 28.5 48 37.5
s37.833 13.5 58.5 13.5s40.334 -4.5 59.001 -13.5s34.667 -21.5 48 -37.5s24 -34.5 32 -55.5s12 -43.5 12 -67.5zM266 530c0 13.333 -2 26 -6 38s-9.5 22.5 -16.5 31.5s-15.167 16 -24.5 21s-19.333 7.5 -30 7.5s-20.667 -2.5 -30 -7.5s-17.5 -12 -24.5 -21
s-12.5 -19.5 -16.5 -31.5s-6 -24.667 -6 -38c0 -27.333 7.5 -50.5 22.5 -69.5s33.167 -28.5 54.5 -28.5s39.5 9.5 54.5 28.5s22.5 42.167 22.5 69.5z" />
    <glyph glyph-name="plusminus" unicode="&#xb1;" horiz-adv-x="406" 
d="M244 335v-142h-81v142h-122v93h122v142h81v-142h122v-93h-122zM44 67v95h321v-95h-321z" />
    <glyph glyph-name="twosuperior" unicode="&#xb2;" horiz-adv-x="529" 
d="M292 379c-23.333 -14 -44.001 -27.666 -62.001 -40.999s-29.667 -27 -35 -41h244v-88h-347l-8 70c6.66699 25.333 16 47 28 65s25.667 33.833 41 47.5s32.166 26 50.499 37l57.5 33.5c28.667 17.333 51.5 32 68.5 44s25.5 27 25.5 45
c0 20.667 -7.16699 37.167 -21.5 49.5s-36.5 18.5 -66.5 18.5c-23.333 0 -49.5 -5 -78.5 -15s-56.5 -24 -82.5 -42l-26 80c59.333 44.667 121.666 67 186.999 67c18 0 37.333 -2.16699 58 -6.5s39.834 -12.333 57.501 -24s32.334 -27.334 44.001 -47.001
s17.5 -44.5 17.5 -74.5c0 -22.667 -4.5 -42.5 -13.5 -59.5s-20.667 -32.5 -35 -46.5s-30.666 -26.833 -48.999 -38.5z" />
    <glyph glyph-name="threesuperior" unicode="&#xb3;" horiz-adv-x="560" 
d="M445 356c0 -30 -6.17188 -54.833 -18.5049 -74.5s-27.666 -35 -45.999 -46s-38.166 -18.667 -59.499 -23s-40.666 -6.5 -57.999 -6.5c-31.333 0 -60.833 5 -88.5 15s-55.834 26.333 -84.501 49l25 78c24 -16.667 48.833 -29.834 74.5 -39.501s50.167 -14.5 73.5 -14.5
c18 0 32.667 2 44 6s20.333 9 27 15s11.167 12.667 13.5 20s3.5 14.333 3.5 21c0 15.333 -4.5 27.666 -13.5 36.999s-19.5 16 -31.5 20c-2.66699 0.666992 -10.167 1.16699 -22.5 1.5s-25.5 0.5 -39.5 0.5s-27.167 -0.333008 -39.5 -1s-20.166 -1.33398 -23.499 -2.00098
c-3.33301 16 -4.83301 30.667 -4.5 44s1.83301 28 4.5 44c0.666992 -1.33301 5.66699 -2.16602 15 -2.49902s19.666 -0.5 30.999 -0.5h33c10.667 0 18.334 0.333008 23.001 1c7.33301 0.666992 15 2.33398 23 5.00098s15.333 6.33398 22 11.001s12.167 10.5 16.5 17.5
s6.5 15.5 6.5 25.5c0 7.33301 -1.16699 14.666 -3.5 21.999s-6.83301 14 -13.5 20s-15.667 11 -27 15s-26 6 -44 6c-23.333 0 -47.666 -4.83301 -72.999 -14.5s-50.333 -23.167 -75 -40.5l-25 77c28.667 22.667 56.834 39.334 84.501 50.001s57.167 16 88.5 16
c17.333 0 36.5 -1.83301 57.5 -5.5s40.5 -10.667 58.5 -21s33 -25 45 -44s18 -43.5 18 -73.5c0 -22 -4.16699 -42.5 -12.5 -61.5s-20.166 -33.167 -35.499 -42.5c15.333 -8 27.666 -21.5 36.999 -40.5s14 -40.167 14 -63.5z" />
    <glyph glyph-name="acute" unicode="&#xb4;" horiz-adv-x="568" 
d="M414 752l-189 -174h-81l138 182h127z" />
    <glyph glyph-name="mu" unicode="&#xb5;" horiz-adv-x="502" 
d="M44 -190l-0.000976562 675.002h108v-301c0 -10 1 -19.833 3 -29.5s5.83301 -18.334 11.5 -26.001s13.167 -13.834 22.5 -18.501s21.333 -7 36 -7c19.333 0 39.333 6.83301 60 20.5s39.334 28.167 56.001 43.5v318h111v-360c0 -20 1 -37.667 3 -53s4.66699 -28.333 8 -39
c3.33301 -12 7.33301 -23 12 -33h-122c-1.33301 3.33301 -3.33301 9.83301 -6 19.5s-4.66699 20.167 -6 31.5v1c-14.667 -15.333 -32.167 -29.166 -52.5 -41.499s-43.833 -18.5 -70.5 -18.5c-12 0 -23.333 2.16699 -34 6.5s-20.667 12.166 -30 23.499l-2 -212h-108z" />
    <glyph glyph-name="paragraph" unicode="&#xb6;" horiz-adv-x="725" 
d="M582 0l0.000976562 586h-71v-586h-83v210h-118c-34.667 0 -67 5.5 -97 16.5s-56.167 26.833 -78.5 47.5s-39.833 46 -52.5 76s-19 64 -19 102c0 39.333 6.5 74.5 19.5 105.5s31 57.167 54 78.5s49.667 37.5 80 48.5s63.166 16.5 98.499 16.5h341v-701h-74zM428.001 584
l-129.002 -0.00390625c-19.333 0.666992 -36.166 -2.66602 -50.499 -9.99902s-26.333 -17 -36 -29s-17 -26 -22 -42s-7.5 -32.333 -7.5 -49c0 -17.333 3.5 -34.166 10.5 -50.499s16.667 -30.666 29 -42.999s26.833 -22.166 43.5 -29.499s34.334 -11 53.001 -11l109 2v262z
" />
    <glyph glyph-name="periodcentered" unicode="&#xb7;" horiz-adv-x="260" 
d="M200 336c0 -23.333 -7 -43.166 -21 -59.499s-31 -24.5 -51 -24.5c-20.667 0 -38 8.16699 -52 24.5s-21 36.166 -21 59.499s7 43.166 21 59.499s31.333 24.5 52 24.5c20 0 37 -8.16699 51 -24.5s21 -36.166 21 -59.499z" />
    <glyph glyph-name="cedilla" unicode="&#xb8;" horiz-adv-x="673" 
d="M465 -179c0 -20 -4.83398 -36.833 -14.501 -50.5s-21.334 -24.5 -35.001 -32.5s-28 -13.667 -43 -17s-27.833 -5 -38.5 -5c-20 0 -39.5 3.16699 -58.5 9.5s-39.167 16.5 -60.5 30.5l22 63c38 -23.333 70.333 -35 97 -35c22 0 37.333 4 46 12s13 16.333 13 25
c0 4 -0.666992 8.83301 -2 14.5s-4 11 -8 16s-9.33301 9.16699 -16 12.5s-15.334 5 -26.001 5c-9.33301 0 -18.166 -1.66699 -26.499 -5s-15.833 -7 -22.5 -11c-7.33301 -4.66699 -14.333 -9.66699 -21 -15l-50 28l55 147h73l-46 -101c6.66699 2 13.834 5.16699 21.501 9.5
s18.834 6.5 33.501 6.5c11.333 0 23.333 -1.66699 36 -5s24.167 -9.16602 34.5 -17.499s19 -19.333 26 -33s10.5 -30.834 10.5 -51.501z" />
    <glyph glyph-name="onesuperior" unicode="&#xb9;" horiz-adv-x="347" 
d="M211 701v-491h-91v491h91z" />
    <glyph glyph-name="ordmasculine" unicode="&#xba;" horiz-adv-x="467" 
d="M432 506c0 -33.333 -5.66797 -62.333 -17.001 -87s-26.166 -45.334 -44.499 -62.001s-39 -29.167 -62 -37.5s-46.167 -12.5 -69.5 -12.5s-46.5 4.16699 -69.5 12.5s-43.5 20.833 -61.5 37.5s-32.667 37.334 -44 62.001s-17 53.667 -17 87c0 34 5.5 63.667 16.5 89
s25.5 46.333 43.5 63s38.5 29.167 61.5 37.5s46.5 12.5 70.5 12.5s47.5 -4.5 70.5 -13.5s43.5 -22 61.5 -39s32.667 -38 44 -63s17 -53.833 17 -86.5zM338.999 507c0 30 -9.16699 55.5 -27.5 76.5s-42.5 31.5 -72.5 31.5c-30.667 0 -55 -10.5 -73 -31.5s-27 -46.5 -27 -76.5
s9 -54.833 27 -74.5s42.333 -29.5 73 -29.5c30 0 54.167 9.83301 72.5 29.5s27.5 44.5 27.5 74.5z" />
    <glyph glyph-name="guillemotright" unicode="&#xbb;" horiz-adv-x="673" 
d="M334 1v121l183 126l-183 130v121l284 -204v-97zM51 1v121l182 126l-182 130v121l284 -204v-97z" />
    <glyph glyph-name="onequarter" unicode="&#xbc;" horiz-adv-x="939" 
d="M211 701v-491h-91v491h91zM300 0h-93l339 701h93zM810 118v-118h-88v118h-229v61l259 321h58v-294h58v-88h-58zM604 206h118v144z" />
    <glyph glyph-name="onehalf" unicode="&#xbd;" horiz-adv-x="1057" 
d="M211 701v-491h-91v491h91zM308 0h-93l339 701h93zM816 170c-23.333 -14 -44.001 -27.666 -62.001 -40.999s-29.667 -27 -35 -41h244v-88h-347l-8 70c6.66699 25.333 16 47 28 65s25.667 33.833 41 47.5s32.166 26 50.499 37l57.5 33.5c28.667 17.333 51.5 32 68.5 44
s25.5 27 25.5 45c0 20.667 -7.16699 37.167 -21.5 49.5s-36.5 18.5 -66.5 18.5c-23.333 0 -49.5 -5 -78.5 -15s-56.5 -24 -82.5 -42l-26 80c59.333 44.667 121.666 67 186.999 67c18 0 37.333 -2.16699 58 -6.5s39.834 -12.333 57.501 -24s32.334 -27.334 44.001 -47.001
s17.5 -44.5 17.5 -74.5c0 -22.667 -4.5 -42.5 -13.5 -59.5s-20.667 -32.5 -35 -46.5s-30.666 -26.833 -48.999 -38.5z" />
    <glyph glyph-name="threequarters" unicode="&#xbe;" horiz-adv-x="1057" 
d="M415 356c0 -30 -6.17188 -54.833 -18.5049 -74.5s-27.666 -35 -45.999 -46s-38.166 -18.667 -59.499 -23s-40.666 -6.5 -57.999 -6.5c-31.333 0 -60.833 5 -88.5 15s-55.834 26.333 -84.501 49l25 78c24 -16.667 48.833 -29.834 74.5 -39.501s50.167 -14.5 73.5 -14.5
c18 0 32.667 2 44 6s20.333 9 27 15s11.167 12.667 13.5 20s3.5 14.333 3.5 21c0 15.333 -4.5 27.666 -13.5 36.999s-19.5 16 -31.5 20c-2.66699 0.666992 -10.167 1.16699 -22.5 1.5s-25.5 0.5 -39.5 0.5s-27.167 -0.333008 -39.5 -1s-20.166 -1.33398 -23.499 -2.00098
c-3.33301 16 -4.83301 30.667 -4.5 44s1.83301 28 4.5 44c0.666992 -1.33301 5.66699 -2.16602 15 -2.49902s19.666 -0.5 30.999 -0.5h33c10.667 0 18.334 0.333008 23.001 1c7.33301 0.666992 15 2.33398 23 5.00098s15.333 6.33398 22 11.001s12.167 10.5 16.5 17.5
s6.5 15.5 6.5 25.5c0 7.33301 -1.16699 14.666 -3.5 21.999s-6.83301 14 -13.5 20s-15.667 11 -27 15s-26 6 -44 6c-23.333 0 -47.666 -4.83301 -72.999 -14.5s-50.333 -23.167 -75 -40.5l-25 77c28.667 22.667 56.834 39.334 84.501 50.001s57.167 16 88.5 16
c17.333 0 36.5 -1.83301 57.5 -5.5s40.5 -10.667 58.5 -21s33 -25 45 -44s18 -43.5 18 -73.5c0 -22 -4.16699 -42.5 -12.5 -61.5s-20.166 -33.167 -35.499 -42.5c15.333 -8 27.666 -21.5 36.999 -40.5s14 -40.167 14 -63.5zM930.995 118v-118h-88v118h-229v61l259 321h58
v-294h58v-88h-58zM429.995 0h-93l339 701h93zM724.995 206h118v144z" />
    <glyph glyph-name="questiondown" unicode="&#xbf;" horiz-adv-x="547" 
d="M523 79c-11.333 -10 -24.0029 -20.166 -38.0029 -30.499s-30 -19.666 -48 -27.999s-38.5 -15.166 -61.5 -20.499s-48.833 -8 -77.5 -8c-58 0 -104.833 7.66699 -140.5 23s-63.5 33.833 -83.5 55.5s-33.5 44.334 -40.5 68.001s-10.5 44.167 -10.5 61.5
c0 52 16 96.167 48 132.5s77 59.166 135 68.499c26.667 4.66699 46 12.167 58 22.5s20 21.166 24 32.499c2 7.33301 3.16699 14 3.5 20s-0.166992 11.667 -1.5 17c-1.33301 6 -2.66602 11.667 -3.99902 17h109c6 -19.333 8.66699 -41.833 8 -67.5s-8 -51.167 -22 -76.5
c-15.333 -26 -38.166 -44.667 -68.499 -56s-64.166 -20.333 -101.499 -27c-16 -2.66699 -29.167 -7 -39.5 -13s-18.5 -13 -24.5 -21s-10 -16.333 -12 -25s-3 -17.334 -3 -26.001s2.5 -18.667 7.5 -30s13.833 -22 26.5 -32s29.5 -18.5 50.5 -25.5s47.833 -10.5 80.5 -10.5
c26 0 48 2 66 6s34 9.16699 48 15.5s26.5 13.666 37.5 21.999l34.5 26.5zM273.997 638.001c0 21.333 6.16699 39.333 18.5 54s27.166 22 44.499 22s32 -7.33301 44 -22s18 -32.667 18 -54c0 -20 -6 -37.333 -18 -52s-26.667 -22 -44 -22s-32.166 7.33301 -44.499 22
s-18.5 32 -18.5 52z" />
    <glyph glyph-name="Agrave" unicode="&#xc0;" horiz-adv-x="689" 
d="M544 0l-58 157l-278 -1l-59 -156h-123l276 703h105l264 -703h-127zM349 532h-1l-99 -262h197zM156 942h124l144 -173h-87l-186 165z" />
    <glyph glyph-name="Aacute" unicode="&#xc1;" horiz-adv-x="690" 
d="M544 0l-58 157l-278 -1l-59 -156h-123l276 703h105l264 -703h-127zM349 532h-1l-99 -262h197zM564 920l-189 -174h-81l138 182h127z" />
    <glyph glyph-name="Acircumflex" unicode="&#xc2;" horiz-adv-x="690" 
d="M544 0l-58 157l-278 -1l-59 -156h-123l276 703h105l264 -703h-127zM349 532h-1l-99 -262h197zM429 768l-75 86l-76 -86h-93l133 150h75l129 -150h-93z" />
    <glyph glyph-name="Atilde" unicode="&#xc3;" horiz-adv-x="689" 
d="M544 0l-58 157l-278 -1l-59 -156h-123l276 703h105l264 -703h-127zM349 532h-1l-99 -262h197zM531 877c-8.66699 -21.333 -18.999 -40.3291 -30.999 -56.9961c-10 -14.667 -21.833 -27.834 -35.5 -39.501s-28.834 -17.5 -45.501 -17.5s-31.667 3.33301 -45 10
s-25.5 14 -36.5 22l-31 22c-9.66699 6.66699 -19.167 10 -28.5 10c-18.667 0 -33.667 -5.66699 -45 -17s-20 -25 -26 -41l-39 16c6.66699 22.667 15.334 42.667 26.001 60c9.33301 15.333 20.5 29.166 33.5 41.499s28.5 18.5 46.5 18.5c17.333 0 32.666 -3.33301 45.999 -10
s25.5 -13.834 36.5 -21.501l30.5 -21.5c9.33301 -6.66699 19 -10 29 -10c17.333 0 33 5.66699 47 17s24.667 23.666 32 36.999z" />
    <glyph glyph-name="Adieresis" unicode="&#xc4;" horiz-adv-x="696" 
d="M544 0l-58 157l-278 -1l-59 -156h-123l276 703h105l264 -703h-127zM349 532h-1l-99 -262h197zM502 809c0 -15.333 -5.16699 -28.666 -15.5 -39.999s-23.166 -17 -38.499 -17s-28.166 5.66699 -38.499 17s-15.5 24.666 -15.5 39.999s5.16699 28.666 15.5 39.999
s23.166 17 38.499 17s28.166 -5.66699 38.499 -17s15.5 -24.666 15.5 -39.999zM303 809c0 -15.333 -5.33301 -28.666 -16 -39.999s-23.667 -17 -39 -17c-14.667 0 -27.167 5.66699 -37.5 17s-15.5 24.666 -15.5 39.999s5.16699 28.666 15.5 39.999s22.833 17 37.5 17
c15.333 0 28.333 -5.66699 39 -17s16 -24.666 16 -39.999z" />
    <glyph glyph-name="Aring" unicode="&#xc5;" horiz-adv-x="696" 
d="M544 0l-58 157l-278 -1l-59 -156h-123l276 703h105l264 -703h-127zM349 532h-1l-99 -262h197zM481 869c0 -16.667 -3.33301 -32.5 -10 -47.5s-15.834 -28 -27.501 -39s-25.334 -19.833 -41.001 -26.5s-32.167 -10 -49.5 -10c-18 0 -34.667 3.33301 -50 10
s-28.666 15.5 -39.999 26.5s-20.333 24 -27 39s-10 30.833 -10 47.5s3.33301 32.5 10 47.5s15.667 28.167 27 39.5s24.666 20.166 39.999 26.499s32 9.5 50 9.5c17.333 0 33.833 -3.16699 49.5 -9.5s29.334 -15.166 41.001 -26.499s20.834 -24.5 27.501 -39.5
s10 -30.833 10 -47.5zM418 869c0 19.333 -6.33301 36 -19 50s-28 21 -46 21s-33.333 -7 -46 -21s-19 -30.667 -19 -50s6.33301 -35.833 19 -49.5s28 -20.5 46 -20.5s33.333 6.83301 46 20.5s19 30.167 19 49.5z" />
    <glyph glyph-name="AE" unicode="&#xc6;" horiz-adv-x="1102" 
d="M554 532h-1l-196 -262h197v262zM551 0l1 157l-279 -1l-117 -156h-125v20l520 681h486v-115h-366v-183h314v-111h-314v-176h376v-116h-496z" />
    <glyph glyph-name="Ccedilla" unicode="&#xc7;" horiz-adv-x="690" 
d="M509 -175c0 -20 -4.83203 -36.8311 -14.499 -50.498s-21.334 -24.5 -35.001 -32.5s-28 -13.667 -43 -17s-27.833 -5 -38.5 -5c-20 0 -39.5 3.16699 -58.5 9.5s-39.167 16.5 -60.5 30.5l22 63c38 -23.333 70.333 -35 97 -35c22 0 37.333 4 46 12s13 16.333 13 25
c0 4 -0.666992 8.83301 -2 14.5s-4 11 -8 16s-9.33301 9.16699 -16 12.5s-15.334 5 -26.001 5c-9.33301 0 -18.166 -1.66699 -26.499 -5s-15.833 -7 -22.5 -11c-7.33301 -4.66699 -14.333 -9.66699 -21 -15l-50 28l44 118c-33.333 6.66699 -66.5 19.5 -99.5 38.5
s-62.5 43.667 -88.5 74s-47.167 66.666 -63.5 108.999s-24.5 90.166 -24.5 143.499c0 56.667 9.66699 107.834 29 153.501s44.666 84.5 75.999 116.5s66.5 56.5 105.5 73.5s78.167 25.5 117.5 25.5c31.333 0 60.5 -3.33301 87.5 -10s52.167 -15.667 75.5 -27
s44.833 -24.333 64.5 -39s37.5 -30.334 53.5 -47.001l-56 -105c-14 13.333 -28.667 26.166 -44 38.499s-32 23.333 -50 33s-37.333 17.5 -58 23.5s-43.334 9 -68.001 9c-26 0 -51.333 -5.66699 -76 -17s-46.5 -27.666 -65.5 -48.999s-34.333 -47.333 -46 -78
s-17.5 -65.334 -17.5 -104.001c0 -37.333 5.66699 -71.333 17 -102s26.5 -56.667 45.5 -78s40.833 -37.833 65.5 -49.5s50 -17.5 76 -17.5c24.667 0 47.5 3 68.5 9s40.833 14 59.5 24s36 21.333 52 34s31 25.667 45 39l63 -91c-9.33301 -13.333 -22.166 -27.5 -38.499 -42.5
s-36.333 -29.333 -60 -43s-50.334 -25.167 -80.001 -34.5s-62.167 -14.666 -97.5 -15.999l-30 -66c6.66699 2 13.834 5.16699 21.501 9.5s18.834 6.5 33.501 6.5c11.333 0 23.333 -1.66699 36 -5s24.167 -9.16602 34.5 -17.499s19 -19.333 26 -33s10.5 -30.834 10.5 -51.501
z" />
    <glyph glyph-name="Egrave" unicode="&#xc8;" horiz-adv-x="603" 
d="M58 0v701h485v-115h-356v-183h304v-111h-304v-176h366v-116h-495zM136 938h124l144 -173h-87l-186 165z" />
    <glyph glyph-name="Eacute" unicode="&#xc9;" horiz-adv-x="588" 
d="M49 0v701h485v-115h-356v-183h304v-111h-304v-176h366v-116h-495zM475 915l-189 -174h-81l138 182h127z" />
    <glyph glyph-name="Ecircumflex" unicode="&#xca;" horiz-adv-x="596" 
d="M52 0v701h485v-115h-356v-183h304v-111h-304v-176h366v-116h-495zM374 764l-75 86l-76 -86h-93l133 150h75l129 -150h-93z" />
    <glyph glyph-name="Edieresis" unicode="&#xcb;" horiz-adv-x="599" 
d="M54 0v701h485v-115h-356v-183h304v-111h-304v-176h366v-116h-495zM452 807c0 -15.333 -5.16699 -28.666 -15.5 -39.999s-23.166 -17 -38.499 -17s-28.166 5.66699 -38.499 17s-15.5 24.666 -15.5 39.999s5.16699 28.666 15.5 39.999s23.166 17 38.499 17
s28.166 -5.66699 38.499 -17s15.5 -24.666 15.5 -39.999zM253 807c0 -15.333 -5.33301 -28.666 -16 -39.999s-23.667 -17 -39 -17c-14.667 0 -27.167 5.66699 -37.5 17s-15.5 24.666 -15.5 39.999s5.16699 28.666 15.5 39.999s22.833 17 37.5 17
c15.333 0 28.333 -5.66699 39 -17s16 -24.666 16 -39.999z" />
    <glyph glyph-name="Igrave" unicode="&#xcc;" horiz-adv-x="279" 
d="M82 0v701h130v-701h-130zM-44 941h124l144 -173h-87l-186 165z" />
    <glyph glyph-name="Iacute" unicode="&#xcd;" horiz-adv-x="256" 
d="M55 0v701h130v-701h-130zM319 906l-189 -174h-81l138 182h127z" />
    <glyph glyph-name="Icircumflex" unicode="&#xce;" horiz-adv-x="290" 
d="M82 0v701h130v-701h-130zM224 758l-75 86l-76 -86h-93l133 150h75l129 -150h-93z" />
    <glyph glyph-name="Idieresis" unicode="&#xcf;" horiz-adv-x="292" 
d="M82 0v701h130v-701h-130zM299 807c0 -15.333 -5.16699 -28.666 -15.5 -39.999s-23.166 -17 -38.499 -17s-28.166 5.66699 -38.499 17s-15.5 24.666 -15.5 39.999s5.16699 28.666 15.5 39.999s23.166 17 38.499 17s28.166 -5.66699 38.499 -17s15.5 -24.666 15.5 -39.999z
M100 807c0 -15.333 -5.33301 -28.666 -16 -39.999s-23.667 -17 -39 -17c-14.667 0 -27.167 5.66699 -37.5 17s-15.5 24.666 -15.5 39.999s5.16699 28.666 15.5 39.999s22.833 17 37.5 17c15.333 0 28.333 -5.66699 39 -17s16 -24.666 16 -39.999z" />
    <glyph glyph-name="Eth" unicode="&#xd0;" horiz-adv-x="680" 
d="M644 350c0 -54.667 -8.00098 -103.667 -24.001 -147s-38.5 -80 -67.5 -110s-63.333 -53 -103 -69s-83.5 -24 -131.5 -24h-227v287h-62v93h62v321h255c46 0 87.5 -8.5 124.5 -25.5s68.333 -41 94 -72s45.334 -68 59.001 -111s20.5 -90.5 20.5 -142.5zM526.999 347
c0 32.667 -4.16797 63.667 -12.501 93s-21.166 55 -38.499 77s-39.833 39.5 -67.5 52.5s-60.834 19.5 -99.501 19.5h-89l-1 -209h94v-93h-94v-174h86c32.667 0 62.667 6 90 18s50.833 28.667 70.5 50s34.834 46.333 45.501 75s16 59 16 91z" />
    <glyph glyph-name="Ntilde" unicode="&#xd1;" horiz-adv-x="700" 
d="M585 0l-400 442v-442h-127v701h75l383 -421v421h126v-701h-57zM513 859c-8.66699 -21.333 -18.999 -40.3291 -30.999 -56.9961c-10 -14.667 -21.833 -27.834 -35.5 -39.501s-28.834 -17.5 -45.501 -17.5s-31.667 3.33301 -45 10s-25.5 14 -36.5 22l-31 22
c-9.66699 6.66699 -19.167 10 -28.5 10c-18.667 0 -33.667 -5.66699 -45 -17s-20 -25 -26 -41l-39 16c6.66699 22.667 15.334 42.667 26.001 60c9.33301 15.333 20.5 29.166 33.5 41.499s28.5 18.5 46.5 18.5c17.333 0 32.666 -3.33301 45.999 -10
s25.5 -13.834 36.5 -21.501l30.5 -21.5c9.33301 -6.66699 19 -10 29 -10c17.333 0 33 5.66699 47 17s24.667 23.666 32 36.999z" />
    <glyph glyph-name="Ograve" unicode="&#xd2;" horiz-adv-x="789" 
d="M738 347c0 -61.333 -10.333 -114.835 -31 -160.502s-47.667 -83.667 -81 -114s-71 -53.166 -113 -68.499s-84 -23 -126 -23c-42.667 0 -85 7.83301 -127 23.5s-79.667 39 -113 70s-60.333 69.333 -81 115s-31 98.834 -31 159.501c0 63.333 10.333 118.333 31 165
s47.667 85.334 81 116.001s71 53.5 113 68.5s84.333 22.5 127 22.5c42 0 84 -8.16699 126 -24.5s79.667 -40.333 113 -72s60.333 -70.834 81 -117.501s31 -100 31 -160zM616 346.998c0 34.667 -5.5 67.3301 -16.5 97.9971s-26.5 57.334 -46.5 80.001
s-44.167 40.5 -72.5 53.5s-59.5 19.5 -93.5 19.5c-34.667 0 -66.167 -6.5 -94.5 -19.5s-52.5 -30.667 -72.5 -53s-35.5 -48.833 -46.5 -79.5s-16.5 -63.667 -16.5 -99c0 -34 5.5 -65.667 16.5 -95s26.5 -55 46.5 -77s44.167 -39.333 72.5 -52s59.833 -19 94.5 -19
c34 0 65.167 6.16699 93.5 18.5s52.5 29.333 72.5 51s35.5 47.334 46.5 77.001s16.5 61.834 16.5 96.501zM202 940.994h124l144 -173h-87l-186 165z" />
    <glyph glyph-name="Oacute" unicode="&#xd3;" horiz-adv-x="778" 
d="M738 347c0 -61.333 -10.333 -114.835 -31 -160.502s-47.667 -83.667 -81 -114s-71 -53.166 -113 -68.499s-84 -23 -126 -23c-42.667 0 -85 7.83301 -127 23.5s-79.667 39 -113 70s-60.333 69.333 -81 115s-31 98.834 -31 159.501c0 63.333 10.333 118.333 31 165
s47.667 85.334 81 116.001s71 53.5 113 68.5s84.333 22.5 127 22.5c42 0 84 -8.16699 126 -24.5s79.667 -40.333 113 -72s60.333 -70.834 81 -117.501s31 -100 31 -160zM616 346.998c0 34.667 -5.5 67.3301 -16.5 97.9971s-26.5 57.334 -46.5 80.001
s-44.167 40.5 -72.5 53.5s-59.5 19.5 -93.5 19.5c-34.667 0 -66.167 -6.5 -94.5 -19.5s-52.5 -30.667 -72.5 -53s-35.5 -48.833 -46.5 -79.5s-16.5 -63.667 -16.5 -99c0 -34 5.5 -65.667 16.5 -95s26.5 -55 46.5 -77s44.167 -39.333 72.5 -52s59.833 -19 94.5 -19
c34 0 65.167 6.16699 93.5 18.5s52.5 29.333 72.5 51s35.5 47.334 46.5 77.001s16.5 61.834 16.5 96.501zM581 934.994l-189 -174h-81l138 182h127z" />
    <glyph glyph-name="Ocircumflex" unicode="&#xd4;" horiz-adv-x="780" 
d="M738 347c0 -61.333 -10.333 -114.835 -31 -160.502s-47.667 -83.667 -81 -114s-71 -53.166 -113 -68.499s-84 -23 -126 -23c-42.667 0 -85 7.83301 -127 23.5s-79.667 39 -113 70s-60.333 69.333 -81 115s-31 98.834 -31 159.501c0 63.333 10.333 118.333 31 165
s47.667 85.334 81 116.001s71 53.5 113 68.5s84.333 22.5 127 22.5c42 0 84 -8.16699 126 -24.5s79.667 -40.333 113 -72s60.333 -70.834 81 -117.501s31 -100 31 -160zM616 346.998c0 34.667 -5.5 67.3301 -16.5 97.9971s-26.5 57.334 -46.5 80.001
s-44.167 40.5 -72.5 53.5s-59.5 19.5 -93.5 19.5c-34.667 0 -66.167 -6.5 -94.5 -19.5s-52.5 -30.667 -72.5 -53s-35.5 -48.833 -46.5 -79.5s-16.5 -63.667 -16.5 -99c0 -34 5.5 -65.667 16.5 -95s26.5 -55 46.5 -77s44.167 -39.333 72.5 -52s59.833 -19 94.5 -19
c34 0 65.167 6.16699 93.5 18.5s52.5 29.333 72.5 51s35.5 47.334 46.5 77.001s16.5 61.834 16.5 96.501zM468 762.994l-75 86l-76 -86h-93l133 150h75l129 -150h-93z" />
    <glyph glyph-name="Otilde" unicode="&#xd5;" horiz-adv-x="783" 
d="M738 347c0 -61.333 -10.333 -114.835 -31 -160.502s-47.667 -83.667 -81 -114s-71 -53.166 -113 -68.499s-84 -23 -126 -23c-42.667 0 -85 7.83301 -127 23.5s-79.667 39 -113 70s-60.333 69.333 -81 115s-31 98.834 -31 159.501c0 63.333 10.333 118.333 31 165
s47.667 85.334 81 116.001s71 53.5 113 68.5s84.333 22.5 127 22.5c42 0 84 -8.16699 126 -24.5s79.667 -40.333 113 -72s60.333 -70.834 81 -117.501s31 -100 31 -160zM616 346.998c0 34.667 -5.5 67.3301 -16.5 97.9971s-26.5 57.334 -46.5 80.001
s-44.167 40.5 -72.5 53.5s-59.5 19.5 -93.5 19.5c-34.667 0 -66.167 -6.5 -94.5 -19.5s-52.5 -30.667 -72.5 -53s-35.5 -48.833 -46.5 -79.5s-16.5 -63.667 -16.5 -99c0 -34 5.5 -65.667 16.5 -95s26.5 -55 46.5 -77s44.167 -39.333 72.5 -52s59.833 -19 94.5 -19
c34 0 65.167 6.16699 93.5 18.5s52.5 29.333 72.5 51s35.5 47.334 46.5 77.001s16.5 61.834 16.5 96.501zM555 880.994c-8.66699 -21.333 -18.999 -40.3291 -30.999 -56.9961c-10 -14.667 -21.833 -27.834 -35.5 -39.501s-28.834 -17.5 -45.501 -17.5
s-31.667 3.33301 -45 10s-25.5 14 -36.5 22l-31 22c-9.66699 6.66699 -19.167 10 -28.5 10c-18.667 0 -33.667 -5.66699 -45 -17s-20 -25 -26 -41l-39 16c6.66699 22.667 15.334 42.667 26.001 60c9.33301 15.333 20.5 29.166 33.5 41.499s28.5 18.5 46.5 18.5
c17.333 0 32.666 -3.33301 45.999 -10s25.5 -13.834 36.5 -21.501l30.5 -21.5c9.33301 -6.66699 19 -10 29 -10c17.333 0 33 5.66699 47 17s24.667 23.666 32 36.999z" />
    <glyph glyph-name="Odieresis" unicode="&#xd6;" horiz-adv-x="776" 
d="M738 347c0 -61.333 -10.333 -114.835 -31 -160.502s-47.667 -83.667 -81 -114s-71 -53.166 -113 -68.499s-84 -23 -126 -23c-42.667 0 -85 7.83301 -127 23.5s-79.667 39 -113 70s-60.333 69.333 -81 115s-31 98.834 -31 159.501c0 63.333 10.333 118.333 31 165
s47.667 85.334 81 116.001s71 53.5 113 68.5s84.333 22.5 127 22.5c42 0 84 -8.16699 126 -24.5s79.667 -40.333 113 -72s60.333 -70.834 81 -117.501s31 -100 31 -160zM616 346.998c0 34.667 -5.5 67.3301 -16.5 97.9971s-26.5 57.334 -46.5 80.001
s-44.167 40.5 -72.5 53.5s-59.5 19.5 -93.5 19.5c-34.667 0 -66.167 -6.5 -94.5 -19.5s-52.5 -30.667 -72.5 -53s-35.5 -48.833 -46.5 -79.5s-16.5 -63.667 -16.5 -99c0 -34 5.5 -65.667 16.5 -95s26.5 -55 46.5 -77s44.167 -39.333 72.5 -52s59.833 -19 94.5 -19
c34 0 65.167 6.16699 93.5 18.5s52.5 29.333 72.5 51s35.5 47.334 46.5 77.001s16.5 61.834 16.5 96.501zM543 812.994c0 -15.333 -5.16699 -28.666 -15.5 -39.999s-23.166 -17 -38.499 -17s-28.166 5.66699 -38.499 17s-15.5 24.666 -15.5 39.999
s5.16699 28.666 15.5 39.999s23.166 17 38.499 17s28.166 -5.66699 38.499 -17s15.5 -24.666 15.5 -39.999zM344 812.994c0 -15.333 -5.33301 -28.666 -16 -39.999s-23.667 -17 -39 -17c-14.667 0 -27.167 5.66699 -37.5 17s-15.5 24.666 -15.5 39.999
s5.16699 28.666 15.5 39.999s22.833 17 37.5 17c15.333 0 28.333 -5.66699 39 -17s16 -24.666 16 -39.999z" />
    <glyph glyph-name="multiply" unicode="&#xd7;" horiz-adv-x="447" 
d="M226 266l-97 -118l-58 70l97 117l-101 122l55 66l101 -122l97 117l58 -69l-97 -117l101 -122l-55 -66z" />
    <glyph glyph-name="Oslash" unicode="&#xd8;" horiz-adv-x="741" 
d="M712 347c0 -61.333 -9.83398 -115 -29.501 -161s-45.5 -84.333 -77.5 -115s-68.5 -53.834 -109.5 -69.501s-82.5 -23.5 -124.5 -23.5c-44.667 0 -88 8.66699 -130 26l-53 -102h-80l70 136c-44 30 -79.833 70.833 -107.5 122.5s-41.5 113.834 -41.5 186.501
c0 63.333 9.83301 118.5 29.5 165.5s45.5 86.167 77.5 117.5s68.5 54.833 109.5 70.5s82.833 23.5 125.5 23.5c48 0 95.667 -11.333 143 -34l60 118l80 1l-80 -156c40.667 -32 73.834 -73.5 99.501 -124.5s38.5 -111.5 38.5 -181.5zM597.999 347c0 40 -7 76.833 -21 110.5
s-34 61.834 -60 84.501l-218 -424c11.333 -4 22.833 -6.83301 34.5 -8.5s24.167 -2.5 37.5 -2.5c34 0 65 6 93 18s52 28.667 72 50s35.333 46.666 46 75.999s16 61.333 16 96zM455.999 578c-26.667 11.333 -55 16.999 -85 16.999c-34.667 0 -66 -6.33301 -94 -19
s-52 -30 -72 -52s-35.333 -48.167 -46 -78.5s-16 -63.166 -16 -98.499c0 -42 8 -80 24 -114s38.667 -61.667 68 -83z" />
    <glyph glyph-name="Ugrave" unicode="&#xd9;" horiz-adv-x="707" 
d="M54 701l125.999 0.000976562v-354c0 -44 4.33301 -80.667 13 -110s20.5 -52.833 35.5 -70.5s33 -30 54 -37s44.167 -10.5 69.5 -10.5c23.333 0 45.166 4.5 65.499 13.5s38 23 53 42s26.833 43.167 35.5 72.5s13 64.333 13 105l-1 349h127v-342
c0 -57.333 -6.66699 -108.833 -20 -154.5s-32.666 -84.5 -57.999 -116.5s-56.166 -56.5 -92.499 -73.5s-77.166 -25.5 -122.499 -25.5c-46.667 0 -88.5 8.5 -125.5 25.5s-68.333 41.167 -94 72.5s-45.334 69.166 -59.001 113.499s-20.5 93.833 -20.5 148.5zM137.999 916.001
h124l144 -173h-87l-186 165z" />
    <glyph glyph-name="Uacute" unicode="&#xda;" horiz-adv-x="704" 
d="M58 701l125.999 0.000976562v-354c0 -44 4.33301 -80.667 13 -110s20.5 -52.833 35.5 -70.5s33 -30 54 -37s44.167 -10.5 69.5 -10.5c23.333 0 45.166 4.5 65.499 13.5s38 23 53 42s26.833 43.167 35.5 72.5s13 64.333 13 105l-1 349h127v-342
c0 -57.333 -6.66699 -108.833 -20 -154.5s-32.666 -84.5 -57.999 -116.5s-56.166 -56.5 -92.499 -73.5s-77.166 -25.5 -122.499 -25.5c-46.667 0 -88.5 8.5 -125.5 25.5s-68.333 41.167 -94 72.5s-45.334 69.166 -59.001 113.499s-20.5 93.833 -20.5 148.5zM551.999 914.001
l-189 -174h-81l138 182h127z" />
    <glyph glyph-name="Ucircumflex" unicode="&#xdb;" horiz-adv-x="704" 
d="M54 701l125.999 0.000976562v-354c0 -44 4.33301 -80.667 13 -110s20.5 -52.833 35.5 -70.5s33 -30 54 -37s44.167 -10.5 69.5 -10.5c23.333 0 45.166 4.5 65.499 13.5s38 23 53 42s26.833 43.167 35.5 72.5s13 64.333 13 105l-1 349h127v-342
c0 -57.333 -6.66699 -108.833 -20 -154.5s-32.666 -84.5 -57.999 -116.5s-56.166 -56.5 -92.499 -73.5s-77.166 -25.5 -122.499 -25.5c-46.667 0 -88.5 8.5 -125.5 25.5s-68.333 41.167 -94 72.5s-45.334 69.166 -59.001 113.499s-20.5 93.833 -20.5 148.5zM416.999 764.001
l-75 86l-76 -86h-93l133 150h75l129 -150h-93z" />
    <glyph glyph-name="Udieresis" unicode="&#xdc;" horiz-adv-x="705" 
d="M53 701l125.999 0.000976562v-354c0 -44 4.33301 -80.667 13 -110s20.5 -52.833 35.5 -70.5s33 -30 54 -37s44.167 -10.5 69.5 -10.5c23.333 0 45.166 4.5 65.499 13.5s38 23 53 42s26.833 43.167 35.5 72.5s13 64.333 13 105l-1 349h127v-342
c0 -57.333 -6.66699 -108.833 -20 -154.5s-32.666 -84.5 -57.999 -116.5s-56.166 -56.5 -92.499 -73.5s-77.166 -25.5 -122.499 -25.5c-46.667 0 -88.5 8.5 -125.5 25.5s-68.333 41.167 -94 72.5s-45.334 69.166 -59.001 113.499s-20.5 93.833 -20.5 148.5zM486.999 792.001
c0 -15.333 -5.16699 -28.666 -15.5 -39.999s-23.166 -17 -38.499 -17s-28.166 5.66699 -38.499 17s-15.5 24.666 -15.5 39.999s5.16699 28.666 15.5 39.999s23.166 17 38.499 17s28.166 -5.66699 38.499 -17s15.5 -24.666 15.5 -39.999zM287.999 792.001
c0 -15.333 -5.33301 -28.666 -16 -39.999s-23.667 -17 -39 -17c-14.667 0 -27.167 5.66699 -37.5 17s-15.5 24.666 -15.5 39.999s5.16699 28.666 15.5 39.999s22.833 17 37.5 17c15.333 0 28.333 -5.66699 39 -17s16 -24.666 16 -39.999z" />
    <glyph glyph-name="Yacute" unicode="&#xdd;" horiz-adv-x="627" 
d="M378 265v-265h-129l-1 271l-230 430h130l171 -319l162 319h129zM530 892l-189 -174h-81l138 182h127z" />
    <glyph glyph-name="Thorn" unicode="&#xde;" horiz-adv-x="596" 
d="M558 360c0 -38 -6.16699 -72.167 -18.5 -102.5s-29.166 -56 -50.499 -77s-46.5 -37 -75.5 -48s-60.167 -16.5 -93.5 -16.5h-131l1 -116h-129v701h129v-93h126c33.333 0 64.666 -5.5 93.999 -16.5s55 -27.167 77 -48.5s39.333 -47.333 52 -78s19 -65.667 19 -105zM444 353
c0 16.667 -2.33203 32.668 -6.99902 48.001s-11.834 28.833 -21.501 40.5s-21.5 21 -35.5 28s-30 10.5 -48 10.5h-143l1 -252h122c18 0 35 3.16699 51 9.5s30 15.166 42 26.499s21.5 24.5 28.5 39.5s10.5 31.5 10.5 49.5z" />
    <glyph glyph-name="germandbls" unicode="&#xdf;" horiz-adv-x="623" 
d="M580 233c0 -41.333 -6.83203 -77.001 -20.499 -107.001s-32.834 -54.833 -57.501 -74.5s-54.167 -34.334 -88.5 -44.001s-72.5 -14.5 -114.5 -14.5h-33c-12 0 -22.667 0.5 -32 1.5s-17 3 -23 6s-8 7.5 -6 13.5l24 91c8 -4.66699 17.5 -9 28.5 -13s24.167 -6 39.5 -6
c30 0 55.667 4.16699 77 12.5s38.833 19.5 52.5 33.5s23.667 29.833 30 47.5s9.5 35.5 9.5 53.5c0 19.333 -2.83301 36.333 -8.5 51s-12.834 27.334 -21.501 38.001s-18.667 19.5 -30 26.5s-22.333 12.5 -33 16.5c-14 2 -28.333 3.33301 -43 4s-28.667 1 -42 1h-16
c-4 0 -8.83301 -0.166992 -14.5 -0.5s-13 -0.666016 -22 -0.999023s-21.5 -0.833008 -37.5 -1.5v98h93c16 0 30.167 2.83301 42.5 8.5s22.666 13.5 30.999 23.5s14.5 21.5 18.5 34.5s6 26.833 6 41.5c0 12 -2 24.333 -6 37s-10.667 24.167 -20 34.5
s-21.833 18.666 -37.5 24.999s-35.5 9.5 -59.5 9.5c-39.333 0 -67.5 -9.33301 -84.5 -28s-25.5 -41.334 -25.5 -68.001v-583h-111v583c0 26.667 5.16699 51.334 15.5 74.001s24.833 42.334 43.5 59.001s41.334 29.667 68.001 39s56 14 88 14c34 0 65.333 -5 94 -15
s53.5 -23.833 74.5 -41.5s37.5 -38.5 49.5 -62.5s18 -49.667 18 -77c0 -18 -2.33301 -34 -7 -48s-10.667 -26.333 -18 -37s-15.166 -19.667 -23.499 -27s-15.833 -13.333 -22.5 -18c2.66699 -1.33301 7.16699 -2.5 13.5 -3.5s10.833 -2.16699 13.5 -3.5
c38 -18 68.833 -45.333 92.5 -82s35.5 -77 35.5 -121z" />
    <glyph glyph-name="agrave" unicode="&#xe0;" 
d="M390 48l-10.0088 -11.502c-3.33301 -3.66699 -7 -7.16699 -11 -10.5c-15.333 -12 -32.666 -20.5 -51.999 -25.5s-41.333 -7.5 -66 -7.5s-49.167 3.66699 -73.5 11s-46.166 17.833 -65.499 31.5s-35 30.667 -47 51s-18 43.5 -18 69.5c0 30 5.83301 55.833 17.5 77.5
s27 39.334 46 53.001s40.833 23.667 65.5 30s50.334 9.5 77.001 9.5c18.667 0 39.334 -1.66699 62.001 -5l54 -8v11c0 9.33301 -1.5 21 -4.5 35s-9.83301 24.667 -20.5 32c-13.333 9.33301 -27.833 15.333 -43.5 18s-32.167 4 -49.5 4c-12 0 -24.5 -1.16699 -37.5 -3.5
s-26 -5.5 -39 -9.5s-25.333 -8.33301 -37 -13l-31.5 -13l-20 74c6 6 15.333 12 28 18s27 11.5 43 16.5s32.833 9.16699 50.5 12.5s34.834 5 51.501 5c10.667 0 22.834 -0.333008 36.501 -1s27.5 -2.33398 41.5 -5.00098s27.833 -6.5 41.5 -11.5s26.167 -11.833 37.5 -20.5
c26.667 -19.333 44.5 -39.5 53.5 -60.5s13.5 -47.167 13.5 -78.5v-166c0 -13.333 0.5 -25.666 1.5 -36.999s5.16699 -20.666 12.5 -27.999c10.667 -10.667 24 -12 40 -4l22 -69c-11.333 -9.33301 -21.666 -15.833 -30.999 -19.5s-19.666 -5.5 -30.999 -5.5
c-14 0 -29 1.83301 -45 5.5s-29.667 10.5 -41 20.5c-4 3.33301 -7.66699 7.33301 -11 12s-6.66602 10 -9.99902 16zM368.991 231.998c-13.333 2.66699 -29.834 5.5 -49.501 8.5s-38.167 4.5 -55.5 4.5c-34 0 -59.5 -7 -76.5 -21s-25.5 -34 -25.5 -60
c0 -27.333 8.16699 -47.833 24.5 -61.5s39.5 -20.5 69.5 -20.5c27.333 0 50.333 3.5 69 10.5s34.334 16.167 47.001 27.5c-1.33301 4.66699 -2 9.16699 -2 13.5v14.5zM95.9902 744.998h124l144 -173h-87l-186 165z" />
    <glyph glyph-name="aacute" unicode="&#xe1;" 
d="M390 48l-10.0088 -11.502c-3.33301 -3.66699 -7 -7.16699 -11 -10.5c-15.333 -12 -32.666 -20.5 -51.999 -25.5s-41.333 -7.5 -66 -7.5s-49.167 3.66699 -73.5 11s-46.166 17.833 -65.499 31.5s-35 30.667 -47 51s-18 43.5 -18 69.5c0 30 5.83301 55.833 17.5 77.5
s27 39.334 46 53.001s40.833 23.667 65.5 30s50.334 9.5 77.001 9.5c18.667 0 39.334 -1.66699 62.001 -5l54 -8v11c0 9.33301 -1.5 21 -4.5 35s-9.83301 24.667 -20.5 32c-13.333 9.33301 -27.833 15.333 -43.5 18s-32.167 4 -49.5 4c-12 0 -24.5 -1.16699 -37.5 -3.5
s-26 -5.5 -39 -9.5s-25.333 -8.33301 -37 -13l-31.5 -13l-20 74c6 6 15.333 12 28 18s27 11.5 43 16.5s32.833 9.16699 50.5 12.5s34.834 5 51.501 5c10.667 0 22.834 -0.333008 36.501 -1s27.5 -2.33398 41.5 -5.00098s27.833 -6.5 41.5 -11.5s26.167 -11.833 37.5 -20.5
c26.667 -19.333 44.5 -39.5 53.5 -60.5s13.5 -47.167 13.5 -78.5v-166c0 -13.333 0.5 -25.666 1.5 -36.999s5.16699 -20.666 12.5 -27.999c10.667 -10.667 24 -12 40 -4l22 -69c-11.333 -9.33301 -21.666 -15.833 -30.999 -19.5s-19.666 -5.5 -30.999 -5.5
c-14 0 -29 1.83301 -45 5.5s-29.667 10.5 -41 20.5c-4 3.33301 -7.66699 7.33301 -11 12s-6.66602 10 -9.99902 16zM368.991 231.998c-13.333 2.66699 -29.834 5.5 -49.501 8.5s-38.167 4.5 -55.5 4.5c-34 0 -59.5 -7 -76.5 -21s-25.5 -34 -25.5 -60
c0 -27.333 8.16699 -47.833 24.5 -61.5s39.5 -20.5 69.5 -20.5c27.333 0 50.333 3.5 69 10.5s34.334 16.167 47.001 27.5c-1.33301 4.66699 -2 9.16699 -2 13.5v14.5zM459.99 735.998l-189 -174h-81l138 182h127z" />
    <glyph glyph-name="acircumflex" unicode="&#xe2;" 
d="M390 48l-10.0088 -11.502c-3.33301 -3.66699 -7 -7.16699 -11 -10.5c-15.333 -12 -32.666 -20.5 -51.999 -25.5s-41.333 -7.5 -66 -7.5s-49.167 3.66699 -73.5 11s-46.166 17.833 -65.499 31.5s-35 30.667 -47 51s-18 43.5 -18 69.5c0 30 5.83301 55.833 17.5 77.5
s27 39.334 46 53.001s40.833 23.667 65.5 30s50.334 9.5 77.001 9.5c18.667 0 39.334 -1.66699 62.001 -5l54 -8v11c0 9.33301 -1.5 21 -4.5 35s-9.83301 24.667 -20.5 32c-13.333 9.33301 -27.833 15.333 -43.5 18s-32.167 4 -49.5 4c-12 0 -24.5 -1.16699 -37.5 -3.5
s-26 -5.5 -39 -9.5s-25.333 -8.33301 -37 -13l-31.5 -13l-20 74c6 6 15.333 12 28 18s27 11.5 43 16.5s32.833 9.16699 50.5 12.5s34.834 5 51.501 5c10.667 0 22.834 -0.333008 36.501 -1s27.5 -2.33398 41.5 -5.00098s27.833 -6.5 41.5 -11.5s26.167 -11.833 37.5 -20.5
c26.667 -19.333 44.5 -39.5 53.5 -60.5s13.5 -47.167 13.5 -78.5v-166c0 -13.333 0.5 -25.666 1.5 -36.999s5.16699 -20.666 12.5 -27.999c10.667 -10.667 24 -12 40 -4l22 -69c-11.333 -9.33301 -21.666 -15.833 -30.999 -19.5s-19.666 -5.5 -30.999 -5.5
c-14 0 -29 1.83301 -45 5.5s-29.667 10.5 -41 20.5c-4 3.33301 -7.66699 7.33301 -11 12s-6.66602 10 -9.99902 16zM368.991 231.998c-13.333 2.66699 -29.834 5.5 -49.501 8.5s-38.167 4.5 -55.5 4.5c-34 0 -59.5 -7 -76.5 -21s-25.5 -34 -25.5 -60
c0 -27.333 8.16699 -47.833 24.5 -61.5s39.5 -20.5 69.5 -20.5c27.333 0 50.333 3.5 69 10.5s34.334 16.167 47.001 27.5c-1.33301 4.66699 -2 9.16699 -2 13.5v14.5zM343.99 565.998l-75 86l-76 -86h-93l133 150h75l129 -150h-93z" />
    <glyph glyph-name="atilde" unicode="&#xe3;" 
d="M390 48l-10.0088 -11.502c-3.33301 -3.66699 -7 -7.16699 -11 -10.5c-15.333 -12 -32.666 -20.5 -51.999 -25.5s-41.333 -7.5 -66 -7.5s-49.167 3.66699 -73.5 11s-46.166 17.833 -65.499 31.5s-35 30.667 -47 51s-18 43.5 -18 69.5c0 30 5.83301 55.833 17.5 77.5
s27 39.334 46 53.001s40.833 23.667 65.5 30s50.334 9.5 77.001 9.5c18.667 0 39.334 -1.66699 62.001 -5l54 -8v11c0 9.33301 -1.5 21 -4.5 35s-9.83301 24.667 -20.5 32c-13.333 9.33301 -27.833 15.333 -43.5 18s-32.167 4 -49.5 4c-12 0 -24.5 -1.16699 -37.5 -3.5
s-26 -5.5 -39 -9.5s-25.333 -8.33301 -37 -13l-31.5 -13l-20 74c6 6 15.333 12 28 18s27 11.5 43 16.5s32.833 9.16699 50.5 12.5s34.834 5 51.501 5c10.667 0 22.834 -0.333008 36.501 -1s27.5 -2.33398 41.5 -5.00098s27.833 -6.5 41.5 -11.5s26.167 -11.833 37.5 -20.5
c26.667 -19.333 44.5 -39.5 53.5 -60.5s13.5 -47.167 13.5 -78.5v-166c0 -13.333 0.5 -25.666 1.5 -36.999s5.16699 -20.666 12.5 -27.999c10.667 -10.667 24 -12 40 -4l22 -69c-11.333 -9.33301 -21.666 -15.833 -30.999 -19.5s-19.666 -5.5 -30.999 -5.5
c-14 0 -29 1.83301 -45 5.5s-29.667 10.5 -41 20.5c-4 3.33301 -7.66699 7.33301 -11 12s-6.66602 10 -9.99902 16zM368.991 231.998c-13.333 2.66699 -29.834 5.5 -49.501 8.5s-38.167 4.5 -55.5 4.5c-34 0 -59.5 -7 -76.5 -21s-25.5 -34 -25.5 -60
c0 -27.333 8.16699 -47.833 24.5 -61.5s39.5 -20.5 69.5 -20.5c27.333 0 50.333 3.5 69 10.5s34.334 16.167 47.001 27.5c-1.33301 4.66699 -2 9.16699 -2 13.5v14.5zM451.99 681.998c-8.66699 -21.333 -18.999 -40.3291 -30.999 -56.9961
c-10 -14.667 -21.833 -27.834 -35.5 -39.501s-28.834 -17.5 -45.501 -17.5s-31.667 3.33301 -45 10s-25.5 14 -36.5 22l-31 22c-9.66699 6.66699 -19.167 10 -28.5 10c-18.667 0 -33.667 -5.66699 -45 -17s-20 -25 -26 -41l-39 16c6.66699 22.667 15.334 42.667 26.001 60
c9.33301 15.333 20.5 29.166 33.5 41.499s28.5 18.5 46.5 18.5c17.333 0 32.666 -3.33301 45.999 -10s25.5 -13.834 36.5 -21.501l30.5 -21.5c9.33301 -6.66699 19 -10 29 -10c17.333 0 33 5.66699 47 17s24.667 23.666 32 36.999z" />
    <glyph glyph-name="adieresis" unicode="&#xe4;" 
d="M390 48l-10.0088 -11.502c-3.33301 -3.66699 -7 -7.16699 -11 -10.5c-15.333 -12 -32.666 -20.5 -51.999 -25.5s-41.333 -7.5 -66 -7.5s-49.167 3.66699 -73.5 11s-46.166 17.833 -65.499 31.5s-35 30.667 -47 51s-18 43.5 -18 69.5c0 30 5.83301 55.833 17.5 77.5
s27 39.334 46 53.001s40.833 23.667 65.5 30s50.334 9.5 77.001 9.5c18.667 0 39.334 -1.66699 62.001 -5l54 -8v11c0 9.33301 -1.5 21 -4.5 35s-9.83301 24.667 -20.5 32c-13.333 9.33301 -27.833 15.333 -43.5 18s-32.167 4 -49.5 4c-12 0 -24.5 -1.16699 -37.5 -3.5
s-26 -5.5 -39 -9.5s-25.333 -8.33301 -37 -13l-31.5 -13l-20 74c6 6 15.333 12 28 18s27 11.5 43 16.5s32.833 9.16699 50.5 12.5s34.834 5 51.501 5c10.667 0 22.834 -0.333008 36.501 -1s27.5 -2.33398 41.5 -5.00098s27.833 -6.5 41.5 -11.5s26.167 -11.833 37.5 -20.5
c26.667 -19.333 44.5 -39.5 53.5 -60.5s13.5 -47.167 13.5 -78.5v-166c0 -13.333 0.5 -25.666 1.5 -36.999s5.16699 -20.666 12.5 -27.999c10.667 -10.667 24 -12 40 -4l22 -69c-11.333 -9.33301 -21.666 -15.833 -30.999 -19.5s-19.666 -5.5 -30.999 -5.5
c-14 0 -29 1.83301 -45 5.5s-29.667 10.5 -41 20.5c-4 3.33301 -7.66699 7.33301 -11 12s-6.66602 10 -9.99902 16zM368.991 231.998c-13.333 2.66699 -29.834 5.5 -49.501 8.5s-38.167 4.5 -55.5 4.5c-34 0 -59.5 -7 -76.5 -21s-25.5 -34 -25.5 -60
c0 -27.333 8.16699 -47.833 24.5 -61.5s39.5 -20.5 69.5 -20.5c27.333 0 50.333 3.5 69 10.5s34.334 16.167 47.001 27.5c-1.33301 4.66699 -2 9.16699 -2 13.5v14.5zM420.99 629.998c0 -15.333 -5.16699 -28.666 -15.5 -39.999s-23.166 -17 -38.499 -17
s-28.166 5.66699 -38.499 17s-15.5 24.666 -15.5 39.999s5.16699 28.666 15.5 39.999s23.166 17 38.499 17s28.166 -5.66699 38.499 -17s15.5 -24.666 15.5 -39.999zM221.99 629.998c0 -15.333 -5.33301 -28.666 -16 -39.999s-23.667 -17 -39 -17
c-14.667 0 -27.167 5.66699 -37.5 17s-15.5 24.666 -15.5 39.999s5.16699 28.666 15.5 39.999s22.833 17 37.5 17c15.333 0 28.333 -5.66699 39 -17s16 -24.666 16 -39.999z" />
    <glyph glyph-name="aring" unicode="&#xe5;" 
d="M390 48l-10.0088 -11.502c-3.33301 -3.66699 -7 -7.16699 -11 -10.5c-15.333 -12 -32.666 -20.5 -51.999 -25.5s-41.333 -7.5 -66 -7.5s-49.167 3.66699 -73.5 11s-46.166 17.833 -65.499 31.5s-35 30.667 -47 51s-18 43.5 -18 69.5c0 30 5.83301 55.833 17.5 77.5
s27 39.334 46 53.001s40.833 23.667 65.5 30s50.334 9.5 77.001 9.5c18.667 0 39.334 -1.66699 62.001 -5l54 -8v11c0 9.33301 -1.5 21 -4.5 35s-9.83301 24.667 -20.5 32c-13.333 9.33301 -27.833 15.333 -43.5 18s-32.167 4 -49.5 4c-12 0 -24.5 -1.16699 -37.5 -3.5
s-26 -5.5 -39 -9.5s-25.333 -8.33301 -37 -13l-31.5 -13l-20 74c6 6 15.333 12 28 18s27 11.5 43 16.5s32.833 9.16699 50.5 12.5s34.834 5 51.501 5c10.667 0 22.834 -0.333008 36.501 -1s27.5 -2.33398 41.5 -5.00098s27.833 -6.5 41.5 -11.5s26.167 -11.833 37.5 -20.5
c26.667 -19.333 44.5 -39.5 53.5 -60.5s13.5 -47.167 13.5 -78.5v-166c0 -13.333 0.5 -25.666 1.5 -36.999s5.16699 -20.666 12.5 -27.999c10.667 -10.667 24 -12 40 -4l22 -69c-11.333 -9.33301 -21.666 -15.833 -30.999 -19.5s-19.666 -5.5 -30.999 -5.5
c-14 0 -29 1.83301 -45 5.5s-29.667 10.5 -41 20.5c-4 3.33301 -7.66699 7.33301 -11 12s-6.66602 10 -9.99902 16zM368.991 231.998c-13.333 2.66699 -29.834 5.5 -49.501 8.5s-38.167 4.5 -55.5 4.5c-34 0 -59.5 -7 -76.5 -21s-25.5 -34 -25.5 -60
c0 -27.333 8.16699 -47.833 24.5 -61.5s39.5 -20.5 69.5 -20.5c27.333 0 50.333 3.5 69 10.5s34.334 16.167 47.001 27.5c-1.33301 4.66699 -2 9.16699 -2 13.5v14.5zM399.99 670.998c0 -16.667 -3.33301 -32.5 -10 -47.5s-15.834 -28 -27.501 -39
s-25.334 -19.833 -41.001 -26.5s-32.167 -10 -49.5 -10c-18 0 -34.667 3.33301 -50 10s-28.666 15.5 -39.999 26.5s-20.333 24 -27 39s-10 30.833 -10 47.5s3.33301 32.5 10 47.5s15.667 28.167 27 39.5s24.666 20.166 39.999 26.499s32 9.5 50 9.5
c17.333 0 33.833 -3.16699 49.5 -9.5s29.334 -15.166 41.001 -26.499s20.834 -24.5 27.501 -39.5s10 -30.833 10 -47.5zM336.99 670.998c0 19.333 -6.33301 36 -19 50s-28 21 -46 21s-33.333 -7 -46 -21s-19 -30.667 -19 -50s6.33301 -35.833 19 -49.5s28 -20.5 46 -20.5
s33.333 6.83301 46 20.5s19 30.167 19 49.5z" />
    <glyph glyph-name="ae" unicode="&#xe6;" horiz-adv-x="847" 
d="M571 499c28.667 0 54.5049 -4.66699 77.5049 -14s43.167 -22.333 60.5 -39s31.833 -36.5 43.5 -59.5s20.5 -47.833 26.5 -74.5c3.33301 -17.333 5.33301 -32.833 6 -46.5s0.333984 -30.167 -0.999023 -49.5c-6 -1.33301 -15.667 -2.66602 -29 -3.99902
s-28.5 -2.33301 -45.5 -3s-35.167 -1.16699 -54.5 -1.5s-38.333 -0.166016 -57 0.500977c-34 0.666992 -64.167 2 -90.5 4s-43.5 3.66699 -51.5 5c0 -15.333 3.16699 -30.166 9.5 -44.499s15 -27 26 -38s24 -20 39 -27s31.167 -10.5 48.5 -10.5c28.667 0 57.667 4 87 12
s54 19.333 74 34l31 -75c-10 -9.33301 -22.167 -18.5 -36.5 -27.5s-29.833 -17 -46.5 -24s-34.334 -12.667 -53.001 -17s-37.334 -6.5 -56.001 -6.5c-35.333 0 -68 6.5 -98 19.5s-54.333 34.5 -73 64.5c-2 -2.66699 -5.5 -6.5 -10.5 -11.5l-15.5 -15.5l-15 -15
c-4.66699 -4.66699 -8 -7.66699 -10 -9c-14.667 -12 -31.5 -20.5 -50.5 -25.5s-40.833 -7.5 -65.5 -7.5c-24 0 -48 3.66699 -72 11s-45.5 17.833 -64.5 31.5s-34.333 30.667 -46 51s-17.5 43.5 -17.5 69.5c0 30 5.66699 55.667 17 77s26.333 38.666 45 51.999
s40.167 23 64.5 29s49.5 9 75.5 9c8.66699 0 18.334 -0.5 29.001 -1.5s21.167 -2.16699 31.5 -3.5s20.166 -2.83301 29.499 -4.5s17.333 -2.83398 24 -3.50098v14c0 9.33301 -1.5 21 -4.5 35s-9.83301 24.667 -20.5 32c-13.333 9.33301 -27.833 15.333 -43.5 18
s-31.5 4 -47.5 4c-11.333 0 -23.5 -1.16699 -36.5 -3.5s-25.667 -5.5 -38 -9.5s-24.333 -8.33301 -36 -13s-21.834 -9 -30.501 -13l-21 74c6 6 15.167 12 27.5 18s26.5 11.5 42.5 16.5s32.667 9.16699 50 12.5s34 5 50 5c10.667 0 22.5 -0.333008 35.5 -1
s26.5 -2.33398 40.5 -5.00098s27.667 -6.5 41 -11.5s25.666 -11.833 36.999 -20.5c10 -7.33301 18.333 -15.333 25 -24c17.333 17.333 38.166 31.833 62.499 43.5s51.166 17.5 80.499 17.5zM357.005 235c-13.333 2.66699 -29.667 5.49902 -49 8.49902s-37.333 4.5 -54 4.5
c-33.333 0 -58.333 -7.5 -75 -22.5s-25 -35.5 -25 -61.5c0 -27.333 8 -48.166 24 -62.499s38.667 -21.5 68 -21.5c26.667 0 50.167 4.16699 70.5 12.5s38.833 21.833 55.5 40.5c-7.33301 15.333 -11.5 32.833 -12.5 52.5zM464.004 288.999
c11.333 -1.33301 26.3311 -2.50098 44.998 -3.50098s38.667 -2.16699 60 -3.5c24.667 -0.666992 48.334 -1 71.001 -1s39.334 1 50.001 3c0 8.66699 -1.16699 19.834 -3.5 33.501s-7.5 26.667 -15.5 39s-19.5 23 -34.5 32s-34.833 13.5 -59.5 13.5c-28 0 -52 -10 -72 -30
s-33.667 -47.667 -41 -83z" />
    <glyph glyph-name="ccedilla" unicode="&#xe7;" horiz-adv-x="536" 
d="M416 -167c0 -20 -4.83203 -36.8369 -14.499 -50.5039s-21.334 -24.5 -35.001 -32.5s-28 -13.667 -43 -17s-27.833 -5 -38.5 -5c-20 0 -39.5 3.16699 -58.5 9.5s-39.167 16.5 -60.5 30.5l22 63c38 -23.333 70.333 -35 97 -35c22 0 37.333 4 46 12s13 16.333 13 25
c0 4 -0.666992 8.83301 -2 14.5s-4 11 -8 16s-9.33301 9.16699 -16 12.5s-15.334 5 -26.001 5c-9.33301 0 -18.166 -1.66699 -26.499 -5s-15.833 -7 -22.5 -11c-7.33301 -4.66699 -14.333 -9.66699 -21 -15l-50 28l46 124c-23.333 6.66699 -45.5 16.834 -66.5 30.501
s-39.5 30.5 -55.5 50.5s-28.667 43.167 -38 69.5s-14 56.166 -14 89.499c0 43.333 7.16699 81 21.5 113s33.166 58.667 56.499 80s49.666 37.333 78.999 48s59.333 16 90 16c17.333 0 35.333 -1.83301 54 -5.5s37 -8.66699 55 -15s35.167 -14.166 51.5 -23.499
s31.166 -19.666 44.499 -30.999l-42 -86c-16 11.333 -38 22.5 -66 33.5s-60.333 16.5 -97 16.5c-19.333 0 -37 -3.83301 -53 -11.5s-29.667 -18 -41 -31s-20.333 -28.167 -27 -45.5s-10 -35.666 -10 -54.999c0 -18.667 3.33301 -36 10 -52s15.667 -30 27 -42
s25 -21.333 41 -28s33.667 -10 53 -10c30 0 57.333 3.16699 82 9.5s48 16.833 70 31.5l43 -87c-21.333 -19.333 -49.166 -36.666 -83.499 -51.999s-71.5 -23 -111.5 -23h-6l-31 -68c6.66699 2 13.834 5.16699 21.501 9.5s18.834 6.5 33.501 6.5
c11.333 0 23.333 -1.66699 36 -5s24.167 -9.16602 34.5 -17.499s19 -19.333 26 -33s10.5 -30.834 10.5 -51.501z" />
    <glyph glyph-name="egrave" unicode="&#xe8;" horiz-adv-x="551" 
d="M394 292c0 8.66699 -0.999023 19.332 -2.99902 31.999s-7 24.834 -15 36.501s-19.833 21.5 -35.5 29.5s-36.834 12 -63.501 12c-28.667 0 -53.5 -9.66699 -74.5 -29s-35.167 -46.333 -42.5 -81h234zM277.001 498.998c34 0 63.668 -4.66797 89.001 -14.001
s47 -22.166 65 -38.499s32.333 -35.5 43 -57.5s18.667 -46 24 -72c3.33301 -17.333 5.33301 -35.833 6 -55.5s0.333984 -39.167 -0.999023 -58.5h-348c0 -11.333 3.5 -23.333 10.5 -36s16.5 -24.167 28.5 -34.5s26 -18.833 42 -25.5s33 -10 51 -10c30 0 57.333 2.33301 82 7
s47.667 14.334 69 29.001l43 -72c-8.66699 -10 -20.334 -19.167 -35.001 -27.5s-30.834 -15.5 -48.501 -21.5s-36.334 -10.667 -56.001 -14s-39.167 -5 -58.5 -5c-30 0 -59.667 5.33301 -89 16s-55.666 26.5 -78.999 47.5s-42.333 47.167 -57 78.5s-22 67.666 -22 108.999
c0 42.667 7 80 21 112s32.5 58.5 55.5 79.5s48.833 36.833 77.5 47.5s57.667 16 87 16zM97.002 768.997h124l144 -173h-87l-186 165z" />
    <glyph glyph-name="eacute" unicode="&#xe9;" horiz-adv-x="541" 
d="M394 292c0 8.66699 -0.999023 19.332 -2.99902 31.999s-7 24.834 -15 36.501s-19.833 21.5 -35.5 29.5s-36.834 12 -63.501 12c-28.667 0 -53.5 -9.66699 -74.5 -29s-35.167 -46.333 -42.5 -81h234zM277.001 498.998c34 0 63.668 -4.66797 89.001 -14.001
s47 -22.166 65 -38.499s32.333 -35.5 43 -57.5s18.667 -46 24 -72c3.33301 -17.333 5.33301 -35.833 6 -55.5s0.333984 -39.167 -0.999023 -58.5h-348c0 -11.333 3.5 -23.333 10.5 -36s16.5 -24.167 28.5 -34.5s26 -18.833 42 -25.5s33 -10 51 -10c30 0 57.333 2.33301 82 7
s47.667 14.334 69 29.001l43 -72c-8.66699 -10 -20.334 -19.167 -35.001 -27.5s-30.834 -15.5 -48.501 -21.5s-36.334 -10.667 -56.001 -14s-39.167 -5 -58.5 -5c-30 0 -59.667 5.33301 -89 16s-55.666 26.5 -78.999 47.5s-42.333 47.167 -57 78.5s-22 67.666 -22 108.999
c0 42.667 7 80 21 112s32.5 58.5 55.5 79.5s48.833 36.833 77.5 47.5s57.667 16 87 16zM457.002 759.997l-189 -174h-81l138 182h127z" />
    <glyph glyph-name="ecircumflex" unicode="&#xea;" horiz-adv-x="555" 
d="M394 292c0 8.66699 -0.999023 19.332 -2.99902 31.999s-7 24.834 -15 36.501s-19.833 21.5 -35.5 29.5s-36.834 12 -63.501 12c-28.667 0 -53.5 -9.66699 -74.5 -29s-35.167 -46.333 -42.5 -81h234zM277.001 498.998c34 0 63.668 -4.66797 89.001 -14.001
s47 -22.166 65 -38.499s32.333 -35.5 43 -57.5s18.667 -46 24 -72c3.33301 -17.333 5.33301 -35.833 6 -55.5s0.333984 -39.167 -0.999023 -58.5h-348c0 -11.333 3.5 -23.333 10.5 -36s16.5 -24.167 28.5 -34.5s26 -18.833 42 -25.5s33 -10 51 -10c30 0 57.333 2.33301 82 7
s47.667 14.334 69 29.001l43 -72c-8.66699 -10 -20.334 -19.167 -35.001 -27.5s-30.834 -15.5 -48.501 -21.5s-36.334 -10.667 -56.001 -14s-39.167 -5 -58.5 -5c-30 0 -59.667 5.33301 -89 16s-55.666 26.5 -78.999 47.5s-42.333 47.167 -57 78.5s-22 67.666 -22 108.999
c0 42.667 7 80 21 112s32.5 58.5 55.5 79.5s48.833 36.833 77.5 47.5s57.667 16 87 16zM354.002 557.997l-75 86l-76 -86h-93l133 150h75l129 -150h-93z" />
    <glyph glyph-name="edieresis" unicode="&#xeb;" horiz-adv-x="543" 
d="M394 292c0 8.66699 -0.999023 19.332 -2.99902 31.999s-7 24.834 -15 36.501s-19.833 21.5 -35.5 29.5s-36.834 12 -63.501 12c-28.667 0 -53.5 -9.66699 -74.5 -29s-35.167 -46.333 -42.5 -81h234zM277.001 498.998c34 0 63.668 -4.66797 89.001 -14.001
s47 -22.166 65 -38.499s32.333 -35.5 43 -57.5s18.667 -46 24 -72c3.33301 -17.333 5.33301 -35.833 6 -55.5s0.333984 -39.167 -0.999023 -58.5h-348c0 -11.333 3.5 -23.333 10.5 -36s16.5 -24.167 28.5 -34.5s26 -18.833 42 -25.5s33 -10 51 -10c30 0 57.333 2.33301 82 7
s47.667 14.334 69 29.001l43 -72c-8.66699 -10 -20.334 -19.167 -35.001 -27.5s-30.834 -15.5 -48.501 -21.5s-36.334 -10.667 -56.001 -14s-39.167 -5 -58.5 -5c-30 0 -59.667 5.33301 -89 16s-55.666 26.5 -78.999 47.5s-42.333 47.167 -57 78.5s-22 67.666 -22 108.999
c0 42.667 7 80 21 112s32.5 58.5 55.5 79.5s48.833 36.833 77.5 47.5s57.667 16 87 16zM428.002 643.997c0 -15.333 -5.16699 -28.666 -15.5 -39.999s-23.166 -17 -38.499 -17s-28.166 5.66699 -38.499 17s-15.5 24.666 -15.5 39.999s5.16699 28.666 15.5 39.999
s23.166 17 38.499 17s28.166 -5.66699 38.499 -17s15.5 -24.666 15.5 -39.999zM229.002 643.997c0 -15.333 -5.33301 -28.666 -16 -39.999s-23.667 -17 -39 -17c-14.667 0 -27.167 5.66699 -37.5 17s-15.5 24.666 -15.5 39.999s5.16699 28.666 15.5 39.999
s22.833 17 37.5 17c15.333 0 28.333 -5.66699 39 -17s16 -24.666 16 -39.999z" />
    <glyph glyph-name="igrave" unicode="&#xec;" horiz-adv-x="216" 
d="M47 0v490h115v-490h-115zM-104 760h124l144 -173h-87l-186 165z" />
    <glyph glyph-name="iacute" unicode="&#xed;" horiz-adv-x="253" 
d="M47 0v490h115v-490h-115zM306 745l-189 -174h-81l138 182h127z" />
    <glyph glyph-name="icircumflex" unicode="&#xee;" horiz-adv-x="220" 
d="M47 0v490h115v-490h-115zM178 593l-75 86l-76 -86h-93l133 150h75l129 -150h-93z" />
    <glyph glyph-name="idieresis" unicode="&#xef;" horiz-adv-x="235" 
d="M57 0v490h115v-490h-115zM270 647c0 -15.333 -5.16699 -28.666 -15.5 -39.999s-23.166 -17 -38.499 -17s-28.166 5.66699 -38.499 17s-15.5 24.666 -15.5 39.999s5.16699 28.666 15.5 39.999s23.166 17 38.499 17s28.166 -5.66699 38.499 -17s15.5 -24.666 15.5 -39.999z
M71 647c0 -15.333 -5.33301 -28.666 -16 -39.999s-23.667 -17 -39 -17c-14.667 0 -27.167 5.66699 -37.5 17s-15.5 24.666 -15.5 39.999s5.16699 28.666 15.5 39.999s22.833 17 37.5 17c15.333 0 28.333 -5.66699 39 -17s16 -24.666 16 -39.999z" />
    <glyph glyph-name="eth" unicode="&#xf0;" horiz-adv-x="563" 
d="M403 672c4 -3.33301 7.5 -7.16797 10.5 -11.501s6.16699 -8.16602 9.5 -11.499c34 -42 59.833 -91.5 77.5 -148.5s26.5 -117.167 26.5 -180.5c0 -44.667 -5 -86.834 -15 -126.501s-25.333 -74.5 -46 -104.5s-46.667 -53.667 -78 -71s-68 -26 -110 -26
c-32 0 -63.167 5.33301 -93.5 16s-57 26.5 -80 47.5s-41.5 47.167 -55.5 78.5s-21 67.333 -21 108c0 41.333 6.83301 78 20.5 110s32 58.833 55 80.5s49.5 38 79.5 49s61.667 16.5 95 16.5c23.333 0 48 -6.16699 74 -18.5s48.333 -25.5 67 -39.5
c-8.66699 32.667 -21.667 63.167 -39 91.5s-36.666 52.833 -57.999 73.5h-2l-81 -65l-44 73l52 42c-14.667 6.66699 -29.667 11.834 -45 15.501s-31.333 5.5 -48 5.5l24 96c30 0 58.167 -4 84.5 -12s51.166 -19 74.499 -33l83 66l44 -73zM414 244.998
c0 22 -3.66406 41.667 -10.9971 59s-17.166 32 -29.499 44s-26.833 21.167 -43.5 27.5s-34 9.5 -52 9.5s-35.167 -3.16699 -51.5 -9.5s-30.5 -15.5 -42.5 -27.5s-21.667 -26.667 -29 -44s-11 -37 -11 -59s3.66699 -41.667 11 -59s17.166 -31.666 29.499 -42.999
s26.666 -20 42.999 -26s33.166 -9 50.499 -9c18 0 35.167 3 51.5 9s30.666 14.667 42.999 26s22.333 25.666 30 42.999s11.5 37 11.5 59z" />
    <glyph glyph-name="ntilde" unicode="&#xf1;" horiz-adv-x="540" 
d="M166 432c6.66699 8 14.502 15.833 23.502 23.5s18.667 14.667 29 21s21.833 11.5 34.5 15.5s26.667 6 42 6c26 0 50.333 -4.33301 73 -13s42.167 -20.667 58.5 -36s29.166 -33.5 38.499 -54.5s14 -43.833 14 -68.5v-326h-113v300c0 10 -1.33301 20.167 -4 30.5
s-7 19.5 -13 27.5s-14 14.5 -24 19.5s-22.333 7.5 -37 7.5c-10.667 0 -21.5 -2.16699 -32.5 -6.5s-21.833 -9.83301 -32.5 -16.5s-20.834 -14 -30.501 -22s-18.5 -16 -26.5 -24v-316h-114v490h114v-58zM440.002 685c-8.66699 -21.333 -18.999 -40.3291 -30.999 -56.9961
c-10 -14.667 -21.833 -27.834 -35.5 -39.501s-28.834 -17.5 -45.501 -17.5s-31.667 3.33301 -45 10s-25.5 14 -36.5 22l-31 22c-9.66699 6.66699 -19.167 10 -28.5 10c-18.667 0 -33.667 -5.66699 -45 -17s-20 -25 -26 -41l-39 16c6.66699 22.667 15.334 42.667 26.001 60
c9.33301 15.333 20.5 29.166 33.5 41.499s28.5 18.5 46.5 18.5c17.333 0 32.666 -3.33301 45.999 -10s25.5 -13.834 36.5 -21.501l30.5 -21.5c9.33301 -6.66699 19 -10 29 -10c17.333 0 33 5.66699 47 17s24.667 23.666 32 36.999z" />
    <glyph glyph-name="ograve" unicode="&#xf2;" horiz-adv-x="578" 
d="M543 242c0 -41.333 -7.16699 -77.667 -21.5 -109s-33.333 -57.5 -57 -78.5s-50.667 -36.667 -81 -47s-61.833 -15.5 -94.5 -15.5c-32 0 -63.333 5.33301 -94 16s-58 26.5 -82 47.5s-43.167 47 -57.5 78s-21.5 67.167 -21.5 108.5c0 42.667 7.16699 80.167 21.5 112.5
s33.5 59 57.5 80s51.333 36.833 82 47.5s62 16 94 16c32.667 0 64.167 -5.66699 94.5 -17s57.333 -27.833 81 -49.5s42.667 -48.5 57 -80.5s21.5 -68.333 21.5 -109zM427 244.999c0 20 -3.33301 38.5 -10 55.5s-16 31.667 -28 44s-26.5 22.166 -43.5 29.499
s-35.833 11 -56.5 11s-39.5 -3.66699 -56.5 -11s-31.5 -17.166 -43.5 -29.499s-21.333 -27 -28 -44s-10 -35.5 -10 -55.5c0 -19.333 3.33301 -37.333 10 -54s16 -31.167 28 -43.5s26.5 -22 43.5 -29s35.833 -10.5 56.5 -10.5s39.5 3.5 56.5 10.5s31.5 16.5 43.5 28.5
s21.333 26.333 28 43s10 35 10 55zM83 736.999h124l144 -173h-87l-186 165z" />
    <glyph glyph-name="oacute" unicode="&#xf3;" horiz-adv-x="586" 
d="M543 242c0 -41.333 -7.16699 -77.667 -21.5 -109s-33.333 -57.5 -57 -78.5s-50.667 -36.667 -81 -47s-61.833 -15.5 -94.5 -15.5c-32 0 -63.333 5.33301 -94 16s-58 26.5 -82 47.5s-43.167 47 -57.5 78s-21.5 67.167 -21.5 108.5c0 42.667 7.16699 80.167 21.5 112.5
s33.5 59 57.5 80s51.333 36.833 82 47.5s62 16 94 16c32.667 0 64.167 -5.66699 94.5 -17s57.333 -27.833 81 -49.5s42.667 -48.5 57 -80.5s21.5 -68.333 21.5 -109zM427 244.999c0 20 -3.33301 38.5 -10 55.5s-16 31.667 -28 44s-26.5 22.166 -43.5 29.499
s-35.833 11 -56.5 11s-39.5 -3.66699 -56.5 -11s-31.5 -17.166 -43.5 -29.499s-21.333 -27 -28 -44s-10 -35.5 -10 -55.5c0 -19.333 3.33301 -37.333 10 -54s16 -31.167 28 -43.5s26.5 -22 43.5 -29s35.833 -10.5 56.5 -10.5s39.5 3.5 56.5 10.5s31.5 16.5 43.5 28.5
s21.333 26.333 28 43s10 35 10 55zM473 759.999l-189 -174h-81l138 182h127z" />
    <glyph glyph-name="ocircumflex" unicode="&#xf4;" 
d="M543 242c0 -41.333 -7.16699 -77.667 -21.5 -109s-33.333 -57.5 -57 -78.5s-50.667 -36.667 -81 -47s-61.833 -15.5 -94.5 -15.5c-32 0 -63.333 5.33301 -94 16s-58 26.5 -82 47.5s-43.167 47 -57.5 78s-21.5 67.167 -21.5 108.5c0 42.667 7.16699 80.167 21.5 112.5
s33.5 59 57.5 80s51.333 36.833 82 47.5s62 16 94 16c32.667 0 64.167 -5.66699 94.5 -17s57.333 -27.833 81 -49.5s42.667 -48.5 57 -80.5s21.5 -68.333 21.5 -109zM427 244.999c0 20 -3.33301 38.5 -10 55.5s-16 31.667 -28 44s-26.5 22.166 -43.5 29.499
s-35.833 11 -56.5 11s-39.5 -3.66699 -56.5 -11s-31.5 -17.166 -43.5 -29.499s-21.333 -27 -28 -44s-10 -35.5 -10 -55.5c0 -19.333 3.33301 -37.333 10 -54s16 -31.167 28 -43.5s26.5 -22 43.5 -29s35.833 -10.5 56.5 -10.5s39.5 3.5 56.5 10.5s31.5 16.5 43.5 28.5
s21.333 26.333 28 43s10 35 10 55zM362 551.999l-75 86l-76 -86h-93l133 150h75l129 -150h-93z" />
    <glyph glyph-name="otilde" unicode="&#xf5;" horiz-adv-x="578" 
d="M543 242c0 -41.333 -7.16699 -77.667 -21.5 -109s-33.333 -57.5 -57 -78.5s-50.667 -36.667 -81 -47s-61.833 -15.5 -94.5 -15.5c-32 0 -63.333 5.33301 -94 16s-58 26.5 -82 47.5s-43.167 47 -57.5 78s-21.5 67.167 -21.5 108.5c0 42.667 7.16699 80.167 21.5 112.5
s33.5 59 57.5 80s51.333 36.833 82 47.5s62 16 94 16c32.667 0 64.167 -5.66699 94.5 -17s57.333 -27.833 81 -49.5s42.667 -48.5 57 -80.5s21.5 -68.333 21.5 -109zM427 244.999c0 20 -3.33301 38.5 -10 55.5s-16 31.667 -28 44s-26.5 22.166 -43.5 29.499
s-35.833 11 -56.5 11s-39.5 -3.66699 -56.5 -11s-31.5 -17.166 -43.5 -29.499s-21.333 -27 -28 -44s-10 -35.5 -10 -55.5c0 -19.333 3.33301 -37.333 10 -54s16 -31.167 28 -43.5s26.5 -22 43.5 -29s35.833 -10.5 56.5 -10.5s39.5 3.5 56.5 10.5s31.5 16.5 43.5 28.5
s21.333 26.333 28 43s10 35 10 55zM462 688.999c-8.66699 -21.333 -18.999 -40.3291 -30.999 -56.9961c-10 -14.667 -21.833 -27.834 -35.5 -39.501s-28.834 -17.5 -45.501 -17.5s-31.667 3.33301 -45 10s-25.5 14 -36.5 22l-31 22c-9.66699 6.66699 -19.167 10 -28.5 10
c-18.667 0 -33.667 -5.66699 -45 -17s-20 -25 -26 -41l-39 16c6.66699 22.667 15.334 42.667 26.001 60c9.33301 15.333 20.5 29.166 33.5 41.499s28.5 18.5 46.5 18.5c17.333 0 32.666 -3.33301 45.999 -10s25.5 -13.834 36.5 -21.501l30.5 -21.5
c9.33301 -6.66699 19 -10 29 -10c17.333 0 33 5.66699 47 17s24.667 23.666 32 36.999z" />
    <glyph glyph-name="odieresis" unicode="&#xf6;" horiz-adv-x="582" 
d="M543 242c0 -41.333 -7.16699 -77.667 -21.5 -109s-33.333 -57.5 -57 -78.5s-50.667 -36.667 -81 -47s-61.833 -15.5 -94.5 -15.5c-32 0 -63.333 5.33301 -94 16s-58 26.5 -82 47.5s-43.167 47 -57.5 78s-21.5 67.167 -21.5 108.5c0 42.667 7.16699 80.167 21.5 112.5
s33.5 59 57.5 80s51.333 36.833 82 47.5s62 16 94 16c32.667 0 64.167 -5.66699 94.5 -17s57.333 -27.833 81 -49.5s42.667 -48.5 57 -80.5s21.5 -68.333 21.5 -109zM427 244.999c0 20 -3.33301 38.5 -10 55.5s-16 31.667 -28 44s-26.5 22.166 -43.5 29.499
s-35.833 11 -56.5 11s-39.5 -3.66699 -56.5 -11s-31.5 -17.166 -43.5 -29.499s-21.333 -27 -28 -44s-10 -35.5 -10 -55.5c0 -19.333 3.33301 -37.333 10 -54s16 -31.167 28 -43.5s26.5 -22 43.5 -29s35.833 -10.5 56.5 -10.5s39.5 3.5 56.5 10.5s31.5 16.5 43.5 28.5
s21.333 26.333 28 43s10 35 10 55zM448 639.999c0 -15.333 -5.16699 -28.666 -15.5 -39.999s-23.166 -17 -38.499 -17s-28.166 5.66699 -38.499 17s-15.5 24.666 -15.5 39.999s5.16699 28.666 15.5 39.999s23.166 17 38.499 17s28.166 -5.66699 38.499 -17
s15.5 -24.666 15.5 -39.999zM249 639.999c0 -15.333 -5.33301 -28.666 -16 -39.999s-23.667 -17 -39 -17c-14.667 0 -27.167 5.66699 -37.5 17s-15.5 24.666 -15.5 39.999s5.16699 28.666 15.5 39.999s22.833 17 37.5 17c15.333 0 28.333 -5.66699 39 -17
s16 -24.666 16 -39.999z" />
    <glyph glyph-name="divide" unicode="&#xf7;" horiz-adv-x="572" 
d="M46 293v95h448v-95h-448zM347 151c0 -19.333 -7 -35.833 -21 -49.5s-31 -20.5 -51 -20.5s-37 6.83301 -51 20.5s-21 30.167 -21 49.5s7 35.833 21 49.5s31 20.5 51 20.5s37 -6.83301 51 -20.5s21 -30.167 21 -49.5zM340 528c0 -19.333 -7 -35.833 -21 -49.5
s-31 -20.5 -51 -20.5s-37 6.83301 -51 20.5s-21 30.167 -21 49.5s7 35.833 21 49.5s31 20.5 51 20.5s37 -6.83301 51 -20.5s21 -30.167 21 -49.5z" />
    <glyph glyph-name="oslash" unicode="&#xf8;" horiz-adv-x="563" 
d="M295 384c-2.66699 0 -5.33301 0.166016 -8 0.499023s-5.66699 0.5 -9 0.5c-20 0 -38.167 -3.66699 -54.5 -11s-30.5 -17.166 -42.5 -29.499s-21.167 -27 -27.5 -44s-9.5 -35.5 -9.5 -55.5c0 -44.667 15 -80 45 -106zM260.001 108.999c3.33301 -0.666992 6.33301 -1 9 -1
h9c41.333 0 74.333 12.833 99 38.5s37 58.5 37 98.5c0 22.667 -4.16699 43.5 -12.5 62.5s-20.5 34.833 -36.5 47.5zM411.001 460.999c34 -20.667 61.834 -49.334 83.501 -86.001s32.5 -81 32.5 -133c0 -41.333 -7 -77.666 -21 -108.999s-32.5 -57.5 -55.5 -78.5
s-49.5 -36.667 -79.5 -47s-61 -15.5 -93 -15.5c-11.333 0 -22.5 0.5 -33.5 1.5s-21.833 3.16699 -32.5 6.5l-47 -109h-83l59 138c-33.333 19.333 -60.5 46.833 -81.5 82.5s-31.5 79.167 -31.5 130.5c0 42.667 7.16699 80.167 21.5 112.5s33.166 59 56.499 80
s50 36.833 80 47.5s60.667 16 92 16c11.333 0 22 -0.5 32 -1.5s20 -3.16699 30 -6.5l66 151h83z" />
    <glyph glyph-name="ugrave" unicode="&#xf9;" horiz-adv-x="530" 
d="M356 53c-14.667 -15.333 -32.499 -29.332 -53.499 -41.999s-45.5 -19 -73.5 -19c-26 0 -50 4.33301 -72 13s-40.833 20.667 -56.5 36s-28 33.5 -37 54.5s-13.5 43.5 -13.5 67.5v327h113v-304c0 -10 1.16699 -20 3.5 -30s6.16602 -18.833 11.499 -26.5
s12.833 -13.834 22.5 -18.501s21.834 -7 36.501 -7c10 0 20.167 2 30.5 6s20.666 9 30.999 15s20.5 12.833 30.5 20.5s19 15.5 27 23.5v321h115v-490h-102l-13 52v1zM78.001 736.001h124l144 -173h-87l-186 165z" />
    <glyph glyph-name="uacute" unicode="&#xfa;" horiz-adv-x="530" 
d="M356 53c-14.667 -15.333 -32.499 -29.332 -53.499 -41.999s-45.5 -19 -73.5 -19c-26 0 -50 4.33301 -72 13s-40.833 20.667 -56.5 36s-28 33.5 -37 54.5s-13.5 43.5 -13.5 67.5v327h113v-304c0 -10 1.16699 -20 3.5 -30s6.16602 -18.833 11.499 -26.5
s12.833 -13.834 22.5 -18.501s21.834 -7 36.501 -7c10 0 20.167 2 30.5 6s20.666 9 30.999 15s20.5 12.833 30.5 20.5s19 15.5 27 23.5v321h115v-490h-102l-13 52v1zM435.001 760.001l-189 -174h-81l138 182h127z" />
    <glyph glyph-name="ucircumflex" unicode="&#xfb;" horiz-adv-x="522" 
d="M356 53c-14.667 -15.333 -32.499 -29.332 -53.499 -41.999s-45.5 -19 -73.5 -19c-26 0 -50 4.33301 -72 13s-40.833 20.667 -56.5 36s-28 33.5 -37 54.5s-13.5 43.5 -13.5 67.5v327h113v-304c0 -10 1.16699 -20 3.5 -30s6.16602 -18.833 11.499 -26.5
s12.833 -13.834 22.5 -18.501s21.834 -7 36.501 -7c10 0 20.167 2 30.5 6s20.666 9 30.999 15s20.5 12.833 30.5 20.5s19 15.5 27 23.5v321h115v-490h-102l-13 52v1zM337.001 551.001l-75 86l-76 -86h-93l133 150h75l129 -150h-93z" />
    <glyph glyph-name="udieresis" unicode="&#xfc;" horiz-adv-x="522" 
d="M356 53c-14.667 -15.333 -32.499 -29.332 -53.499 -41.999s-45.5 -19 -73.5 -19c-26 0 -50 4.33301 -72 13s-40.833 20.667 -56.5 36s-28 33.5 -37 54.5s-13.5 43.5 -13.5 67.5v327h113v-304c0 -10 1.16699 -20 3.5 -30s6.16602 -18.833 11.499 -26.5
s12.833 -13.834 22.5 -18.501s21.834 -7 36.501 -7c10 0 20.167 2 30.5 6s20.666 9 30.999 15s20.5 12.833 30.5 20.5s19 15.5 27 23.5v321h115v-490h-102l-13 52v1zM418.001 636.001c0 -15.333 -5.16699 -28.666 -15.5 -39.999s-23.166 -17 -38.499 -17
s-28.166 5.66699 -38.499 17s-15.5 24.666 -15.5 39.999s5.16699 28.666 15.5 39.999s23.166 17 38.499 17s28.166 -5.66699 38.499 -17s15.5 -24.666 15.5 -39.999zM219.001 636.001c0 -15.333 -5.33301 -28.666 -16 -39.999s-23.667 -17 -39 -17
c-14.667 0 -27.167 5.66699 -37.5 17s-15.5 24.666 -15.5 39.999s5.16699 28.666 15.5 39.999s22.833 17 37.5 17c15.333 0 28.333 -5.66699 39 -17s16 -24.666 16 -39.999z" />
    <glyph glyph-name="yacute" unicode="&#xfd;" horiz-adv-x="548" 
d="M305 -102c-8.66699 -22 -20.333 -39.333 -35 -52s-31 -22 -49 -28s-36.667 -9.5 -56 -10.5s-37.666 -0.833008 -54.999 0.5l-55 5l14 108l51 -5c3.33301 0 9.5 -0.5 18.5 -1.5s18.5 -0.5 28.5 1.5s19.667 6.33301 29 13s16.666 17.667 21.999 33l26 72l-228 444v12h120
l160 -308l113 308h119v-12zM484.001 761l-189 -174h-81l138 182h127z" />
    <glyph glyph-name="thorn" unicode="&#xfe;" horiz-adv-x="534" 
d="M494 253c0 -42 -6.16699 -79.165 -18.5 -111.498s-28.5 -59.5 -48.5 -81.5s-43 -38.667 -69 -50s-53 -17 -81 -17c-20 0 -40.5 5.16699 -61.5 15.5s-40.833 24.166 -59.5 41.499v-242h-112v960h112v-318c17.333 15.333 35.833 27.333 55.5 36s40.167 13 61.5 13
c28.667 0 56.167 -5.83301 82.5 -17.5s49.833 -28.334 70.5 -50.001s37.167 -47.667 49.5 -78s18.5 -63.833 18.5 -100.5zM383 246.002c0 18.667 -2.83301 36.501 -8.5 53.501s-13.667 31.833 -24 44.5s-22.666 22.667 -36.999 30s-30.5 11 -48.5 11
c-21.333 0 -41.5 -5.16699 -60.5 -15.5s-35.167 -24.166 -48.5 -41.499v-167c13.333 -16.667 29.5 -29.834 48.5 -39.501s39.167 -14.5 60.5 -14.5c18 0 34.167 3.66699 48.5 11s26.666 17.166 36.999 29.499s18.333 27 24 44s8.5 35.167 8.5 54.5z" />
    <glyph glyph-name="ydieresis" unicode="&#xff;" horiz-adv-x="544" 
d="M305 -102c-8.66699 -22 -20.333 -39.333 -35 -52s-31 -22 -49 -28s-36.667 -9.5 -56 -10.5s-37.666 -0.833008 -54.999 0.5l-55 5l14 108l51 -5c3.33301 0 9.5 -0.5 18.5 -1.5s18.5 -0.5 28.5 1.5s19.667 6.33301 29 13s16.666 17.667 21.999 33l26 72l-228 444v12h120
l160 -308l113 308h119v-12zM433.001 634c0 -15.333 -5.16699 -28.666 -15.5 -39.999s-23.166 -17 -38.499 -17s-28.166 5.66699 -38.499 17s-15.5 24.666 -15.5 39.999s5.16699 28.666 15.5 39.999s23.166 17 38.499 17s28.166 -5.66699 38.499 -17
s15.5 -24.666 15.5 -39.999zM234.001 634c0 -15.333 -5.33301 -28.666 -16 -39.999s-23.667 -17 -39 -17c-14.667 0 -27.167 5.66699 -37.5 17s-15.5 24.666 -15.5 39.999s5.16699 28.666 15.5 39.999s22.833 17 37.5 17c15.333 0 28.333 -5.66699 39 -17
s16 -24.666 16 -39.999z" />
    <glyph glyph-name="Amacron" unicode="&#x100;" horiz-adv-x="694" 
d="M544 0l-58 157l-278 -1l-59 -156h-123l276 703h105l264 -703h-127zM349 532h-1l-99 -262h197zM167 770v79h375v-79h-375z" />
    <glyph glyph-name="amacron" unicode="&#x101;" 
d="M390 48l-10.0088 -11.5c-3.33301 -3.66699 -7 -7.16699 -11 -10.5c-15.333 -12 -32.666 -20.5 -51.999 -25.5s-41.333 -7.5 -66 -7.5s-49.167 3.66699 -73.5 11s-46.166 17.833 -65.499 31.5s-35 30.667 -47 51s-18 43.5 -18 69.5c0 30 5.83301 55.667 17.5 77
s27 38.666 46 51.999s40.833 23 65.5 29s50.334 9 77.001 9c18.667 0 39.334 -1.66699 62.001 -5l54 -8v14c0 9.33301 -1.5 21 -4.5 35s-9.83301 24.667 -20.5 32c-13.333 9.33301 -27.833 15.333 -43.5 18s-32.167 4 -49.5 4c-12 0 -24.5 -1.16699 -37.5 -3.5
s-26 -5.5 -39 -9.5s-25.333 -8.33301 -37 -13l-31.5 -13l-20 74c6 6 15.333 12 28 18s27 11.5 43 16.5s32.833 9.16699 50.5 12.5s34.834 5 51.501 5c10.667 0 22.834 -0.333008 36.501 -1s27.5 -2.33398 41.5 -5.00098s27.833 -6.5 41.5 -11.5s26.167 -11.833 37.5 -20.5
c26.667 -19.333 44.5 -39.5 53.5 -60.5s13.5 -47.167 13.5 -78.5v-166c0 -13.333 0.5 -25.666 1.5 -36.999s5.16699 -20.666 12.5 -27.999c10.667 -10.667 24 -12 40 -4l22 -69c-11.333 -9.33301 -21.666 -15.833 -30.999 -19.5s-19.666 -5.5 -30.999 -5.5
c-14 0 -29 1.83301 -45 5.5s-29.667 10.5 -41 20.5c-4 3.33301 -7.66699 7.33301 -11 12s-6.66602 10 -9.99902 16zM368.991 235c-13.333 2.66699 -29.834 5.49902 -49.501 8.49902s-38.167 4.5 -55.5 4.5c-34 0 -59.5 -7.5 -76.5 -22.5s-25.5 -35.5 -25.5 -61.5
c0 -27.333 8.16699 -48.166 24.5 -62.499s39.5 -21.5 69.5 -21.5c27.333 0 50.333 3.5 69 10.5s34.334 16.167 47.001 27.5c-1.33301 4.66699 -2 9.5 -2 14.5v15.5zM86.9902 581.999v79h375v-79h-375z" />
    <glyph glyph-name="Aogonek" unicode="&#x104;" horiz-adv-x="694" 
d="M608 0c-8 -4 -15.167 -9.50098 -21.5 -16.501s-11.5 -14.667 -15.5 -23s-6.83301 -16.5 -8.5 -24.5s-1.5 -15 0.5 -21c1.33301 -3.33301 3.5 -6.5 6.5 -9.5s8.16699 -4.5 15.5 -4.5c6 0 17.333 2.33301 34 7s34 13.334 52 26.001l2 -95
c-12.667 -7.33301 -27.667 -13 -45 -17s-34.666 -6 -51.999 -6c-28.667 0 -51.334 8.16699 -68.001 24.5s-25 38.833 -25 67.5c0 19.333 5.33301 38 16 56s24.667 32.333 42 43l-55 150l-278 -1l-59 -156h-123l276 703h105l264 -703h-63zM349 531.999h-1l-99 -262h197z" />
    <glyph glyph-name="aogonek" unicode="&#x105;" 
d="M390 48l-10.0078 -11.5029c-3.33301 -3.66699 -7 -7.16699 -11 -10.5c-15.333 -12 -32.666 -20.5 -51.999 -25.5s-41.333 -7.5 -66 -7.5s-49.167 3.66699 -73.5 11s-46.166 17.833 -65.499 31.5s-35 30.667 -47 51s-18 43.5 -18 69.5c0 30 5.83301 55.667 17.5 77
s27 38.666 46 51.999s40.833 23 65.5 29s50.334 9 77.001 9c18.667 0 39.334 -1.66699 62.001 -5l54 -8v14c0 9.33301 -1.5 21 -4.5 35s-9.83301 24.667 -20.5 32c-13.333 9.33301 -27.833 15.333 -43.5 18s-32.167 4 -49.5 4c-12 0 -24.5 -1.16699 -37.5 -3.5
s-26 -5.5 -39 -9.5s-25.333 -8.33301 -37 -13l-31.5 -13l-20 74c6 6 15.333 12 28 18s27 11.5 43 16.5s32.833 9.16699 50.5 12.5s34.834 5 51.501 5c10.667 0 22.834 -0.333008 36.501 -1s27.5 -2.33398 41.5 -5.00098s27.833 -6.5 41.5 -11.5s26.167 -11.833 37.5 -20.5
c26.667 -19.333 44.5 -39.5 53.5 -60.5s13.5 -47.167 13.5 -78.5v-166c0 -13.333 0.5 -25.666 1.5 -36.999s5.16699 -20.666 12.5 -27.999c10.667 -10.667 24 -12 40 -4l22 -69c-11.333 -9.33301 -21.666 -15.833 -30.999 -19.5s-19.666 -5.5 -30.999 -5.5h-4
c-8 -4 -15.333 -9.5 -22 -16.5s-12.167 -14.667 -16.5 -23s-7.33301 -16.666 -9 -24.999s-1.5 -15.5 0.5 -21.5c1.33301 -3.33301 3.5 -6.5 6.5 -9.5s8.16699 -4.5 15.5 -4.5c6 0 17.333 2.33301 34 7s34 13.334 52 26.001l2 -95c-12.667 -7.33301 -27.667 -13 -45 -17
s-34.666 -6 -51.999 -6c-28.667 0 -51.334 8.16699 -68.001 24.5s-25 38.833 -25 67.5c0 20.667 6.5 40.834 19.5 60.501s29.167 34.167 48.5 43.5c-4.66699 1.33301 -8.83398 3.33301 -12.501 6s-7.16699 5.66699 -10.5 9c-4 3.33301 -7.66699 7.33301 -11 12
s-6.66602 10 -9.99902 16zM368.992 234.997c-13.333 2.66699 -29.834 5.49902 -49.501 8.49902s-38.167 4.5 -55.5 4.5c-34 0 -59.5 -7.5 -76.5 -22.5s-25.5 -35.5 -25.5 -61.5c0 -27.333 8.16699 -48.166 24.5 -62.499s39.5 -21.5 69.5 -21.5c27.333 0 50.333 3.5 69 10.5
s34.334 16.167 47.001 27.5c-1.33301 4.66699 -2 9.5 -2 14.5v15.5z" />
    <glyph glyph-name="Cacute" unicode="&#x106;" horiz-adv-x="690" 
d="M364 -18c-36 0 -73.499 7.83496 -112.499 23.502s-74.667 39.167 -107 70.5s-59 70 -80 116s-31.5 99.667 -31.5 161c0 56.667 9.66699 107.834 29 153.501s44.666 84.5 75.999 116.5s66.5 56.5 105.5 73.5s78.167 25.5 117.5 25.5c31.333 0 60.5 -3.33301 87.5 -10
s52.167 -15.667 75.5 -27s44.833 -24.333 64.5 -39s37.5 -30.334 53.5 -47.001l-56 -105c-14 13.333 -28.667 26.166 -44 38.499s-32 23.333 -50 33s-37.333 17.5 -58 23.5s-43.334 9 -68.001 9c-26 0 -51.333 -5.66699 -76 -17s-46.5 -27.666 -65.5 -48.999
s-34.333 -47.333 -46 -78s-17.5 -65.334 -17.5 -104.001c0 -37.333 5.66699 -71.333 17 -102s26.5 -56.667 45.5 -78s40.833 -37.833 65.5 -49.5s50 -17.5 76 -17.5c24.667 0 47.5 3 68.5 9s40.833 14 59.5 24s36 21.333 52 34s31 25.667 45 39l63 -91
c-9.33301 -13.333 -22.666 -27.833 -39.999 -43.5s-38.333 -30.334 -63 -44.001s-52.667 -25.167 -84 -34.5s-65.333 -14 -102 -14zM577.001 941.002l-189 -174h-81l138 182h127z" />
    <glyph glyph-name="cacute" unicode="&#x107;" horiz-adv-x="533" 
d="M486 67c-21.333 -19.333 -49.166 -36.6699 -83.499 -52.0029s-71.5 -23 -111.5 -23c-30.667 0 -60.667 5.33301 -90 16s-55.666 26.5 -78.999 47.5s-42.166 47 -56.499 78s-21.5 67.167 -21.5 108.5c0 43.333 7.16699 81 21.5 113s33.166 58.667 56.499 80
s49.666 37.333 78.999 48s59.333 16 90 16c17.333 0 35.333 -1.83301 54 -5.5s37 -8.66699 55 -15s35.167 -14.166 51.5 -23.499s31.166 -19.666 44.499 -30.999l-42 -86c-16 11.333 -38 22.5 -66 33.5s-60.333 16.5 -97 16.5c-19.333 0 -37 -3.83301 -53 -11.5
s-29.667 -18 -41 -31s-20.333 -28.167 -27 -45.5s-10 -35.666 -10 -54.999c0 -18.667 3.33301 -36 10 -52s15.667 -30 27 -42s25 -21.333 41 -28s33.667 -10 53 -10c30 0 57.333 3.16699 82 9.5s48 16.833 70 31.5zM470 759.996l-189 -174h-81l138 182h127z" />
    <glyph glyph-name="Ccaron" unicode="&#x10c;" horiz-adv-x="690" 
d="M364 -18c-36 0 -73.499 7.83496 -112.499 23.502s-74.667 39.167 -107 70.5s-59 70 -80 116s-31.5 99.667 -31.5 161c0 56.667 9.66699 107.834 29 153.501s44.666 84.5 75.999 116.5s66.5 56.5 105.5 73.5s78.167 25.5 117.5 25.5c31.333 0 60.5 -3.33301 87.5 -10
s52.167 -15.667 75.5 -27s44.833 -24.333 64.5 -39s37.5 -30.334 53.5 -47.001l-56 -105c-14 13.333 -28.667 26.166 -44 38.499s-32 23.333 -50 33s-37.333 17.5 -58 23.5s-43.334 9 -68.001 9c-26 0 -51.333 -5.66699 -76 -17s-46.5 -27.666 -65.5 -48.999
s-34.333 -47.333 -46 -78s-17.5 -65.334 -17.5 -104.001c0 -37.333 5.66699 -71.333 17 -102s26.5 -56.667 45.5 -78s40.833 -37.833 65.5 -49.5s50 -17.5 76 -17.5c24.667 0 47.5 3 68.5 9s40.833 14 59.5 24s36 21.333 52 34s31 25.667 45 39l63 -91
c-9.33301 -13.333 -22.666 -27.833 -39.999 -43.5s-38.333 -30.334 -63 -44.001s-52.667 -25.167 -84 -34.5s-65.333 -14 -102 -14zM408.001 768.002h-77l-133 150h94l76 -86l74 86h94z" />
    <glyph glyph-name="ccaron" unicode="&#x10d;" horiz-adv-x="533" 
d="M486 67c-21.333 -19.333 -49.166 -36.6699 -83.499 -52.0029s-71.5 -23 -111.5 -23c-30.667 0 -60.667 5.33301 -90 16s-55.666 26.5 -78.999 47.5s-42.166 47 -56.499 78s-21.5 67.167 -21.5 108.5c0 43.333 7.16699 81 21.5 113s33.166 58.667 56.499 80
s49.666 37.333 78.999 48s59.333 16 90 16c17.333 0 35.333 -1.83301 54 -5.5s37 -8.66699 55 -15s35.167 -14.166 51.5 -23.499s31.166 -19.666 44.499 -30.999l-42 -86c-16 11.333 -38 22.5 -66 33.5s-60.333 16.5 -97 16.5c-19.333 0 -37 -3.83301 -53 -11.5
s-29.667 -18 -41 -31s-20.333 -28.167 -27 -45.5s-10 -35.666 -10 -54.999c0 -18.667 3.33301 -36 10 -52s15.667 -30 27 -42s25 -21.333 41 -28s33.667 -10 53 -10c30 0 57.333 3.16699 82 9.5s48 16.833 70 31.5zM333 550.996h-77l-133 150h94l76 -86l74 86h94z" />
    <glyph glyph-name="Dcaron" unicode="&#x10e;" horiz-adv-x="700" 
d="M653 350c0 -49.333 -7.83301 -95.335 -23.5 -138.002s-38 -79.667 -67 -111s-64.333 -56 -106 -74s-88.167 -27 -139.5 -27h-253v701h281c47.333 0 90 -9.66699 128 -29s70.333 -45.166 97 -77.499s47.167 -69.666 61.5 -111.999s21.5 -86.5 21.5 -132.5zM528 346.998
c0 32.667 -4.16602 63.668 -12.499 93.001s-21.5 54.666 -39.5 75.999s-41.5 38.333 -70.5 51s-64.167 19 -105.5 19h-107l-1 -471h105c35.333 0 67.166 6 95.499 18s52.5 28.5 72.5 49.5s35.5 45.667 46.5 74s16.5 58.5 16.5 90.5zM354.001 761.999h-77l-133 150h94l76 -86
l74 86h94z" />
    <glyph glyph-name="dcaron" unicode="&#x10f;" horiz-adv-x="652" 
d="M33 239c0 41.333 6.16602 78.165 18.499 110.498s28.666 59.5 48.999 81.5s43.833 38.833 70.5 50.5s54.334 17.5 83.001 17.5c21.333 0 42.5 -5.16699 63.5 -15.5s41.167 -24.166 60.5 -41.499v326h114v-768h-104l-10 42c-17.333 -15.333 -36.166 -27.333 -56.499 -36
s-41.5 -13 -63.5 -13c-28.667 0 -56.5 5.83301 -83.5 17.5s-51 28.334 -72 50.001s-37.833 47.5 -50.5 77.5s-19 63.667 -19 101zM146.999 245.999c0 -19.333 2.83301 -37.5 8.5 -54.5s13.667 -31.833 24 -44.5s22.833 -22.667 37.5 -30s31 -11 49 -11
c22 0 42.833 5.33301 62.5 16s36.167 24.667 49.5 42v166c-13.333 17.333 -29.833 30.833 -49.5 40.5s-40.5 14.5 -62.5 14.5c-18 0 -34.333 -3.66699 -49 -11s-27.167 -17.333 -37.5 -30s-18.333 -27.5 -24 -44.5s-8.5 -34.833 -8.5 -53.5zM601.999 535.999l-82 1l29 231
h105z" />
    <glyph glyph-name="Dcroat" unicode="&#x110;" horiz-adv-x="704" 
d="M657 350c0 -49.333 -7.83301 -95.335 -23.5 -138.002s-38 -79.667 -67 -111s-64.333 -56 -106 -74s-88.167 -27 -139.5 -27h-253v313h-73v87h73v301h281c47.333 0 90 -9.66699 128 -29s70.333 -45.166 97 -77.499s47.167 -69.666 61.5 -111.999s21.5 -86.5 21.5 -132.5z
M196 312.998l0.000976562 -197.999h105c35.333 0 67.166 6 95.499 18s52.5 28.5 72.5 49.5s35.5 45.667 46.5 74s16.5 58.5 16.5 90.5c0 32.667 -4.16699 63.667 -12.5 93s-21.5 54.666 -39.5 75.999s-41.5 38.333 -70.5 51s-64.167 19 -105.5 19h-107l-1 -186h144v-87h-144
z" />
    <glyph glyph-name="dcroat" unicode="&#x111;" horiz-adv-x="549" 
d="M492 602l-0.000976562 -602.001h-104l-10 42c-17.333 -15.333 -36.166 -27.333 -56.499 -36s-41.5 -13 -63.5 -13c-28.667 0 -56.5 5.83301 -83.5 17.5s-51 28.334 -72 50.001s-37.833 47.5 -50.5 77.5s-19 63.667 -19 101c0 41.333 6.16699 78.166 18.5 110.499
s28.666 59.5 48.999 81.5s43.833 38.833 70.5 50.5s54.334 17.5 83.001 17.5c21.333 0 42.5 -5.16699 63.5 -15.5s41.167 -24.166 60.5 -41.499v160h-87v98h87v68h114v-68h82v-98h-82zM146.999 245.999c0 -19.333 2.83301 -37.5 8.5 -54.5s13.667 -31.833 24 -44.5
s22.833 -22.667 37.5 -30s31 -11 49 -11c22 0 42.833 5.33301 62.5 16s36.167 24.667 49.5 42v166c-13.333 17.333 -29.833 30.833 -49.5 40.5s-40.5 14.5 -62.5 14.5c-18 0 -34.333 -3.66699 -49 -11s-27.167 -17.333 -37.5 -30s-18.333 -27.5 -24 -44.5
s-8.5 -34.833 -8.5 -53.5z" />
    <glyph glyph-name="Emacron" unicode="&#x112;" horiz-adv-x="623" 
d="M61 0v701h495v-115h-366v-183h314v-111h-314v-176h376v-116h-505zM136 769v79h361v-79h-361z" />
    <glyph glyph-name="emacron" unicode="&#x113;" horiz-adv-x="508" 
d="M364 292c0 8.66699 -1.00195 19.332 -3.00195 31.999s-6.66699 24.834 -14 36.501s-18.166 21.5 -32.499 29.5s-33.5 12 -57.5 12c-26.667 0 -49.667 -9.66699 -69 -29s-32.666 -46.333 -39.999 -81h216zM256.998 498.998c30.667 0 57.667 -4.66797 81 -14.001
s43.166 -22.166 59.499 -38.499s29.5 -35.5 39.5 -57.5s17.333 -46 22 -72c3.33301 -17.333 5.16602 -35.833 5.49902 -55.5s-0.166992 -39.167 -1.5 -58.5h-319c0 -11.333 3.16699 -23.333 9.5 -36s15 -24.167 26 -34.5s24 -18.833 39 -25.5s30.5 -10 46.5 -10
c28 0 53.333 2.33301 76 7s43.667 14.334 63 29.001l40 -72c-8 -10 -18.667 -19.167 -32 -27.5s-28.166 -15.5 -44.499 -21.5s-33.666 -10.667 -51.999 -14s-36.5 -5 -54.5 -5c-27.333 0 -54.5 5.33301 -81.5 16s-51.333 26.5 -73 47.5s-39.167 47.167 -52.5 78.5
s-20 67.666 -20 108.999c0 42.667 6.5 80 19.5 112s30 58.5 51 79.5s44.833 36.833 71.5 47.5s53.667 16 81 16zM73.998 620.997v79h361v-79h-361z" />
    <glyph glyph-name="Edotaccent" unicode="&#x116;" horiz-adv-x="603" 
d="M56 0v701h485v-115h-356v-183h304v-111h-304v-176h366v-116h-495zM387 835c0 -19.333 -6.5 -35.666 -19.5 -48.999s-28.5 -20 -46.5 -20c-17.333 0 -32.5 6.66699 -45.5 20s-19.5 29.666 -19.5 48.999s6.5 35.666 19.5 48.999s28.167 20 45.5 20
c18 0 33.5 -6.66699 46.5 -20s19.5 -29.666 19.5 -48.999z" />
    <glyph glyph-name="edotaccent" unicode="&#x117;" horiz-adv-x="543" 
d="M394 292c0 8.66699 -0.999023 19.332 -2.99902 31.999s-7 24.834 -15 36.501s-19.833 21.5 -35.5 29.5s-36.834 12 -63.501 12c-28.667 0 -53.5 -9.66699 -74.5 -29s-35.167 -46.333 -42.5 -81h234zM277.001 498.998c34 0 63.668 -4.66797 89.001 -14.001
s47 -22.166 65 -38.499s32.333 -35.5 43 -57.5s18.667 -46 24 -72c3.33301 -17.333 5.33301 -35.833 6 -55.5s0.333984 -39.167 -0.999023 -58.5h-348c0 -11.333 3.5 -23.333 10.5 -36s16.5 -24.167 28.5 -34.5s26 -18.833 42 -25.5s33 -10 51 -10c30 0 57.333 2.33301 82 7
s47.667 14.334 69 29.001l43 -72c-8.66699 -10 -20.334 -19.167 -35.001 -27.5s-30.834 -15.5 -48.501 -21.5s-36.334 -10.667 -56.001 -14s-39.167 -5 -58.5 -5c-30 0 -59.667 5.33301 -89 16s-55.666 26.5 -78.999 47.5s-42.333 47.167 -57 78.5s-22 67.666 -22 108.999
c0 42.667 7 80 21 112s32.5 58.5 55.5 79.5s48.833 36.833 77.5 47.5s57.667 16 87 16zM342.002 640.997c0 -19.333 -6.5 -35.666 -19.5 -48.999s-28.5 -20 -46.5 -20c-17.333 0 -32.5 6.66699 -45.5 20s-19.5 29.666 -19.5 48.999s6.5 35.666 19.5 48.999
s28.167 20 45.5 20c18 0 33.5 -6.66699 46.5 -20s19.5 -29.666 19.5 -48.999z" />
    <glyph glyph-name="Eogonek" unicode="&#x118;" horiz-adv-x="603" 
d="M484 0c-8 -4 -15.168 -9.49902 -21.501 -16.499s-11.5 -14.667 -15.5 -23s-6.83301 -16.5 -8.5 -24.5s-1.5 -15 0.5 -21c1.33301 -3.33301 3.5 -6.5 6.5 -9.5s8.16699 -4.5 15.5 -4.5c6 0 17.333 2.33301 34 7s34 13.334 52 26.001l2 -95
c-12.667 -7.33301 -27.667 -13 -45 -17s-34.666 -6 -51.999 -6c-28.667 0 -51.334 8.16699 -68.001 24.5s-25 38.833 -25 67.5c0 17.333 4.33301 34.166 13 50.499s20.334 30.166 35.001 41.499h-353v701h485v-115h-356v-183h304v-111h-304v-176h366v-116h-65z" />
    <glyph glyph-name="eogonek" unicode="&#x119;" horiz-adv-x="543" 
d="M277 499c34 0 63.6621 -4.6709 88.9951 -14.0039s47 -22.166 65 -38.499s32.333 -35.5 43 -57.5s18.667 -46 24 -72c3.33301 -17.333 5.33301 -35.833 6 -55.5s0.333984 -39.167 -0.999023 -58.5h-348c0 -11.333 3.5 -23.333 10.5 -36s16.5 -24.167 28.5 -34.5
s26 -18.833 42 -25.5s33 -10 51 -10c30 0 57.333 2.33301 82 7s47.667 14.334 69 29.001l43 -72c-15.333 -17.333 -38.666 -32.333 -69.999 -45c-14 -9.33301 -24.667 -22.166 -32 -38.499s-9.33301 -30.166 -6 -41.499c1.33301 -3.33301 3.5 -6.5 6.5 -9.5
s8.16699 -4.5 15.5 -4.5c6 0 17.333 2.33301 34 7s34 13.334 52 26.001l2 -95c-12.667 -7.33301 -27.667 -13 -45 -17s-34.666 -6 -51.999 -6c-28.667 0 -51.334 8.16699 -68.001 24.5s-25 38.833 -25 67.5c0 23.333 7.33301 45.333 22 66
c-5.33301 -0.666992 -10.666 -1.16699 -15.999 -1.5s-10.666 -0.5 -15.999 -0.5c-30 0 -59.667 5.33301 -89 16s-55.666 26.5 -78.999 47.5s-42.333 47.167 -57 78.5s-22 67.666 -22 108.999c0 42.667 7 80 21 112s32.5 58.5 55.5 79.5s48.833 36.833 77.5 47.5
s57.667 16 87 16zM393.995 291.996c0 8.66699 -0.999023 19.332 -2.99902 31.999s-7 24.834 -15 36.501s-19.833 21.5 -35.5 29.5s-36.834 12 -63.501 12c-28.667 0 -53.5 -9.66699 -74.5 -29s-35.167 -46.333 -42.5 -81h234z" />
    <glyph glyph-name="Ecaron" unicode="&#x11a;" horiz-adv-x="599" 
d="M56 0v701h485v-115h-356v-183h304v-111h-304v-176h366v-116h-495zM338 762h-77l-133 150h94l76 -86l74 86h94z" />
    <glyph glyph-name="ecaron" unicode="&#x11b;" horiz-adv-x="543" 
d="M394 292c0 8.66699 -0.999023 19.332 -2.99902 31.999s-7 24.834 -15 36.501s-19.833 21.5 -35.5 29.5s-36.834 12 -63.501 12c-28.667 0 -53.5 -9.66699 -74.5 -29s-35.167 -46.333 -42.5 -81h234zM277.001 498.998c34 0 63.668 -4.66797 89.001 -14.001
s47 -22.166 65 -38.499s32.333 -35.5 43 -57.5s18.667 -46 24 -72c3.33301 -17.333 5.33301 -35.833 6 -55.5s0.333984 -39.167 -0.999023 -58.5h-348c0 -11.333 3.5 -23.333 10.5 -36s16.5 -24.167 28.5 -34.5s26 -18.833 42 -25.5s33 -10 51 -10c30 0 57.333 2.33301 82 7
s47.667 14.334 69 29.001l43 -72c-8.66699 -10 -20.334 -19.167 -35.001 -27.5s-30.834 -15.5 -48.501 -21.5s-36.334 -10.667 -56.001 -14s-39.167 -5 -58.5 -5c-30 0 -59.667 5.33301 -89 16s-55.666 26.5 -78.999 47.5s-42.333 47.167 -57 78.5s-22 67.666 -22 108.999
c0 42.667 7 80 21 112s32.5 58.5 55.5 79.5s48.833 36.833 77.5 47.5s57.667 16 87 16zM314.002 550.997h-77l-133 150h94l76 -86l74 86h94z" />
    <glyph glyph-name="Gcommaaccent" unicode="&#x122;" horiz-adv-x="714" 
d="M655 114c-8.66699 -9.33301 -21.8281 -20.667 -39.4951 -34s-38.834 -26.666 -63.501 -39.999c-24 -13.333 -52.333 -25 -85 -35s-68 -15 -106 -15s-76 7.83301 -114 23.5s-72.167 38.834 -102.5 69.501s-55 68.667 -74 114s-28.5 97.666 -28.5 156.999
c0 60 9.66699 112.5 29 157.5s44.333 82.5 75 112.5s65 52.333 103 67s75.667 22 113 22c15.333 0 37.166 -1.5 65.499 -4.5s57.166 -9.5 86.499 -19.5c14 -5.33301 28.667 -12.333 44 -21s29.5 -17.667 42.5 -27s24.333 -18.166 34 -26.499s16.5 -14.833 20.5 -19.5
l-54 -93c-4.66699 4 -11.834 9 -21.501 15l-30.5 18.5c-10.667 6.33301 -21.334 12.166 -32.001 17.499l-26 13c-16 7.33301 -35 13.166 -57 17.499s-46.333 6.5 -73 6.5c-29.333 0 -56.166 -5.33301 -80.499 -16s-45.333 -26 -63 -46s-31.5 -44.5 -41.5 -73.5
s-15 -61.833 -15 -98.5s5.33301 -69.834 16 -99.501s25 -55 43 -76s39.167 -37.167 63.5 -48.5s50.166 -17 77.499 -17c34 0 67.333 6.33301 100 19s60 29.334 82 50.001v100h-193l1 108h304v-278zM465.006 -131.001c0 -20 -3.83203 -39.168 -11.499 -57.501
s-18 -35.166 -31 -50.499s-27.667 -28.833 -44 -40.5s-33.5 -20.5 -51.5 -26.5l-21 33c6.66699 4 14.5 10 23.5 18s17.5 16.667 25.5 26s14.833 18.833 20.5 28.5s8.5 17.834 8.5 24.501c0 3.33301 -0.333008 5.66602 -1 6.99902c-6 -2.66699 -13.333 -4 -22 -4
c-12.667 0 -22.667 6.16699 -30 18.5s-11 26.833 -11 43.5c0 19.333 7.16699 34.5 21.5 45.5s30.166 16.5 47.499 16.5c24 0 42.667 -7.33301 56 -22s20 -34.667 20 -60z" />
    <glyph glyph-name="gcommaaccent" unicode="&#x123;" horiz-adv-x="549" 
d="M492 19c0 -42 -9.33398 -78.333 -28.001 -109s-42 -54.334 -70 -71.001c-25.333 -14.667 -52 -24.834 -80 -30.501s-53 -8.5 -75 -8.5c-30.667 0 -59.834 5.66699 -87.501 17s-51.167 26.333 -70.5 45l38 83c12.667 -11.333 30 -20.333 52 -27s44.667 -10 68 -10
c16 0 32.833 2.33301 50.5 7s33.167 11.667 46.5 21c12 8.66699 21.833 19 29.5 31s11.5 26.333 11.5 43v31c-17.333 -15.333 -36.166 -27.166 -56.499 -35.499s-41.166 -12.5 -62.499 -12.5c-28.667 0 -56.5 5.83301 -83.5 17.5s-51 28.334 -72 50.001
s-37.833 47.5 -50.5 77.5s-19 63.667 -19 101c0 41.333 6.16699 78.166 18.5 110.499s28.666 59.5 48.999 81.5s43.833 38.833 70.5 50.5s54.334 17.5 83.001 17.5c21.333 0 42.5 -5.16699 63.5 -15.5s41.167 -24.166 60.5 -41.499v48h114v-471zM377.999 330
c-13.333 17.333 -29.833 30.833 -49.5 40.5s-40.5 14.5 -62.5 14.5c-18 0 -34.333 -3.66699 -49 -11s-27.167 -17.333 -37.5 -30s-18.333 -27.5 -24 -44.5s-8.5 -34.833 -8.5 -53.5c0 -19.333 2.83301 -37.5 8.5 -54.5s13.667 -31.833 24 -44.5s22.833 -22.667 37.5 -30
s31 -11 49 -11c22 0 42.833 5.33301 62.5 16s36.167 24.667 49.5 42v166zM183.999 631c0 20 3.83203 39.168 11.499 57.501s18 35.166 31 50.499s27.667 28.833 44 40.5s33.5 20.5 51.5 26.5l21 -33c-6.66699 -4 -14.5 -10 -23.5 -18s-17.5 -16.667 -25.5 -26
s-14.833 -18.833 -20.5 -28.5s-8.5 -17.834 -8.5 -24.501c0 -3.33301 0.333008 -5.66602 1 -6.99902c6 2.66699 13.333 4 22 4c12.667 0 22.667 -6.16699 30 -18.5s11 -26.833 11 -43.5c0 -19.333 -7.16699 -34.5 -21.5 -45.5s-30.166 -16.5 -47.499 -16.5
c-24 0 -42.667 7.33301 -56 22s-20 34.667 -20 60z" />
    <glyph glyph-name="Imacron" unicode="&#x12a;" horiz-adv-x="295" 
d="M77 0v701h130v-701h-130zM-47 774v79h375v-79h-375z" />
    <glyph glyph-name="imacron" unicode="&#x12b;" horiz-adv-x="220" 
d="M47 0v490h115v-490h-115zM-79 622v79h375v-79h-375z" />
    <glyph glyph-name="Iogonek" unicode="&#x12e;" horiz-adv-x="295" 
d="M148 0c-8.66699 -3.33301 -16.499 -8.5 -23.499 -15.5s-12.833 -14.667 -17.5 -23s-7.83398 -16.833 -9.50098 -25.5s-1.5 -16.334 0.5 -23.001c1.33301 -3.33301 3.5 -6.5 6.5 -9.5s8.16699 -4.5 15.5 -4.5c6 0 17.333 2.33301 34 7s34 13.334 52 26.001l2 -95
c-12.667 -7.33301 -27.667 -13 -45 -17s-34.666 -6 -51.999 -6c-28.667 0 -51.334 8.16699 -68.001 24.5s-25 38.833 -25 67.5c0 19.333 5.5 38 16.5 56s25.167 32.333 42.5 43v696h130v-701h-59z" />
    <glyph glyph-name="iogonek" unicode="&#x12f;" horiz-adv-x="217" 
d="M94 0c-7.33301 -4 -13.832 -9.50098 -19.499 -16.501s-10.334 -14.5 -14.001 -22.5s-6.16699 -15.833 -7.5 -23.5s-1.33301 -14.5 0 -20.5c1.33301 -3.33301 3.5 -6.5 6.5 -9.5s8.16699 -4.5 15.5 -4.5c6 0 17.333 2.33301 34 7s34 13.334 52 26.001l2 -95
c-12.667 -7.33301 -27.667 -13 -45 -17s-34.666 -6 -51.999 -6c-28.667 0 -51.334 8.16699 -68.001 24.5s-25 38.833 -25 67.5c0 22 7.33301 43.5 22 64.5s33 35.5 55 43.5v472h114v-490h-70zM173.001 629.999c0 -21.333 -6.5 -39 -19.5 -53s-28.833 -21 -47.5 -21
c-17.333 0 -32.666 7 -45.999 21s-20 31.667 -20 53s6.66699 39 20 53s28.666 21 45.999 21c18.667 0 34.5 -7 47.5 -21s19.5 -31.667 19.5 -53z" />
    <glyph glyph-name="dotlessi" unicode="&#x131;" horiz-adv-x="215" 
d="M42 0v490h115v-490h-115z" />
    <glyph glyph-name="Kcommaaccent" unicode="&#x136;" horiz-adv-x="622" 
d="M448 0l-194 312l-71 -80v-232h-129v701h129v-304l263 304h137l-246 -289l260 -412h-149zM390 -99c0 -20 -3.83203 -39.168 -11.499 -57.501s-18 -35.166 -31 -50.499s-27.667 -28.833 -44 -40.5s-33.5 -20.5 -51.5 -26.5l-21 33c6.66699 4 14.5 10 23.5 18
s17.5 16.667 25.5 26s14.833 18.833 20.5 28.5s8.5 17.834 8.5 24.501c0 3.33301 -0.333008 5.66602 -1 6.99902c-6 -2.66699 -13.333 -4 -22 -4c-12.667 0 -22.667 6.16699 -30 18.5s-11 26.833 -11 43.5c0 19.333 7.16699 34.5 21.5 45.5s30.166 16.5 47.499 16.5
c24 0 42.667 -7.33301 56 -22s20 -34.667 20 -60z" />
    <glyph glyph-name="kcommaaccent" unicode="&#x137;" horiz-adv-x="487" 
d="M50 0v768h114v-449h2l164 171h121v-10l-159 -166l165 -304v-10h-119l-131 232l-43 -42v-190h-114zM326 -101c0 -20 -3.83203 -39.168 -11.499 -57.501s-18 -35.166 -31 -50.499s-27.667 -28.833 -44 -40.5s-33.5 -20.5 -51.5 -26.5l-21 33c6.66699 4 14.5 10 23.5 18
s17.5 16.667 25.5 26s14.833 18.833 20.5 28.5s8.5 17.834 8.5 24.501c0 3.33301 -0.333008 5.66602 -1 6.99902c-6 -2.66699 -13.333 -4 -22 -4c-12.667 0 -22.667 6.16699 -30 18.5s-11 26.833 -11 43.5c0 19.333 7.16699 34.5 21.5 45.5s30.166 16.5 47.499 16.5
c24 0 42.667 -7.33301 56 -22s20 -34.667 20 -60z" />
    <glyph glyph-name="Lacute" unicode="&#x139;" horiz-adv-x="590" 
d="M55 0l-1 701h129v-579h366v-122h-494zM347 928l-189 -174h-81l138 182h127z" />
    <glyph glyph-name="lacute" unicode="&#x13a;" horiz-adv-x="250" 
d="M64 0v768h114v-768h-114zM331 971l-189 -174h-81l138 182h127z" />
    <glyph glyph-name="Lcommaaccent" unicode="&#x13b;" horiz-adv-x="590" 
d="M55 0l-1 701h129v-579h366v-122h-494zM378 -119c0 -20 -3.83203 -39.168 -11.499 -57.501s-18 -35.166 -31 -50.499s-27.667 -28.833 -44 -40.5s-33.5 -20.5 -51.5 -26.5l-21 33c6.66699 4 14.5 10 23.5 18s17.5 16.667 25.5 26s14.833 18.833 20.5 28.5
s8.5 17.834 8.5 24.501c0 3.33301 -0.333008 5.66602 -1 6.99902c-6 -2.66699 -13.333 -4 -22 -4c-12.667 0 -22.667 6.16699 -30 18.5s-11 26.833 -11 43.5c0 19.333 7.16699 34.5 21.5 45.5s30.166 16.5 47.499 16.5c24 0 42.667 -7.33301 56 -22s20 -34.667 20 -60z" />
    <glyph glyph-name="lcommaaccent" unicode="&#x13c;" horiz-adv-x="250" 
d="M64 0v768h114v-768h-114zM188 -119c0 -20 -3.83203 -39.168 -11.499 -57.501s-18 -35.166 -31 -50.499s-27.667 -28.833 -44 -40.5s-33.5 -20.5 -51.5 -26.5l-21 33c6.66699 4 14.5 10 23.5 18s17.5 16.667 25.5 26s14.833 18.833 20.5 28.5s8.5 17.834 8.5 24.501
c0 3.33301 -0.333008 5.66602 -1 6.99902c-6 -2.66699 -13.333 -4 -22 -4c-12.667 0 -22.667 6.16699 -30 18.5s-11 26.833 -11 43.5c0 19.333 7.16699 34.5 21.5 45.5s30.166 16.5 47.499 16.5c24 0 42.667 -7.33301 56 -22s20 -34.667 20 -60z" />
    <glyph glyph-name="Lcaron" unicode="&#x13d;" horiz-adv-x="590" 
d="M55 0l-1 701h129v-579h366v-122h-494zM307 468l-82 1l29 231h105z" />
    <glyph glyph-name="lcaron" unicode="&#x13e;" horiz-adv-x="332" 
d="M64 0v768h114v-768h-114zM286 536l-82 1l29 231h105z" />
    <glyph glyph-name="Lslash" unicode="&#x141;" horiz-adv-x="614" 
d="M62 0v268l-43 -24v93l42 24v340h129v-265l93 52v-93l-93 -53v-220h376v-122h-504z" />
    <glyph glyph-name="lslash" unicode="&#x142;" horiz-adv-x="273" 
d="M90 0v305l-91 -52v89l91 52v374h112v-311l71 41v-89l-71 -41v-368h-112z" />
    <glyph glyph-name="Nacute" unicode="&#x143;" horiz-adv-x="704" 
d="M583 0l-400 442v-442h-127v701h75l383 -421v421h126v-701h-57zM502 920l-189 -174h-81l138 182h127z" />
    <glyph glyph-name="nacute" unicode="&#x144;" horiz-adv-x="537" 
d="M164 432c6.66699 8 14.502 15.833 23.502 23.5s18.667 14.667 29 21s21.833 11.5 34.5 15.5s26.667 6 42 6c26 0 50.333 -4.33301 73 -13s42.167 -20.667 58.5 -36s29.166 -33.5 38.499 -54.5s14 -43.833 14 -68.5v-326h-113v300c0 10 -1.33301 20.167 -4 30.5
s-7 19.5 -13 27.5s-14 14.5 -24 19.5s-22.333 7.5 -37 7.5c-10.667 0 -21.5 -2.16699 -32.5 -6.5s-21.833 -9.83301 -32.5 -16.5s-20.834 -14 -30.501 -22s-18.5 -16 -26.5 -24v-316h-114v490h114v-58zM430.002 756l-189 -174h-81l138 182h127z" />
    <glyph glyph-name="Ncommaaccent" unicode="&#x145;" horiz-adv-x="704" 
d="M583 0l-400 442v-442h-127v701h75l383 -421v421h126v-701h-57zM452 -94c0 -20 -3.83203 -39.168 -11.499 -57.501s-18 -35.166 -31 -50.499s-27.667 -28.833 -44 -40.5s-33.5 -20.5 -51.5 -26.5l-21 33c6.66699 4 14.5 10 23.5 18s17.5 16.667 25.5 26
s14.833 18.833 20.5 28.5s8.5 17.834 8.5 24.501c0 3.33301 -0.333008 5.66602 -1 6.99902c-6 -2.66699 -13.333 -4 -22 -4c-12.667 0 -22.667 6.16699 -30 18.5s-11 26.833 -11 43.5c0 19.333 7.16699 34.5 21.5 45.5s30.166 16.5 47.499 16.5c24 0 42.667 -7.33301 56 -22
s20 -34.667 20 -60z" />
    <glyph glyph-name="ncommaaccent" unicode="&#x146;" horiz-adv-x="537" 
d="M164 432c6.66699 8 14.502 15.833 23.502 23.5s18.667 14.667 29 21s21.833 11.5 34.5 15.5s26.667 6 42 6c26 0 50.333 -4.33301 73 -13s42.167 -20.667 58.5 -36s29.166 -33.5 38.499 -54.5s14 -43.833 14 -68.5v-326h-113v300c0 10 -1.33301 20.167 -4 30.5
s-7 19.5 -13 27.5s-14 14.5 -24 19.5s-22.333 7.5 -37 7.5c-10.667 0 -21.5 -2.16699 -32.5 -6.5s-21.833 -9.83301 -32.5 -16.5s-20.834 -14 -30.501 -22s-18.5 -16 -26.5 -24v-316h-114v490h114v-58zM351.002 -119c0 -20 -3.83203 -39.168 -11.499 -57.501
s-18 -35.166 -31 -50.499s-27.667 -28.833 -44 -40.5s-33.5 -20.5 -51.5 -26.5l-21 33c6.66699 4 14.5 10 23.5 18s17.5 16.667 25.5 26s14.833 18.833 20.5 28.5s8.5 17.834 8.5 24.501c0 3.33301 -0.333008 5.66602 -1 6.99902c-6 -2.66699 -13.333 -4 -22 -4
c-12.667 0 -22.667 6.16699 -30 18.5s-11 26.833 -11 43.5c0 19.333 7.16699 34.5 21.5 45.5s30.166 16.5 47.499 16.5c24 0 42.667 -7.33301 56 -22s20 -34.667 20 -60z" />
    <glyph glyph-name="Ncaron" unicode="&#x147;" horiz-adv-x="704" 
d="M583 0l-400 442v-442h-127v701h75l383 -421v421h126v-701h-57zM376 787h-77l-133 150h94l76 -86l74 86h94z" />
    <glyph glyph-name="ncaron" unicode="&#x148;" horiz-adv-x="537" 
d="M164 432c6.66699 8 14.502 15.833 23.502 23.5s18.667 14.667 29 21s21.833 11.5 34.5 15.5s26.667 6 42 6c26 0 50.333 -4.33301 73 -13s42.167 -20.667 58.5 -36s29.166 -33.5 38.499 -54.5s14 -43.833 14 -68.5v-326h-113v300c0 10 -1.33301 20.167 -4 30.5
s-7 19.5 -13 27.5s-14 14.5 -24 19.5s-22.333 7.5 -37 7.5c-10.667 0 -21.5 -2.16699 -32.5 -6.5s-21.833 -9.83301 -32.5 -16.5s-20.834 -14 -30.501 -22s-18.5 -16 -26.5 -24v-316h-114v490h114v-58zM304.002 623h-77l-133 150h94l76 -86l74 86h94z" />
    <glyph glyph-name="Omacron" unicode="&#x14c;" horiz-adv-x="774" 
d="M738 347c0 -61.333 -10.333 -114.835 -31 -160.502s-47.667 -83.667 -81 -114s-71 -53.166 -113 -68.499s-84 -23 -126 -23c-42.667 0 -85 7.83301 -127 23.5s-79.667 39 -113 70s-60.333 69.333 -81 115s-31 98.834 -31 159.501c0 63.333 10.333 118.333 31 165
s47.667 85.334 81 116.001s71 53.5 113 68.5s84.333 22.5 127 22.5c42 0 84 -8.16699 126 -24.5s79.667 -40.333 113 -72s60.333 -70.834 81 -117.501s31 -100 31 -160zM616 346.998c0 34.667 -5.5 67.3301 -16.5 97.9971s-26.5 57.334 -46.5 80.001
s-44.167 40.5 -72.5 53.5s-59.5 19.5 -93.5 19.5c-34.667 0 -66.167 -6.5 -94.5 -19.5s-52.5 -30.667 -72.5 -53s-35.5 -48.833 -46.5 -79.5s-16.5 -63.667 -16.5 -99c0 -34 5.5 -65.667 16.5 -95s26.5 -55 46.5 -77s44.167 -39.333 72.5 -52s59.833 -19 94.5 -19
c34 0 65.167 6.16699 93.5 18.5s52.5 29.333 72.5 51s35.5 47.334 46.5 77.001s16.5 61.834 16.5 96.501zM205 805.994v79h375v-79h-375z" />
    <glyph glyph-name="omacron" unicode="&#x14d;" horiz-adv-x="579" 
d="M543 242c0 -41.333 -7.16699 -77.667 -21.5 -109s-33.333 -57.5 -57 -78.5s-50.667 -36.667 -81 -47s-61.833 -15.5 -94.5 -15.5c-32 0 -63.333 5.33301 -94 16s-58 26.5 -82 47.5s-43.167 47 -57.5 78s-21.5 67.167 -21.5 108.5c0 42.667 7.16699 80.167 21.5 112.5
s33.5 59 57.5 80s51.333 36.833 82 47.5s62 16 94 16c32.667 0 64.167 -5.66699 94.5 -17s57.333 -27.833 81 -49.5s42.667 -48.5 57 -80.5s21.5 -68.333 21.5 -109zM427 244.999c0 20 -3.33301 38.5 -10 55.5s-16 31.667 -28 44s-26.5 22.166 -43.5 29.499
s-35.833 11 -56.5 11s-39.5 -3.66699 -56.5 -11s-31.5 -17.166 -43.5 -29.499s-21.333 -27 -28 -44s-10 -35.5 -10 -55.5c0 -19.333 3.33301 -37.333 10 -54s16 -31.167 28 -43.5s26.5 -22 43.5 -29s35.833 -10.5 56.5 -10.5s39.5 3.5 56.5 10.5s31.5 16.5 43.5 28.5
s21.333 26.333 28 43s10 35 10 55zM111 621.999v79h375v-79h-375z" />
    <glyph glyph-name="Ohungarumlaut" unicode="&#x150;" horiz-adv-x="774" 
d="M738 347c0 -61.333 -10.333 -114.835 -31 -160.502s-47.667 -83.667 -81 -114s-71 -53.166 -113 -68.499s-84 -23 -126 -23c-42.667 0 -85 7.83301 -127 23.5s-79.667 39 -113 70s-60.333 69.333 -81 115s-31 98.834 -31 159.501c0 63.333 10.333 118.333 31 165
s47.667 85.334 81 116.001s71 53.5 113 68.5s84.333 22.5 127 22.5c42 0 84 -8.16699 126 -24.5s79.667 -40.333 113 -72s60.333 -70.834 81 -117.501s31 -100 31 -160zM616 346.998c0 34.667 -5.5 67.3301 -16.5 97.9971s-26.5 57.334 -46.5 80.001
s-44.167 40.5 -72.5 53.5s-59.5 19.5 -93.5 19.5c-34.667 0 -66.167 -6.5 -94.5 -19.5s-52.5 -30.667 -72.5 -53s-35.5 -48.833 -46.5 -79.5s-16.5 -63.667 -16.5 -99c0 -34 5.5 -65.667 16.5 -95s26.5 -55 46.5 -77s44.167 -39.333 72.5 -52s59.833 -19 94.5 -19
c34 0 65.167 6.16699 93.5 18.5s52.5 29.333 72.5 51s35.5 47.334 46.5 77.001s16.5 61.834 16.5 96.501zM466 799.994h-69l108 131h94zM312 799.994h-68l102 133l94 1z" />
    <glyph glyph-name="ohungarumlaut" unicode="&#x151;" horiz-adv-x="579" 
d="M543 242c0 -41.333 -7.16699 -77.667 -21.5 -109s-33.333 -57.5 -57 -78.5s-50.667 -36.667 -81 -47s-61.833 -15.5 -94.5 -15.5c-32 0 -63.333 5.33301 -94 16s-58 26.5 -82 47.5s-43.167 47 -57.5 78s-21.5 67.167 -21.5 108.5c0 42.667 7.16699 80.167 21.5 112.5
s33.5 59 57.5 80s51.333 36.833 82 47.5s62 16 94 16c32.667 0 64.167 -5.66699 94.5 -17s57.333 -27.833 81 -49.5s42.667 -48.5 57 -80.5s21.5 -68.333 21.5 -109zM427 244.999c0 20 -3.33301 38.5 -10 55.5s-16 31.667 -28 44s-26.5 22.166 -43.5 29.499
s-35.833 11 -56.5 11s-39.5 -3.66699 -56.5 -11s-31.5 -17.166 -43.5 -29.499s-21.333 -27 -28 -44s-10 -35.5 -10 -55.5c0 -19.333 3.33301 -37.333 10 -54s16 -31.167 28 -43.5s26.5 -22 43.5 -29s35.833 -10.5 56.5 -10.5s39.5 3.5 56.5 10.5s31.5 16.5 43.5 28.5
s21.333 26.333 28 43s10 35 10 55zM372 615.999h-69l108 131h94zM218 615.999h-68l102 133l94 1z" />
    <glyph glyph-name="OE" unicode="&#x152;" horiz-adv-x="1100" 
d="M490 0c-19.333 -7.33301 -39 -12.834 -59 -16.501s-40 -5.5 -60 -5.5c-42.667 0 -84.5 7.83301 -125.5 23.5s-77.5 39 -109.5 70s-57.833 69.5 -77.5 115.5s-29.5 99.333 -29.5 160c0 63.333 9.83301 118.5 29.5 165.5s45.5 86.167 77.5 117.5s68.5 54.833 109.5 70.5
s82.833 23.5 125.5 23.5c20 0 39.833 -2 59.5 -6s39.167 -9.66699 58.5 -17h552v-115h-402c18.667 -25.333 34.167 -53.833 46.5 -85.5s20.5 -66.5 24.5 -104.5h279v-112h-281c-4.66699 -34 -12.5 -64.667 -23.5 -92s-24.5 -52.666 -40.5 -75.999h407v-116h-561z
M598 346.999c0 34.667 -5.33301 67.168 -16 97.501s-26 56.666 -46 78.999s-44 39.833 -72 52.5s-59 19 -93 19c-34.667 0 -66 -6.33301 -94 -19s-52 -30 -72 -52s-35.333 -48.167 -46 -78.5s-16 -63.166 -16 -98.499c0 -34 5.33301 -65.5 16 -94.5s26 -54.333 46 -76
s44 -38.667 72 -51s59.333 -18.5 94 -18.5c34 0 65 6 93 18s52 28.667 72 50s35.333 46.666 46 75.999s16 61.333 16 96z" />
    <glyph glyph-name="oe" unicode="&#x153;" horiz-adv-x="894" 
d="M641 499c28.667 0 54.5 -4.66602 77.5 -13.999s43.167 -22.333 60.5 -39s31.833 -36.5 43.5 -59.5s20.167 -47.833 25.5 -74.5c4 -17.333 6.5 -35 7.5 -53s0.833008 -36.667 -0.5 -56h-331c0 -11.333 3.33301 -23.333 10 -36s15.667 -24.167 27 -34.5
s24.666 -18.833 39.999 -25.5s31.333 -10 48 -10c28.667 0 57.5 4 86.5 12s53.833 19.333 74.5 34l32 -75c-10 -9.33301 -22.167 -18.5 -36.5 -27.5s-30 -17 -47 -24s-34.833 -12.667 -53.5 -17s-37.334 -6.5 -56.001 -6.5c-33.333 0 -65.833 7.16699 -97.5 21.5
s-59.167 35.833 -82.5 64.5c-21.333 -30 -48.166 -52 -80.499 -66s-67.5 -21 -105.5 -21c-31.333 0 -62 5.33301 -92 16s-56.667 26.5 -80 47.5s-42.166 47 -56.499 78s-21.5 67.167 -21.5 108.5c0 42.667 7.16699 80.167 21.5 112.5s33.166 59 56.499 80s50 36.833 80 47.5
s60.667 16 92 16c36.667 0 70.834 -7.33301 102.501 -22s58.5 -36 80.5 -64c21.333 29.333 47.333 51.166 78 65.499s63 21.5 97 21.5zM419 245.001c0 20 -3.16602 38.5 -9.49902 55.5s-15.5 31.667 -27.5 44s-26.333 22.166 -43 29.499s-35.334 11 -56.001 11
c-20 0 -38.167 -3.66699 -54.5 -11s-30.5 -17.166 -42.5 -29.499s-21.167 -27 -27.5 -44s-9.5 -35.5 -9.5 -55.5c0 -19.333 3.16699 -37.333 9.5 -54s15.5 -31.167 27.5 -43.5s26.167 -22 42.5 -29s34.5 -10.5 54.5 -10.5c41.333 0 74.333 12.833 99 38.5s37 58.5 37 98.5z
M754.001 284.001c0 8.66699 -1.16699 19.833 -3.5 33.5s-7.33301 26.667 -15 39s-19 23 -34 32s-35.167 13.5 -60.5 13.5c-28 0 -52 -10.833 -72 -32.5s-33.667 -50.167 -41 -85.5h226z" />
    <glyph glyph-name="Racute" unicode="&#x154;" horiz-adv-x="678" 
d="M465 0l-71.001 111l-30.5 46l-30 46l-28 41.5l-23.5 33.5h-99l-1 -278h-128v701h319c33.333 0 64 -5 92 -15s52 -24 72 -42s35.667 -39.667 47 -65s17 -53 17 -83c0 -28 -4.83301 -54.167 -14.5 -78.5s-23 -45.833 -40 -64.5s-36.667 -34 -59 -46
s-46.166 -19.667 -71.499 -23l9 -4l169 -268v-12h-129zM481.999 494c0 25.333 -8.33203 46.667 -24.999 64s-43.334 26 -80.001 26h-194v-184l185 -2c36 0 64 9.5 84 28.5s30 41.5 30 67.5zM476 963.001l-189 -174h-81l138 182h127z" />
    <glyph glyph-name="racute" unicode="&#x155;" horiz-adv-x="424" 
d="M347 354c-16.667 19.333 -40.666 29.001 -71.999 29.001c-10.667 0 -21.334 -2.33301 -32.001 -7s-20.667 -10.834 -30 -18.501s-18.166 -16 -26.499 -25s-15.833 -17.833 -22.5 -26.5v-306h-114v490h114v-59c15.333 17.333 33.833 33 55.5 47s43.167 21 64.5 21
c15.333 0 31.666 -2.33301 48.999 -7s34.333 -12 51 -22zM350.001 752.001l-189 -174h-81l138 182h127z" />
    <glyph glyph-name="Rcommaaccent" unicode="&#x156;" horiz-adv-x="678" 
d="M465 0l-71.001 111l-30.5 46l-30 46l-28 41.5l-23.5 33.5h-99l-1 -278h-128v701h319c33.333 0 64 -5 92 -15s52 -24 72 -42s35.667 -39.667 47 -65s17 -53 17 -83c0 -28 -4.83301 -54.167 -14.5 -78.5s-23 -45.833 -40 -64.5s-36.667 -34 -59 -46
s-46.166 -19.667 -71.499 -23l9 -4l169 -268v-12h-129zM481.999 494c0 25.333 -8.33203 46.667 -24.999 64s-43.334 26 -80.001 26h-194v-184l185 -2c36 0 64 9.5 84 28.5s30 41.5 30 67.5zM422 -118.999c0 -20 -3.83203 -39.168 -11.499 -57.501s-18 -35.166 -31 -50.499
s-27.667 -28.833 -44 -40.5s-33.5 -20.5 -51.5 -26.5l-21 33c6.66699 4 14.5 10 23.5 18s17.5 16.667 25.5 26s14.833 18.833 20.5 28.5s8.5 17.834 8.5 24.501c0 3.33301 -0.333008 5.66602 -1 6.99902c-6 -2.66699 -13.333 -4 -22 -4c-12.667 0 -22.667 6.16699 -30 18.5
s-11 26.833 -11 43.5c0 19.333 7.16699 34.5 21.5 45.5s30.166 16.5 47.499 16.5c24 0 42.667 -7.33301 56 -22s20 -34.667 20 -60z" />
    <glyph glyph-name="rcommaaccent" unicode="&#x157;" horiz-adv-x="424" 
d="M347 354c-16.667 19.333 -40.666 29.001 -71.999 29.001c-10.667 0 -21.334 -2.33301 -32.001 -7s-20.667 -10.834 -30 -18.501s-18.166 -16 -26.499 -25s-15.833 -17.833 -22.5 -26.5v-306h-114v490h114v-59c15.333 17.333 33.833 33 55.5 47s43.167 21 64.5 21
c15.333 0 31.666 -2.33301 48.999 -7s34.333 -12 51 -22zM194.001 -112.999c0 -20 -3.83203 -39.168 -11.499 -57.501s-18 -35.166 -31 -50.499s-27.667 -28.833 -44 -40.5s-33.5 -20.5 -51.5 -26.5l-21 33c6.66699 4 14.5 10 23.5 18s17.5 16.667 25.5 26
s14.833 18.833 20.5 28.5s8.5 17.834 8.5 24.501c0 3.33301 -0.333008 5.66602 -1 6.99902c-6 -2.66699 -13.333 -4 -22 -4c-12.667 0 -22.667 6.16699 -30 18.5s-11 26.833 -11 43.5c0 19.333 7.16699 34.5 21.5 45.5s30.166 16.5 47.499 16.5c24 0 42.667 -7.33301 56 -22
s20 -34.667 20 -60z" />
    <glyph glyph-name="Rcaron" unicode="&#x158;" horiz-adv-x="678" 
d="M465 0l-71.001 111l-30.5 46l-30 46l-28 41.5l-23.5 33.5h-99l-1 -278h-128v701h319c33.333 0 64 -5 92 -15s52 -24 72 -42s35.667 -39.667 47 -65s17 -53 17 -83c0 -28 -4.83301 -54.167 -14.5 -78.5s-23 -45.833 -40 -64.5s-36.667 -34 -59 -46
s-46.166 -19.667 -71.499 -23l9 -4l169 -268v-12h-129zM481.999 494c0 25.333 -8.33203 46.667 -24.999 64s-43.334 26 -80.001 26h-194v-184l185 -2c36 0 64 9.5 84 28.5s30 41.5 30 67.5zM382 830.001h-77l-133 150h94l76 -86l74 86h94z" />
    <glyph glyph-name="rcaron" unicode="&#x159;" horiz-adv-x="424" 
d="M347 354c-16.667 19.333 -40.666 29.001 -71.999 29.001c-10.667 0 -21.334 -2.33301 -32.001 -7s-20.667 -10.834 -30 -18.501s-18.166 -16 -26.499 -25s-15.833 -17.833 -22.5 -26.5v-306h-114v490h114v-59c15.333 17.333 33.833 33 55.5 47s43.167 21 64.5 21
c15.333 0 31.666 -2.33301 48.999 -7s34.333 -12 51 -22zM256.001 619.001h-77l-133 150h94l76 -86l74 86h94z" />
    <glyph glyph-name="Sacute" unicode="&#x15a;" horiz-adv-x="644" 
d="M599 214c0 -44.667 -9.66992 -81.332 -29.0029 -109.999s-43.333 -51.5 -72 -68.5s-59.667 -28.833 -93 -35.5s-64 -10 -92 -10c-25.333 0 -48.833 1.83301 -70.5 5.5s-42.834 9.33398 -63.501 17.001s-41.667 17.5 -63 29.5s-44 26.333 -68 43l40 112
c46 -28 86.167 -49.5 120.5 -64.5s65.5 -22.5 93.5 -22.5c17.333 0 35.833 1.83301 55.5 5.5s38 9.5 55 17.5s31.167 18.667 42.5 32s17 29.666 17 48.999c0 16 -4.66699 29 -14 39s-22.166 18.333 -38.499 25s-35.333 11.834 -57 15.501s-44.5 7.16699 -68.5 10.5
c-29.333 4 -59.166 9 -89.499 15s-57.666 16 -81.999 30s-44.166 33.167 -59.499 57.5s-23 56.833 -23 97.5c0 44 9.5 80 28.5 108s42.5 49.833 70.5 65.5s58.167 26.5 90.5 32.5s61.833 9 88.5 9c94 0 181.667 -29.667 263 -89l-37 -102
c-36 23.333 -73.667 41.166 -113 53.499s-77 18.5 -113 18.5c-28.667 0 -52.834 -2.66699 -72.501 -8s-35.5 -12.333 -47.5 -21s-20.5 -18.334 -25.5 -29.001s-7.5 -21.334 -7.5 -32.001c0 -18 6.66699 -31.833 20 -41.5s29 -17 47 -22s36.333 -8.33301 55 -10
s33 -3.16699 43 -4.5c18.667 -2 38.334 -4.5 59.001 -7.5s41 -7.5 61 -13.5s39 -14 57 -24s33.833 -22.667 47.5 -38s24.5 -34.166 32.5 -56.499s12 -48.5 12 -78.5zM520.997 940.002l-189 -174h-81l138 182h127z" />
    <glyph glyph-name="sacute" unicode="&#x15b;" horiz-adv-x="508" 
d="M249 -7c-20.667 0 -39.5029 1.16211 -56.5029 3.49512s-33.5 6 -49.5 11s-31.833 11.667 -47.5 20s-32.5 18.5 -50.5 30.5l39 90c29.333 -19.333 55.833 -33.5 79.5 -42.5s52.167 -13.5 85.5 -13.5c6 0 15 0.666992 27 2s24 4 36 8s22.5 9.66699 31.5 17s13.5 17 13.5 29
c0 10 -4.16699 17.833 -12.5 23.5s-18.166 10 -29.499 13s-22.666 4.83301 -33.999 5.5s-20.333 1 -27 1c-19.333 0 -41.833 1.33301 -67.5 4s-50 8.83398 -73 18.501s-42.5 24 -58.5 43s-24 45.167 -24 78.5c0 34 7.5 61.833 22.5 83.5s33.5 38.5 55.5 50.5
s46 20.167 72 24.5s50 6.5 72 6.5c46 0 84.333 -6.66699 115 -20s58.667 -33.666 84 -60.999l-42 -76c-23.333 18 -47.666 32 -72.999 42s-53.333 15 -84 15c-8.66699 0 -19.5 -0.333008 -32.5 -1s-25.667 -2.66699 -38 -6s-22.833 -9.16602 -31.5 -17.499
s-13 -19.833 -13 -34.5c0 -10.667 4.83301 -19 14.5 -25s21 -10.5 34 -13.5s26 -4.83301 39 -5.5s22.5 -1 28.5 -1c19.333 0 41.5 -1.83301 66.5 -5.5s48.5 -10.667 70.5 -21s40.667 -25.166 56 -44.499s23 -44.666 23 -75.999c0 -32 -7.83301 -58 -23.5 -78
s-34.667 -35.833 -57 -47.5s-46.333 -19.667 -72 -24s-48.5 -6.5 -68.5 -6.5zM444.997 757.995l-189 -174h-81l138 182h127z" />
    <glyph glyph-name="Scaron" unicode="&#x160;" horiz-adv-x="622" 
d="M591 214c0 -44.667 -9.66992 -81.332 -29.0029 -109.999s-43.333 -51.5 -72 -68.5s-59.667 -28.833 -93 -35.5s-64 -10 -92 -10c-25.333 0 -48.833 1.83301 -70.5 5.5s-42.834 9.33398 -63.501 17.001s-41.667 17.5 -63 29.5s-44 26.333 -68 43l40 112
c46 -28 86.167 -49.5 120.5 -64.5s65.5 -22.5 93.5 -22.5c17.333 0 35.833 1.83301 55.5 5.5s38 9.5 55 17.5s31.167 18.667 42.5 32s17 29.666 17 48.999c0 16 -4.66699 29 -14 39s-22.166 18.333 -38.499 25s-35.333 11.834 -57 15.501s-44.5 7.16699 -68.5 10.5
c-29.333 4 -59.166 9 -89.499 15s-57.666 16 -81.999 30s-44.166 33.167 -59.499 57.5s-23 56.833 -23 97.5c0 44 9.5 80 28.5 108s42.5 49.833 70.5 65.5s58.167 26.5 90.5 32.5s61.833 9 88.5 9c94 0 181.667 -29.667 263 -89l-37 -102
c-36 23.333 -73.667 41.166 -113 53.499s-77 18.5 -113 18.5c-28.667 0 -52.834 -2.66699 -72.501 -8s-35.5 -12.333 -47.5 -21s-20.5 -18.334 -25.5 -29.001s-7.5 -21.334 -7.5 -32.001c0 -18 6.66699 -31.833 20 -41.5s29 -17 47 -22s36.333 -8.33301 55 -10
s33 -3.16699 43 -4.5c18.667 -2 38.334 -4.5 59.001 -7.5s41 -7.5 61 -13.5s39 -14 57 -24s33.833 -22.667 47.5 -38s24.5 -34.166 32.5 -56.499s12 -48.5 12 -78.5zM357.997 762.002h-77l-133 150h94l76 -86l74 86h94z" />
    <glyph glyph-name="scaron" unicode="&#x161;" horiz-adv-x="505" 
d="M250 -7c-20.667 0 -39.5029 1.16211 -56.5029 3.49512s-33.5 6 -49.5 11s-31.833 11.667 -47.5 20s-32.5 18.5 -50.5 30.5l39 90c29.333 -19.333 55.833 -33.5 79.5 -42.5s52.167 -13.5 85.5 -13.5c6 0 15 0.666992 27 2s24 4 36 8s22.5 9.66699 31.5 17s13.5 17 13.5 29
c0 10 -4.16699 17.833 -12.5 23.5s-18.166 10 -29.499 13s-22.666 4.83301 -33.999 5.5s-20.333 1 -27 1c-19.333 0 -41.833 1.33301 -67.5 4s-50 8.83398 -73 18.501s-42.5 24 -58.5 43s-24 45.167 -24 78.5c0 34 7.5 61.833 22.5 83.5s33.5 38.5 55.5 50.5
s46 20.167 72 24.5s50 6.5 72 6.5c46 0 84.333 -6.66699 115 -20s58.667 -33.666 84 -60.999l-42 -76c-23.333 18 -47.666 32 -72.999 42s-53.333 15 -84 15c-8.66699 0 -19.5 -0.333008 -32.5 -1s-25.667 -2.66699 -38 -6s-22.833 -9.16602 -31.5 -17.499
s-13 -19.833 -13 -34.5c0 -10.667 4.83301 -19 14.5 -25s21 -10.5 34 -13.5s26 -4.83301 39 -5.5s22.5 -1 28.5 -1c19.333 0 41.5 -1.83301 66.5 -5.5s48.5 -10.667 70.5 -21s40.667 -25.166 56 -44.499s23 -44.666 23 -75.999c0 -32 -7.83301 -58 -23.5 -78
s-34.667 -35.833 -57 -47.5s-46.333 -19.667 -72 -24s-48.5 -6.5 -68.5 -6.5zM277.997 550.995h-77l-133 150h94l76 -86l74 86h94z" />
    <glyph glyph-name="Tcaron" unicode="&#x164;" horiz-adv-x="671" 
d="M397 586v-586h-129l-1 586h-238v115h606v-115h-238zM369 764h-77l-133 150h94l76 -86l74 86h94z" />
    <glyph glyph-name="tcaron" unicode="&#x165;" horiz-adv-x="408" 
d="M301 536l-82 1l29 231h105zM374 82c-25.333 -27.333 -49.498 -47.8301 -72.498 -61.4971s-46.167 -20.5 -69.5 -20.5c-17.333 0 -33.833 2.5 -49.5 7.5s-31.834 14.5 -48.501 28.5c-18.667 15.333 -33.834 37 -45.501 65s-17.5 55.667 -17.5 83v212h-67v94h67v96l112 55
v-151h160v-94h-160v-190c0 -30.667 8.66699 -54.667 26 -72c10.667 -8.66699 25.667 -13 45 -13c2.66699 0 7.16699 0.666992 13.5 2s13.166 3.66602 20.499 6.99902s14.833 7.66602 22.5 12.999s14.834 11.666 21.501 18.999z" />
    <glyph glyph-name="Umacron" unicode="&#x16a;" horiz-adv-x="706" 
d="M53 701l125.999 0.000976562v-354c0 -44 4.33301 -80.667 13 -110s20.5 -52.833 35.5 -70.5s33 -30 54 -37s44.167 -10.5 69.5 -10.5c23.333 0 45.166 4.5 65.499 13.5s38 23 53 42s26.833 43.167 35.5 72.5s13 64.333 13 105l-1 349h127v-342
c0 -57.333 -6.66699 -108.833 -20 -154.5s-32.666 -84.5 -57.999 -116.5s-56.166 -56.5 -92.499 -73.5s-77.166 -25.5 -122.499 -25.5c-46.667 0 -88.5 8.5 -125.5 25.5s-68.333 41.167 -94 72.5s-45.334 69.166 -59.001 113.499s-20.5 93.833 -20.5 148.5zM160.999 769.001
v79h375v-79h-375z" />
    <glyph glyph-name="umacron" unicode="&#x16b;" horiz-adv-x="522" 
d="M356 53c-14.667 -15.333 -32.499 -29.332 -53.499 -41.999s-45.5 -19 -73.5 -19c-26 0 -50 4.33301 -72 13s-40.833 20.667 -56.5 36s-28 33.5 -37 54.5s-13.5 43.5 -13.5 67.5v327h113v-304c0 -10 1.16699 -20 3.5 -30s6.16602 -18.833 11.499 -26.5
s12.833 -13.834 22.5 -18.501s21.834 -7 36.501 -7c10 0 20.167 2 30.5 6s20.666 9 30.999 15s20.5 12.833 30.5 20.5s19 15.5 27 23.5v321h115v-490h-102l-13 52v1zM72.001 622.001v79h375v-79h-375z" />
    <glyph glyph-name="Uring" unicode="&#x16e;" horiz-adv-x="706" 
d="M53 701l125.999 0.000976562v-354c0 -44 4.33301 -80.667 13 -110s20.5 -52.833 35.5 -70.5s33 -30 54 -37s44.167 -10.5 69.5 -10.5c23.333 0 45.166 4.5 65.499 13.5s38 23 53 42s26.833 43.167 35.5 72.5s13 64.333 13 105l-1 349h127v-342
c0 -57.333 -6.66699 -108.833 -20 -154.5s-32.666 -84.5 -57.999 -116.5s-56.166 -56.5 -92.499 -73.5s-77.166 -25.5 -122.499 -25.5c-46.667 0 -88.5 8.5 -125.5 25.5s-68.333 41.167 -94 72.5s-45.334 69.166 -59.001 113.499s-20.5 93.833 -20.5 148.5zM474.999 865.001
c0 -16.667 -3.33301 -32.5 -10 -47.5s-15.834 -28 -27.501 -39s-25.334 -19.833 -41.001 -26.5s-32.167 -10 -49.5 -10c-18 0 -34.667 3.33301 -50 10s-28.666 15.5 -39.999 26.5s-20.333 24 -27 39s-10 30.833 -10 47.5s3.33301 32.5 10 47.5s15.667 28.167 27 39.5
s24.666 20.166 39.999 26.499s32 9.5 50 9.5c17.333 0 33.833 -3.16699 49.5 -9.5s29.334 -15.166 41.001 -26.499s20.834 -24.5 27.501 -39.5s10 -30.833 10 -47.5zM411.999 865.001c0 19.333 -6.33301 36 -19 50s-28 21 -46 21s-33.333 -7 -46 -21s-19 -30.667 -19 -50
s6.33301 -35.833 19 -49.5s28 -20.5 46 -20.5s33.333 6.83301 46 20.5s19 30.167 19 49.5z" />
    <glyph glyph-name="uring" unicode="&#x16f;" horiz-adv-x="522" 
d="M356 53c-14.667 -15.333 -32.499 -29.332 -53.499 -41.999s-45.5 -19 -73.5 -19c-26 0 -50 4.33301 -72 13s-40.833 20.667 -56.5 36s-28 33.5 -37 54.5s-13.5 43.5 -13.5 67.5v327h113v-304c0 -10 1.16699 -20 3.5 -30s6.16602 -18.833 11.499 -26.5
s12.833 -13.834 22.5 -18.501s21.834 -7 36.501 -7c10 0 20.167 2 30.5 6s20.666 9 30.999 15s20.5 12.833 30.5 20.5s19 15.5 27 23.5v321h115v-490h-102l-13 52v1zM395.001 662.001c0 -16.667 -3.33301 -32.5 -10 -47.5s-15.834 -28 -27.501 -39
s-25.334 -19.833 -41.001 -26.5s-32.167 -10 -49.5 -10c-18 0 -34.667 3.33301 -50 10s-28.666 15.5 -39.999 26.5s-20.333 24 -27 39s-10 30.833 -10 47.5s3.33301 32.5 10 47.5s15.667 28.167 27 39.5s24.666 20.166 39.999 26.499s32 9.5 50 9.5
c17.333 0 33.833 -3.16699 49.5 -9.5s29.334 -15.166 41.001 -26.499s20.834 -24.5 27.501 -39.5s10 -30.833 10 -47.5zM332.001 662.001c0 19.333 -6.33301 36 -19 50s-28 21 -46 21s-33.333 -7 -46 -21s-19 -30.667 -19 -50s6.33301 -35.833 19 -49.5s28 -20.5 46 -20.5
s33.333 6.83301 46 20.5s19 30.167 19 49.5z" />
    <glyph glyph-name="Uhungarumlaut" unicode="&#x170;" horiz-adv-x="706" 
d="M53 701l125.999 0.000976562v-354c0 -44 4.33301 -80.667 13 -110s20.5 -52.833 35.5 -70.5s33 -30 54 -37s44.167 -10.5 69.5 -10.5c23.333 0 45.166 4.5 65.499 13.5s38 23 53 42s26.833 43.167 35.5 72.5s13 64.333 13 105l-1 349h127v-342
c0 -57.333 -6.66699 -108.833 -20 -154.5s-32.666 -84.5 -57.999 -116.5s-56.166 -56.5 -92.499 -73.5s-77.166 -25.5 -122.499 -25.5c-46.667 0 -88.5 8.5 -125.5 25.5s-68.333 41.167 -94 72.5s-45.334 69.166 -59.001 113.499s-20.5 93.833 -20.5 148.5zM275.999 767.001
h-68l102 133l94 1zM429.999 767.001h-69l108 131h94z" />
    <glyph glyph-name="uhungarumlaut" unicode="&#x171;" horiz-adv-x="522" 
d="M356 53c-14.667 -15.333 -32.499 -29.332 -53.499 -41.999s-45.5 -19 -73.5 -19c-26 0 -50 4.33301 -72 13s-40.833 20.667 -56.5 36s-28 33.5 -37 54.5s-13.5 43.5 -13.5 67.5v327h113v-304c0 -10 1.16699 -20 3.5 -30s6.16602 -18.833 11.499 -26.5
s12.833 -13.834 22.5 -18.501s21.834 -7 36.501 -7c10 0 20.167 2 30.5 6s20.666 9 30.999 15s20.5 12.833 30.5 20.5s19 15.5 27 23.5v321h115v-490h-102l-13 52v1zM339.001 569.001h-69l108 131h94zM185.001 569.001h-68l102 133l94 1z" />
    <glyph glyph-name="Uogonek" unicode="&#x172;" horiz-adv-x="706" 
d="M53 701h126.004v-354c0 -44 4.33301 -80.667 13 -110s20.5 -52.833 35.5 -70.5s33 -30 54 -37s44.167 -10.5 69.5 -10.5c23.333 0 45.166 4.5 65.499 13.5s38 23 53 42s26.833 43.167 35.5 72.5s13 64.333 13 105l-1 349h127v-342
c0 -79.333 -12.833 -147.166 -38.5 -203.499s-61.834 -98.833 -108.501 -127.5c-8 -10 -13.833 -20.833 -17.5 -32.5s-4.16699 -21.834 -1.5 -30.501c1.33301 -3.33301 3.5 -6.5 6.5 -9.5s8.16699 -4.5 15.5 -4.5c6 0 17.333 2.33301 34 7s34 13.334 52 26.001l2 -95
c-12.667 -7.33301 -27.667 -13 -45 -17s-34.666 -6 -51.999 -6c-28.667 0 -51.334 8.16699 -68.001 24.5s-25 38.833 -25 67.5c0 12 2 23.667 6 35c-8.66699 -1.33301 -17.334 -2.33301 -26.001 -3s-17.667 -1 -27 -1c-46.667 0 -88.5 8.5 -125.5 25.5
s-68.333 41.167 -94 72.5s-45.334 69.166 -59.001 113.499s-20.5 93.833 -20.5 148.5z" />
    <glyph glyph-name="uogonek" unicode="&#x173;" horiz-adv-x="522" 
d="M356 53c-14.667 -15.333 -32.499 -29.332 -53.499 -41.999s-45.5 -19 -73.5 -19c-26 0 -50 4.33301 -72 13s-40.833 20.667 -56.5 36s-28 33.5 -37 54.5s-13.5 43.5 -13.5 67.5v327h113v-304c0 -10 1.16699 -20 3.5 -30s6.16602 -18.833 11.499 -26.5
s12.833 -13.834 22.5 -18.501s21.834 -7 36.501 -7c10 0 20.167 2 30.5 6s20.666 9 30.999 15s20.5 12.833 30.5 20.5s19 15.5 27 23.5v321h115v-490h-62c-8 -4 -15.167 -9.5 -21.5 -16.5s-11.5 -14.667 -15.5 -23s-6.83301 -16.5 -8.5 -24.5s-1.5 -15 0.5 -21
c1.33301 -3.33301 3.5 -6.5 6.5 -9.5s8.16699 -4.5 15.5 -4.5c6 0 17.333 2.33301 34 7s34 13.334 52 26.001l2 -95c-12.667 -7.33301 -27.667 -13 -45 -17s-34.666 -6 -51.999 -6c-28.667 0 -51.334 8.16699 -68.001 24.5s-25 38.833 -25 67.5c0 11.333 2 22.666 6 33.999
s9.66699 22 17 32s15.833 18.667 25.5 26s20.167 13 31.5 17l-8 35v1v0z" />
    <glyph glyph-name="Ydieresis" unicode="&#x178;" horiz-adv-x="626" 
d="M378 265v-265h-129l-1 271l-230 430h130l171 -319l162 319h129zM466 788c0 -15.333 -5.16699 -28.666 -15.5 -39.999s-23.166 -17 -38.499 -17s-28.166 5.66699 -38.499 17s-15.5 24.666 -15.5 39.999s5.16699 28.666 15.5 39.999s23.166 17 38.499 17
s28.166 -5.66699 38.499 -17s15.5 -24.666 15.5 -39.999zM267 788c0 -15.333 -5.33301 -28.666 -16 -39.999s-23.667 -17 -39 -17c-14.667 0 -27.167 5.66699 -37.5 17s-15.5 24.666 -15.5 39.999s5.16699 28.666 15.5 39.999s22.833 17 37.5 17
c15.333 0 28.333 -5.66699 39 -17s16 -24.666 16 -39.999z" />
    <glyph glyph-name="Zacute" unicode="&#x179;" horiz-adv-x="627" 
d="M208 116h356v-116h-521v80l374 506h-365v115h525v-79zM497 935l-189 -174h-81l138 182h127z" />
    <glyph glyph-name="zacute" unicode="&#x17a;" horiz-adv-x="529" 
d="M484 451l-254 -345h254v-106h-434v35l263 350h-263v105h434v-39zM443 760l-189 -174h-81l138 182h127z" />
    <glyph glyph-name="Zdotaccent" unicode="&#x17b;" horiz-adv-x="627" 
d="M208 116h356v-116h-521v80l374 506h-365v115h525v-79zM383 840c0 -19.333 -6.5 -35.666 -19.5 -48.999s-28.5 -20 -46.5 -20c-17.333 0 -32.5 6.66699 -45.5 20s-19.5 29.666 -19.5 48.999s6.5 35.666 19.5 48.999s28.167 20 45.5 20c18 0 33.5 -6.66699 46.5 -20
s19.5 -29.666 19.5 -48.999z" />
    <glyph glyph-name="zdotaccent" unicode="&#x17c;" horiz-adv-x="529" 
d="M484 451l-254 -345h254v-106h-434v35l263 350h-263v105h434v-39zM338 639c0 -19.333 -6.5 -35.666 -19.5 -48.999s-28.5 -20 -46.5 -20c-17.333 0 -32.5 6.66699 -45.5 20s-19.5 29.666 -19.5 48.999s6.5 35.666 19.5 48.999s28.167 20 45.5 20
c18 0 33.5 -6.66699 46.5 -20s19.5 -29.666 19.5 -48.999z" />
    <glyph glyph-name="Zcaron" unicode="&#x17d;" horiz-adv-x="614" 
d="M203 116h356v-116h-521v80l374 506h-365v115h525v-79zM339 765h-77l-133 150h94l76 -86l74 86h94z" />
    <glyph glyph-name="zcaron" unicode="&#x17e;" horiz-adv-x="527" 
d="M479 451l-254 -345h254v-106h-434v35l263 350h-263v105h434v-39zM313 550h-77l-133 150h94l76 -86l74 86h94z" />
    <glyph glyph-name="florin" unicode="&#x192;" horiz-adv-x="320" 
d="M174 -60c0 -27.333 -5.66602 -55.001 -16.999 -83.001s-26.333 -49.667 -45 -65c-16 -13.333 -31.667 -22.666 -47 -27.999s-31.666 -8 -48.999 -8c-23.333 0 -45.333 5 -66 15l10 113c6 -2.66699 11.833 -4.33398 17.5 -5.00098s11.5 -1 17.5 -1
c10 0 18.5 0.833008 25.5 2.5s13.5 5.16699 19.5 10.5c7.33301 7.33301 13 17.333 17 30s6 26.667 6 42v433h-44v94h44v94c0 27.333 6 55 18 83s26.667 49.667 44 65c16.667 14 32.667 23.5 48 28.5s31.666 7.5 48.999 7.5c21.333 0 43 -4.66699 65 -14l-10 -113
c-5.33301 2.66699 -11 4.33398 -17 5.00098s-11.667 1 -17 1c-18.667 0 -33.334 -4.33301 -44.001 -13c-16.667 -16.667 -25 -40.667 -25 -72v-72h104v-94h-104v-456v0z" />
    <glyph glyph-name="circumflex" unicode="&#x2c6;" horiz-adv-x="593" 
d="M351 619l-75 86l-76 -86h-93l133 150h75l129 -150h-93z" />
    <glyph glyph-name="caron" unicode="&#x2c7;" horiz-adv-x="561" 
d="M310 619h-77l-133 150h94l76 -86l74 86h94z" />
    <glyph glyph-name="breve" unicode="&#x2d8;" horiz-adv-x="557" 
d="M420 755c-3.33301 -16.667 -9.49902 -33.8359 -18.499 -51.5029s-20.167 -33.667 -33.5 -48s-28.666 -26 -45.999 -35s-36 -13.5 -56 -13.5c-19.333 0 -37.333 4.5 -54 13.5s-31.667 20.5 -45 34.5s-24.5 29.833 -33.5 47.5s-15.5 35.167 -19.5 52.5l43 11
c3.33301 -9.33301 9 -18.666 17 -27.999s17 -17.666 27 -24.999s20.667 -13.333 32 -18s22.333 -7 33 -7c9.33301 0 19.666 2.16699 30.999 6.5s22.166 9.83301 32.499 16.5s19.333 14.334 27 23.001s13.167 17.667 16.5 27l47 -6v0z" />
    <glyph glyph-name="dotaccent" unicode="&#x2d9;" horiz-adv-x="286" 
d="M212 678c0 -19.333 -6.5 -35.666 -19.5 -48.999s-28.5 -20 -46.5 -20c-17.333 0 -32.5 6.66699 -45.5 20s-19.5 29.666 -19.5 48.999s6.5 35.666 19.5 48.999s28.167 20 45.5 20c18 0 33.5 -6.66699 46.5 -20s19.5 -29.666 19.5 -48.999z" />
    <glyph glyph-name="ring" unicode="&#x2da;" horiz-adv-x="588" 
d="M403 683c0 -16.667 -3.33301 -32.5 -10 -47.5s-15.834 -28 -27.501 -39s-25.334 -19.833 -41.001 -26.5s-32.167 -10 -49.5 -10c-18 0 -34.667 3.33301 -50 10s-28.666 15.5 -39.999 26.5s-20.333 24 -27 39s-10 30.833 -10 47.5s3.33301 32.5 10 47.5
s15.667 28.167 27 39.5s24.666 20.166 39.999 26.499s32 9.5 50 9.5c17.333 0 33.833 -3.16699 49.5 -9.5s29.334 -15.166 41.001 -26.499s20.834 -24.5 27.501 -39.5s10 -30.833 10 -47.5zM340 683c0 19.333 -6.33301 36 -19 50s-28 21 -46 21s-33.333 -7 -46 -21
s-19 -30.667 -19 -50s6.33301 -35.833 19 -49.5s28 -20.5 46 -20.5s33.333 6.83301 46 20.5s19 30.167 19 49.5z" />
    <glyph glyph-name="ogonek" unicode="&#x2db;" horiz-adv-x="543" 
d="M253 24c-9.33301 -3.33301 -17.5 -8.49902 -24.5 -15.499s-13 -14.833 -18 -23.5s-8.5 -17.334 -10.5 -26.001s-2 -16.334 0 -23.001c1.33301 -3.33301 3.5 -6.5 6.5 -9.5s8.16699 -4.5 15.5 -4.5c6 0 17.333 2.33301 34 7s34 13.334 52 26.001l2 -95
c-12.667 -7.33301 -27.667 -13 -45 -17s-34.666 -6 -51.999 -6c-28.667 0 -51.334 8.16699 -68.001 24.5s-25 38.833 -25 67.5c0 11.333 2.16699 22.833 6.5 34.5s10.333 22.5 18 32.5s16.5 18.833 26.5 26.5s21 13.167 33 16.5z" />
    <glyph glyph-name="tilde" unicode="&#x2dc;" horiz-adv-x="548" 
d="M444 736c-8.66699 -21.333 -18.999 -40.3291 -30.999 -56.9961c-10 -14.667 -21.833 -27.834 -35.5 -39.501s-28.834 -17.5 -45.501 -17.5s-31.667 3.33301 -45 10s-25.5 14 -36.5 22l-31 22c-9.66699 6.66699 -19.167 10 -28.5 10c-18.667 0 -33.667 -5.66699 -45 -17
s-20 -25 -26 -41l-39 16c6.66699 22.667 15.334 42.667 26.001 60c9.33301 15.333 20.5 29.166 33.5 41.499s28.5 18.5 46.5 18.5c17.333 0 32.666 -3.33301 45.999 -10s25.5 -13.834 36.5 -21.501l30.5 -21.5c9.33301 -6.66699 19 -10 29 -10c17.333 0 33 5.66699 47 17
s24.667 23.666 32 36.999l36 -19v0z" />
    <glyph glyph-name="hungarumlaut" unicode="&#x2dd;" horiz-adv-x="571" 
d="M351 612h-69l108 131h94zM197 612h-68l102 133l94 1z" />
    <glyph glyph-name="Delta" unicode="&#x394;" horiz-adv-x="689" 
d="M21 0l276 703h105l264 -703h-645zM344 532h-1l-160 -424h316z" />
    <glyph glyph-name="Delta" unicode="&#x2206;" horiz-adv-x="689" 
d="M21 0l276 703h105l264 -703h-645zM344 532h-1l-160 -424h316z" />
    <glyph glyph-name="pi" unicode="&#x3c0;" horiz-adv-x="631" 
d="M114 0v401h-96v89h585v-89h-94v-401h-112v401h-171v-401h-112z" />
    <glyph glyph-name="afii10023" unicode="&#x401;" horiz-adv-x="606" 
d="M51 0l1 700h480v-113h-356v-35c0 -17.333 -0.166992 -35.833 -0.5 -55.5s-0.5 -38.167 -0.5 -55.5v-36h296v-110h-295v-181h367v-114h-492zM444 816c0 -16.667 -5.66504 -30.667 -16.998 -42s-24.666 -17 -39.999 -17c-14.667 0 -27.834 5.66699 -39.501 17
s-17.5 25.333 -17.5 42c0 17.333 5.66699 31.5 17 42.5s24.666 16.5 39.999 16.5s28.666 -5.5 39.999 -16.5s17 -25.167 17 -42.5zM266.002 816c0 -16.667 -5.5 -30.667 -16.5 -42s-24.167 -17 -39.5 -17s-28.666 5.66699 -39.999 17s-17 25.333 -17 42
c0 17.333 5.66699 31.5 17 42.5s24.666 16.5 39.999 16.5s28.5 -5.5 39.5 -16.5s16.5 -25.167 16.5 -42.5z" />
    <glyph glyph-name="afii10051" unicode="&#x402;" horiz-adv-x="716" 
d="M319 593l0.000976562 -148.997c18 14.667 40 27.667 66 39s51.333 17 76 17c64 0 113.167 -15.5 147.5 -46.5s51.5 -82.833 51.5 -155.5c0 -52 0.166992 -104 0.5 -156s0.5 -103.333 0.5 -154c0 -28.667 -5.33301 -54.5 -16 -77.5s-24.667 -42.5 -42 -58.5
s-37.5 -28.333 -60.5 -37s-46.5 -13 -70.5 -13c-11.333 0 -24 1.33301 -38 4s-32.333 7.66699 -55 15c2 16.667 4.33301 33.667 7 51l8 52c15.333 -4.66699 28 -7.83398 38 -9.50098s18.333 -2.5 25 -2.5c22 0 41 7.16699 57 21.5s24.667 34.166 26 59.499v286
c0 14 -1.16699 27.167 -3.5 39.5s-6.5 23.166 -12.5 32.499s-14.333 16.833 -25 22.5s-24.334 8.5 -41.001 8.5c-24.667 0 -48.5 -6 -71.5 -18s-45.5 -28.333 -67.5 -49v-315h-122v593h-187v107h559v-107h-250z" />
    <glyph glyph-name="afii10052" unicode="&#x403;" horiz-adv-x="562" 
d="M537 699v-116h-358v-582h-125v698h483zM279 740h-90l159 172h100l29 -8z" />
    <glyph glyph-name="afii10053" unicode="&#x404;" horiz-adv-x="666" 
d="M644 87c-16.667 -12.667 -34.8359 -25.001 -54.5029 -37.001s-40.667 -22.5 -63 -31.5s-46 -16.167 -71 -21.5s-51.167 -8 -78.5 -8c-43.333 0 -85.666 7.83301 -126.999 23.5s-78 38.667 -110 69s-57.833 68 -77.5 113s-29.5 97.167 -29.5 156.5
c0 54.667 9.66699 104.334 29 149.001s44.833 82.834 76.5 114.501s67.834 56 108.501 73s82.667 25.5 126 25.5c50 0 95.667 -8.16699 137 -24.5s81 -37.833 119 -64.5l-55 -100c-30 21.333 -61.5 38.5 -94.5 51.5s-67.5 19.5 -103.5 19.5
c-23.333 0 -46.833 -4.16699 -70.5 -12.5s-45.5 -20.333 -65.5 -36s-36.833 -35 -50.5 -58s-22.5 -49.5 -26.5 -79.5h314v-114h-315c4 -30.667 13.333 -57.834 28 -81.501s32.167 -43.5 52.5 -59.5s42.333 -28.167 66 -36.5s46.834 -12.5 69.501 -12.5c37.333 0 74 8 110 24
s68 34 96 54z" />
    <glyph glyph-name="afii10054" unicode="&#x405;" horiz-adv-x="630" 
d="M579 212c0 -44.667 -9.83105 -81.1699 -29.498 -109.503s-43.667 -50.666 -72 -66.999s-58.833 -27.666 -91.5 -33.999s-62 -9.5 -88 -9.5c-24 0 -46.667 1.83301 -68 5.5s-42.333 9.16699 -63 16.5s-41.167 16.833 -61.5 28.5s-41.833 25.5 -64.5 41.5l41 105
c43.333 -26 81.833 -46.167 115.5 -60.5s64.5 -21.5 92.5 -21.5c18.667 0 38 2 58 6s38.5 10.167 55.5 18.5s31 19.166 42 32.499s16.5 29.333 16.5 48s-6 33.5 -18 44.5s-26.667 19.5 -44 25.5s-35.333 10.5 -54 13.5s-34.334 5.83301 -47.001 8.5
c-28.667 4 -58.334 9.5 -89.001 16.5s-58.667 17.667 -84 32s-46.166 33.666 -62.499 57.999s-24.5 55.5 -24.5 93.5c0 42.667 9 77.667 27 105s40.5 49 67.5 65s56.167 27 87.5 33s60 9 86 9c90.667 0 177 -31.333 259 -94l-44 -98c-72.667 50.667 -144.334 76 -215.001 76
c-27.333 0 -50.5 -2.66699 -69.5 -8s-34.833 -12.333 -47.5 -21s-21.834 -18.5 -27.501 -29.5s-8.5 -22.167 -8.5 -33.5s3.5 -21.166 10.5 -29.499s15.833 -15.333 26.5 -21s22.334 -10.5 35.001 -14.5s25 -7.33301 37 -10c14.667 -3.33301 32.667 -6.33301 54 -9
s43.833 -6.16699 67.5 -10.5s47 -10.666 70 -18.999s43.833 -20.166 62.5 -35.499s33.667 -34.833 45 -58.5s17 -53.167 17 -88.5z" />
    <glyph glyph-name="afii10055" unicode="&#x406;" horiz-adv-x="303" 
d="M84 0v700h124v-700h-124z" />
    <glyph glyph-name="afii10056" unicode="&#x407;" horiz-adv-x="298" 
d="M84 0v700h124v-700h-124zM292 813c0 -16.667 -5.66699 -30.667 -17 -42s-24.333 -17 -39 -17s-28 5.66699 -40 17s-18 25.333 -18 42c0 17.333 5.83301 31.5 17.5 42.5s25.167 16.5 40.5 16.5c14.667 0 27.667 -5.5 39 -16.5s17 -25.167 17 -42.5zM115 813
c0 -16.667 -5.66699 -30.667 -17 -42s-24.666 -17 -39.999 -17c-14.667 0 -27.834 5.66699 -39.501 17s-17.5 25.333 -17.5 42c0 17.333 5.83301 31.5 17.5 42.5s24.834 16.5 39.501 16.5c15.333 0 28.666 -5.5 39.999 -16.5s17 -25.167 17 -42.5z" />
    <glyph glyph-name="afii10057" unicode="&#x408;" horiz-adv-x="278" 
d="M217 57c0 -32 -5.50098 -62.667 -16.501 -92s-26.167 -55.166 -45.5 -77.499s-42.333 -40 -69 -53s-55.667 -19.5 -87 -19.5c-30 0 -58.333 7.33301 -85 22l21 101c14.667 -4.66699 30.334 -7 47.001 -7c22.667 0 41.167 4 55.5 12s25.5 18.833 33.5 32.5
s13.333 29.667 16 48s4 38.166 4 59.499v617h126v-643v0z" />
    <glyph glyph-name="afii10058" unicode="&#x409;" horiz-adv-x="997" 
d="M964 224c0 -41.333 -6.66309 -76.3271 -19.9961 -104.994s-30.833 -51.834 -52.5 -69.501s-46 -30.334 -73 -38.001s-54.167 -11.5 -81.5 -11.5h-242v581h-166c-2 -26 -4.33301 -58.333 -7 -97s-7.33398 -79.667 -14.001 -123s-15.5 -86.5 -26.5 -129.5
s-25.667 -81.833 -44 -116.5s-41 -62.834 -68 -84.501s-59.167 -32.5 -96.5 -32.5c-6.66699 0 -12.834 0.166992 -18.501 0.5s-15.167 2.16602 -28.5 5.49902c0 19.333 0.166992 38.666 0.5 57.999s0.5 38.666 0.5 57.999c13.333 -3.33301 23 -5.33301 29 -6
s10.333 -1 13 -1c12.667 0 24.834 5.83301 36.501 17.5s22.167 27.667 31.5 48s17.666 44 24.999 71s13.333 55.833 18 86.5c5.33301 35.333 9.66602 70.5 12.999 105.5s6 68.5 8 100.5s3.5 61.333 4.5 88s2.5 49.667 4.5 69h410v-255h119c27.333 0 54.333 -4.5 81 -13.5
s50.667 -22.5 72 -40.5s38.666 -40.833 51.999 -68.5s20 -60.167 20 -97.5zM843.004 225.006c0 19.333 -3.83105 35.833 -11.498 49.5s-17.334 24.667 -29.001 33s-24.834 14.5 -39.501 18.5s-29 6 -43 6h-100v-215h106c14.667 0 29 1.66699 43 5s26.5 9 37.5 17
s19.833 19 26.5 33s10 31.667 10 53z" />
    <glyph glyph-name="afii10059" unicode="&#x40a;" horiz-adv-x="945" 
d="M912 216c0 -41.333 -6.66602 -75.832 -19.999 -103.499s-30.833 -49.834 -52.5 -66.501s-46 -28.5 -73 -35.5s-54.167 -10.5 -81.5 -10.5h-243v311h-254v-311h-126v699h126v-270h254v270h125v-271h120c27.333 0 54.333 -4.16699 81 -12.5s50.667 -21 72 -38
s38.666 -39 51.999 -66s20 -58.833 20 -95.5zM790.001 217.001c0 20 -3.66504 36.334 -10.998 49.001s-16.833 22.667 -28.5 30s-24.834 12.333 -39.501 15s-29.334 4 -44.001 4h-100v-199h106c14.667 0 29 1.16699 43 3.5s26.5 7.16602 37.5 14.499s19.833 17.5 26.5 30.5
s10 30.5 10 52.5z" />
    <glyph glyph-name="afii10060" unicode="&#x40b;" horiz-adv-x="709" 
d="M534 0l0.000976562 278.998c0 15.333 -1.33301 29.5 -4 42.5s-7.16699 24.333 -13.5 34s-15.166 17.334 -26.499 23.001s-26 8.5 -44 8.5c-21.333 0 -44 -7.33301 -68 -22s-46 -31 -66 -49v-316h-122v592h-185v109h558v-109h-251v-144c19.333 14 40.833 26 64.5 36
s48.167 15 73.5 15c32 0 60.667 -3.66699 86 -11s46.666 -19.166 63.999 -35.499s30.666 -37.5 39.999 -63.5s14 -57.333 14 -94v-295h-120z" />
    <glyph glyph-name="afii10061" unicode="&#x40c;" horiz-adv-x="627" 
d="M372 383l-26.001 -31l25 -30l117 -149.5l116 -150.5v-22h-127l-115.5 141l-114.5 141c-4 3.33301 -9.16699 6.33301 -15.5 9s-12.166 4 -17.499 4h-36v-295h-123c0 117.333 -0.166992 234 -0.5 350s-0.5 232.667 -0.5 350h124v-290h50c8 4 15.333 9.33301 22 16
s13 13.667 19 21l206 253h130v-22zM322.999 733h-90l158 171h141z" />
    <glyph glyph-name="afii10062" unicode="&#x40e;" horiz-adv-x="651" 
d="M362 95c-7.33301 -15.333 -17.0039 -29 -29.0039 -41s-25.667 -22 -41 -30s-31.666 -14 -48.999 -18s-34.666 -6 -51.999 -6h-76v113h66c6.66699 0 13.667 0.5 21 1.5s14.333 3 21 6s12.834 6.83301 18.501 11.5s9.83398 10.667 12.501 18l-12 47l-223 483v21h124
l183 -401l90.5 200.5l90.5 200.5h126v-20zM489.996 888c0 -22 -3.99805 -42.832 -11.998 -62.499s-19.167 -37 -33.5 -52s-31.333 -26.833 -51 -35.5s-40.834 -13 -63.501 -13c-25.333 0 -48.333 4.5 -69 13.5s-38.334 21 -53.001 36s-26.167 32.333 -34.5 52
s-12.5 40.167 -12.5 61.5h79c3.33301 -23.333 12.833 -43.5 28.5 -60.5s36.167 -25.5 61.5 -25.5c10.667 0 20.667 2.5 30 7.5s17.5 11.667 24.5 20s12.833 17.666 17.5 27.999s8 20.5 10 30.5h78z" />
    <glyph glyph-name="afii10145" unicode="&#x40f;" horiz-adv-x="617" 
d="M178 700v-582h252v582h126v-700h-189v-198h-124v198h-190v700h125z" />
    <glyph glyph-name="afii10017" unicode="&#x410;" horiz-adv-x="704" 
d="M550 0l-54 148h-295c-2 -6 -5.83301 -16 -11.5 -30l-17.5 -44l-17 -44c-5.33301 -14 -9 -24 -11 -30h-123l283 702h98l274 -702h-126zM349 529l-106 -271h210z" />
    <glyph glyph-name="afii10018" unicode="&#x411;" horiz-adv-x="591" 
d="M557 224c0 -41.333 -7.33301 -76.332 -22 -104.999s-33.5 -51.834 -56.5 -69.501s-48.5 -30.334 -76.5 -38.001s-55.667 -11.5 -83 -11.5h-267v700h459v-112h-337v-146h147c27.333 0 55 -4.33301 83 -13s53.333 -22 76 -40s41.167 -40.667 55.5 -68
s21.5 -59.666 21.5 -96.999zM437 225.001c0 17.333 -3.66699 32.5 -11 45.5s-16.666 24 -27.999 33s-24 15.833 -38 20.5s-27.333 7 -40 7h-146v-216h150c13.333 0 26.666 2.16699 39.999 6.5s25.5 11 36.5 20s19.833 20.333 26.5 34s10 30.167 10 49.5z" />
    <glyph glyph-name="afii10019" unicode="&#x412;" horiz-adv-x="615" 
d="M567 195c0 -32.667 -5.66699 -61.1699 -17 -85.5029s-26.666 -44.666 -45.999 -60.999s-41.5 -28.5 -66.5 -36.5s-50.833 -12 -77.5 -12h-309v700h295c31.333 0 60 -4.5 86 -13.5s48.167 -22 66.5 -39s32.666 -37.5 42.999 -61.5s15.5 -51 15.5 -81
c0 -36.667 -8.33301 -67.167 -25 -91.5s-36.667 -43.166 -60 -56.499c0 -0.666992 0.166992 -1.16699 0.5 -1.5s0.5 -0.833008 0.5 -1.5c12.667 -6 24.667 -14.5 36 -25.5s21.333 -23.5 30 -37.5s15.5 -29.167 20.5 -45.5s7.5 -33.166 7.5 -50.499zM450 198.997
c0 27.333 -9.5 50.501 -28.5 69.501s-46.167 28.5 -81.5 28.5h-167v-188h162c36 0 64.167 8.16699 84.5 24.5s30.5 38.166 30.5 65.499zM441 496.998c0 28 -9 50.665 -27 67.998s-45 26 -81 26h-160c0 -27.333 -0.166992 -58.666 -0.5 -93.999s-0.5 -66.666 -0.5 -93.999
h159c34 0 60.833 8.66699 80.5 26s29.5 40 29.5 68z" />
    <glyph glyph-name="afii10020" unicode="&#x413;" horiz-adv-x="545" 
d="M538 700v-116h-358v-583h-126v699h484z" />
    <glyph glyph-name="afii10021" unicode="&#x414;" horiz-adv-x="740" 
d="M93 116c18.667 32 34.333 68.833 47 110.5s23 87.167 31 136.5s14 102.333 18 159s6.66699 116 8 178h421v-584h83v-274h-124v158h-424v-158h-122v274h62zM317.999 582c-2.66699 -45.333 -6.33203 -89.833 -10.999 -133.5s-10.834 -85.667 -18.501 -126
s-16.5 -78 -26.5 -113s-21.667 -66.167 -35 -93.5h264v466h-173z" />
    <glyph glyph-name="afii10022" unicode="&#x415;" horiz-adv-x="609" 
d="M54 0v700h481v-113h-356v-35c0 -17.333 -0.166992 -35.833 -0.5 -55.5s-0.5 -38.167 -0.5 -55.5v-36h295v-110h-294v-181h367v-114h-492z" />
    <glyph glyph-name="afii10024" unicode="&#x416;" horiz-adv-x="1011" 
d="M961 23v-23h-131l-211 296h-57v-296h-122v296h-58l-210 -296h-131v23l244 333l-243 322v22h131l212 -289h55v289h122v-289h55l212 289h130v-22l-242 -322z" />
    <glyph glyph-name="afii10025" unicode="&#x417;" horiz-adv-x="583" 
d="M297 403c32 0 57.6641 8.99805 76.9971 26.998s29 40 29 66c0 28 -9.83301 51 -29.5 69s-45.5 27 -77.5 27c-30 0 -62.667 -5.16699 -98 -15.5s-74.666 -28.833 -117.999 -55.5c-8 16.667 -15.5 33.334 -22.5 50.001s-14.5 33.667 -22.5 51
c38.667 27.333 78.334 48.333 119.001 63s88.334 22 143.001 22c32.667 0 63.167 -4.16699 91.5 -12.5s53 -20.833 74 -37.5s37.5 -37.167 49.5 -61.5s18 -52.5 18 -84.5c0 -35.333 -8.83301 -66 -26.5 -92s-43.5 -47.667 -77.5 -65v-3
c34.667 -11.333 63 -30.666 85 -57.999s33 -59 33 -95c0 -35.333 -6.5 -66 -19.5 -92s-30.5 -47.5 -52.5 -64.5s-47.833 -29.667 -77.5 -38s-61.167 -12.5 -94.5 -12.5c-32.667 0 -61.334 2.33301 -86.001 7s-47.167 11 -67.5 19s-39.833 17.667 -58.5 29l-59 37l20 50.5
l21 50.5c40.667 -26 80.334 -45.5 119.001 -58.5s74.667 -19.5 108 -19.5c35.333 0 64 8.16699 86 24.5s33 38.5 33 66.5c0 26.667 -10.833 49.5 -32.5 68.5s-50.5 28.5 -86.5 28.5h-113c-1.33301 9.33301 -2 18.5 -2 27.5v27.5v27c0 8.66699 0.666992 17.667 2 27h113z" />
    <glyph glyph-name="afii10026" unicode="&#x418;" horiz-adv-x="676" 
d="M53 -1v701h123v-449l41 53.5l61 79.5l71 92.5l70.5 92.5l60.5 79l40 52h94v-700h-125v458l-353 -459h-83z" />
    <glyph glyph-name="afii10027" unicode="&#x419;" horiz-adv-x="676" 
d="M53 -1v701h122v-449l41.5 53.5l61 79.5l71 92.5l71 92.5l60.5 79l40 52h94v-700h-125v458l-353 -459h-83zM515 879c0 -22 -4.16895 -42.835 -12.502 -62.502s-19.833 -37 -34.5 -52s-32 -26.833 -52 -35.5s-41.667 -13 -65 -13c-25.333 0 -48.666 4.5 -69.999 13.5
s-39.666 21 -54.999 36s-27.166 32.333 -35.499 52s-12.5 40.167 -12.5 61.5h90c3.33301 -21.333 12 -39.666 26 -54.999s32.667 -23 56 -23c20.667 0 37.667 7.33301 51 22s21.666 33.334 24.999 56.001h89z" />
    <glyph glyph-name="afii10028" unicode="&#x41a;" horiz-adv-x="627" 
d="M348 352l128 -164l128 -166v-22h-127l-241 295h-58v-295h-124v699h124v-289h62l117.5 145l117.5 144h130v-22z" />
    <glyph glyph-name="afii10029" unicode="&#x41b;" horiz-adv-x="686" 
d="M497 0l0.00390625 584.002h-178l-7.5 -96c-3 -38.667 -8 -79.667 -15 -123s-16.333 -86.833 -28 -130.5s-26.834 -83.167 -45.501 -118.5s-41.667 -64 -69 -86s-59.666 -33 -96.999 -33h-15.5c-4.33301 0 -12.833 1.66699 -25.5 5c0 19.333 0.166992 39 0.5 59
s0.5 39.667 0.5 59c9.33301 -2.66699 17.166 -4.33398 23.499 -5.00098s12.166 -1 17.499 -1c18.667 0 35.167 10.333 49.5 31s26.666 47.667 36.999 81s19.166 71.166 26.499 113.499s13.333 85.333 18 129s8.5 85.667 11.5 126s5.16699 75.5 6.5 105.5h417v-700h-127z" />
    <glyph glyph-name="afii10030" unicode="&#x41c;" horiz-adv-x="898" 
d="M733 0l-53 440l-225 -433h-54l-198 437c0 -9.33301 -0.333008 -18.333 -1 -27s-1.66699 -17 -3 -25l-25 -196.5l-23 -195.5h-117l70 700c17.333 0 34.5 0.166992 51.5 0.5s34.167 0.5 51.5 0.5l233 -495l130 247l130 248c14 0 27.833 -0.166992 41.5 -0.5
s27.5 -0.5 41.5 -0.5l67 -700h-117z" />
    <glyph glyph-name="afii10031" unicode="&#x41d;" horiz-adv-x="663" 
d="M476 0v284h-295v-284h-126v700h127v-297h294v297h125v-700h-125z" />
    <glyph glyph-name="afii10032" unicode="&#x41e;" horiz-adv-x="776" 
d="M736 347c0 -58 -10.001 -109.498 -30.001 -154.498s-46.333 -83 -79 -114s-70 -54.5 -112 -70.5s-85 -24 -129 -24s-87 8.16699 -129 24.5s-79.333 40.166 -112 71.499s-58.834 69.666 -78.501 114.999s-29.5 97 -29.5 155c0 59.333 9.83301 112 29.5 158
s45.834 84.5 78.501 115.5s70 54.5 112 70.5s85 24 129 24c44.667 0 88 -8.5 130 -25.5s79.333 -41.5 112 -73.5s58.834 -70.833 78.501 -116.5s29.5 -97.5 29.5 -155.5zM616.999 347.002c0 34.667 -5.33301 67.333 -16 98s-26 57.334 -46 80.001s-44.333 40.667 -73 54
s-60.667 20 -96 20s-67.333 -6.5 -96 -19.5s-53 -31 -73 -54s-35.5 -49.833 -46.5 -80.5s-16.5 -63.334 -16.5 -98.001c0 -33.333 5.5 -64.833 16.5 -94.5s26.5 -55.5 46.5 -77.5s44.333 -39.5 73 -52.5s60.667 -19.5 96 -19.5s67.333 6.33301 96 19s53 30 73 52
s35.333 47.833 46 77.5s16 61.5 16 95.5z" />
    <glyph glyph-name="afii10033" unicode="&#x41f;" horiz-adv-x="662" 
d="M469 0v582h-285v-582h-128v700h540v-700h-127z" />
    <glyph glyph-name="afii10034" unicode="&#x420;" horiz-adv-x="604" 
d="M558 461c0 -38 -6.83398 -71.5 -20.501 -100.5s-31.5 -53.5 -53.5 -73.5s-47.167 -35.167 -75.5 -45.5s-56.833 -15.5 -85.5 -15.5h-147v-226h-124v700h271c30.667 0 60.334 -4.83301 89.001 -14.5s53.667 -24.5 75 -44.5s38.5 -45 51.5 -75s19.5 -65 19.5 -105z
M439.999 459c0 20 -3.16699 37.333 -9.5 52s-15 27 -26 37s-23.833 17.5 -38.5 22.5s-30 7.5 -46 7.5h-144v-237h136c16.667 0 32.667 2.83301 48 8.5s29 13.667 41 24s21.5 22.833 28.5 37.5s10.5 30.667 10.5 48z" />
    <glyph glyph-name="afii10035" unicode="&#x421;" horiz-adv-x="692" 
d="M653 111c-14.667 -13.333 -30.833 -27.0039 -48.5 -41.0039s-38 -27 -61 -39s-49 -21.833 -78 -29.5s-61.833 -11.5 -98.5 -11.5c-41.333 0 -81.833 7.66699 -121.5 23s-75 38.166 -106 68.499s-56.167 68 -75.5 113s-29 97.167 -29 156.5
c0 55.333 9.66699 105.333 29 150s44.5 82.667 75.5 114s66 55.5 105 72.5s78.5 25.5 118.5 25.5c30.667 0 59.5 -2.83301 86.5 -8.5s52 -13.334 75 -23.001s44.5 -21.167 64.5 -34.5s38.667 -27.666 56 -42.999l-56 -106c-16 14 -32.167 27 -48.5 39
s-33.5 22.167 -51.5 30.5s-37 14.833 -57 19.5s-41.667 7 -65 7c-27.333 0 -53.666 -5.66699 -78.999 -17s-47.833 -27.5 -67.5 -48.5s-35.334 -46.667 -47.001 -77s-17.5 -64.166 -17.5 -101.499c0 -38 6 -72.167 18 -102.5s28 -56.166 48 -77.499
s42.667 -37.666 68 -48.999s51 -17 77 -17c24.667 0 47.5 2.83301 68.5 8.5s40.667 13.334 59 23.001s35.5 20.834 51.5 33.501s31.667 26 47 40l60 -98v0z" />
    <glyph glyph-name="afii10036" unicode="&#x422;" horiz-adv-x="661" 
d="M393 587v-587h-126v587h-241v113h606v-113h-239z" />
    <glyph glyph-name="afii10037" unicode="&#x423;" horiz-adv-x="650" 
d="M365 95c-7.33301 -15.333 -17.0039 -29 -29.0039 -41s-25.667 -22 -41 -30s-31.666 -14 -48.999 -18s-34.666 -6 -51.999 -6h-76v113h66c6.66699 0 13.667 0.5 21 1.5s14.333 3 21 6s12.834 6.83301 18.501 11.5s9.83398 10.667 12.501 18l-13 47l-112 242.5l-110 238.5
v21h124l183 -399l181 399h126v-20z" />
    <glyph glyph-name="afii10038" unicode="&#x424;" horiz-adv-x="728" 
d="M300 0l-0.000976562 86.999c-39.333 1.33301 -75.666 8.33301 -108.999 21s-62.333 30.334 -87 53.001s-44 50.167 -58 82.5s-21 68.833 -21 109.5s7.33301 77.167 22 109.5s34.5 60 59.5 83s54.167 40.833 87.5 53.5s68.666 20 105.999 22v97h120v-96
c38.667 -0.666992 75 -7.16699 109 -19.5s63.833 -30 89.5 -53s45.834 -51 60.501 -84s22 -70.5 22 -112.5c0 -43.333 -7.33301 -81.333 -22 -114s-34.667 -60.167 -60 -82.5s-55 -39.5 -89 -51.5s-70.667 -18.333 -110 -19v-86h-120zM579.999 352.999
c0 48 -14 86.333 -42 115s-67.333 43.667 -118 45v-318c50.667 0 90 14.167 118 42.5s42 66.833 42 115.5zM144.999 352.999c0 -46 14 -83 42 -111s65.667 -43.333 113 -46v315c-50 -0.666992 -88.333 -15.667 -115 -45s-40 -67 -40 -113z" />
    <glyph glyph-name="afii10039" unicode="&#x425;" horiz-adv-x="649" 
d="M487 0l-169 252c-4.66699 -7.33301 -11.667 -17.5 -21 -30.5l-30.5 -44l-34.5 -51.5l-34.5 -51.5l-30 -44c-9 -13 -15.833 -23.167 -20.5 -30.5h-120v17l225 331l-223 333v19h127l166 -248l164 248h121v-18l-219 -327l26.5 -39l40 -59l47 -70l47 -70l40.5 -59.5l27 -39.5
v-18h-129z" />
    <glyph glyph-name="afii10040" unicode="&#x426;" horiz-adv-x="706" 
d="M181 700v-584h286v584h127v-584h95v-274h-120v158h-514v700h126z" />
    <glyph glyph-name="afii10041" unicode="&#x427;" horiz-adv-x="615" 
d="M162 699v-271.004c0 -39.333 11.833 -67.333 35.5 -84s55.5 -25 95.5 -25c24.667 0 49.5 3.66699 74.5 11s46.167 17.333 63.5 30v339h124v-699h-124v244c-17.333 -9.33301 -40.333 -17.166 -69 -23.499s-59 -9.5 -91 -9.5c-30 0 -59 3.33301 -87 10
s-53 17.834 -75 33.501s-39.667 36.334 -53 62.001s-20 57.834 -20 96.501v286h126z" />
    <glyph glyph-name="afii10042" unicode="&#x428;" horiz-adv-x="914" 
d="M182 700v-582h210v582h123v-582h211v582h126v-700h-796v700h126z" />
    <glyph glyph-name="afii10043" unicode="&#x429;" horiz-adv-x="964" 
d="M54 700h125v-584h203v584h121v-584h204v584h125v-584h110l1 -274h-122v158h-767v700z" />
    <glyph glyph-name="afii10044" unicode="&#x42a;" horiz-adv-x="729" 
d="M693 224c0 -41.333 -6.83301 -76.3311 -20.5 -104.998s-31.334 -51.834 -53.001 -69.501s-46.167 -30.334 -73.5 -38.001s-54.666 -11.5 -81.999 -11.5h-253v585h-193v115h319v-255h129c27.333 0 54.5 -4.5 81.5 -13.5s51.333 -22.667 73 -41s39.167 -41.333 52.5 -69
s20 -60.167 20 -97.5zM572 225.002c0 35.333 -9.5 62 -28.5 80s-41.833 27 -68.5 27h-138v-214h132c13.333 0 26.166 2 38.499 6s23.333 10.167 33 18.5s17.334 19.333 23.001 33s8.5 30.167 8.5 49.5z" />
    <glyph glyph-name="afii10045" unicode="&#x42b;" horiz-adv-x="800" 
d="M615 0v700h123v-700h-123zM538 224c0 -41.333 -6.83301 -76.332 -20.5 -104.999s-31.5 -51.834 -53.5 -69.501s-46.833 -30.334 -74.5 -38.001s-55.167 -11.5 -82.5 -11.5h-256v700h124v-258h134c27.333 0 54.666 -4.33301 81.999 -13s51.833 -22 73.5 -40
s39.334 -40.667 53.001 -68s20.5 -59.666 20.5 -96.999zM415 225.001c0 17.333 -3.33398 32.667 -10.001 46s-15.334 24.333 -26.001 33s-22.667 15.167 -36 19.5s-26.333 6.5 -39 6.5h-129v-214h136c12.667 0 25.334 2 38.001 6s23.834 10.5 33.501 19.5
s17.5 20.333 23.5 34s9 30.167 9 49.5z" />
    <glyph glyph-name="afii10046" unicode="&#x42c;" horiz-adv-x="573" 
d="M545 223c0 -41.333 -6.66699 -76.334 -20 -105.001s-30.833 -51.667 -52.5 -69s-46.167 -29.833 -73.5 -37.5s-54.666 -11.5 -81.999 -11.5h-266v700h125v-258h143c27.333 0 54.5 -4.5 81.5 -13.5s51.167 -22.5 72.5 -40.5s38.666 -40.667 51.999 -68
s20 -59.666 20 -96.999zM423 223.999c0 17.333 -3.16699 32.6689 -9.5 46.002s-14.666 24.333 -24.999 33s-22 15.167 -35 19.5s-25.833 6.5 -38.5 6.5h-139v-211h146c12.667 0 25.167 2 37.5 6s23.166 10.167 32.499 18.5s16.833 19.166 22.5 32.499s8.5 29.666 8.5 48.999
z" />
    <glyph glyph-name="afii10047" unicode="&#x42d;" horiz-adv-x="666" 
d="M92 182c28.667 -20 59.333 -37.8301 92 -53.4971s67.334 -23.5 104.001 -23.5c22.667 0 46 4.33301 70 13s46.167 21.167 66.5 37.5s37.5 36.166 51.5 59.499s22.667 50 26 80h-313v114h312c-4 30 -12.833 56.5 -26.5 79.5s-30.334 42.333 -50.001 58
s-41.167 27.667 -64.5 36s-46.666 12.5 -69.999 12.5c-34.667 0 -68 -7 -100 -21s-63.333 -32 -94 -54l-57 104c38 30 77.333 52.333 118 67s86 22 136 22c44 0 86.667 -8.5 128 -25.5s77.833 -41.333 109.5 -73s57 -69.834 76 -114.501s28.5 -94.334 28.5 -149.001
c0 -59.333 -9.83301 -111.5 -29.5 -156.5s-45.5 -82.667 -77.5 -113s-68.833 -53.333 -110.5 -69s-84.5 -23.5 -128.5 -23.5c-54.667 0 -104.334 9.33301 -149.001 28s-82.667 42 -114 70z" />
    <glyph glyph-name="afii10048" unicode="&#x42e;" horiz-adv-x="937" 
d="M54 0l-0.00292969 700.001h122v-305h96c4 51.333 15.167 96.666 33.5 135.999s41.5 72.166 69.5 98.499s59.833 46.333 95.5 60s73.167 20.5 112.5 20.5c45.333 0 87.166 -7.83301 125.499 -23.5s71.5 -39 99.5 -70s49.833 -69.167 65.5 -114.5s23.5 -98 23.5 -158
c0 -55.333 -8 -104.833 -24 -148.5s-38 -80.5 -66 -110.5s-61.167 -53 -99.5 -69s-79.833 -24 -124.5 -24c-39.333 0 -76.666 6.5 -111.999 19.5s-66.666 31.833 -93.999 56.5s-50.166 54.834 -68.499 90.501s-30.166 76.167 -35.499 121.5h-97v-280h-122zM768.997 344.001
c0 40 -4.66602 75.5 -13.999 106.5s-22.166 57.167 -38.499 78.5s-36 37.5 -59 48.5s-47.833 16.5 -74.5 16.5s-51.334 -5.5 -74.001 -16.5s-42.334 -27.167 -59.001 -48.5s-29.834 -47.5 -39.501 -78.5s-14.5 -66.5 -14.5 -106.5c0 -37.333 4.5 -70.5 13.5 -99.5
s21.833 -53.667 38.5 -74s36.334 -35.833 59.001 -46.5s48 -16 76 -16s53.333 5.5 76 16.5s42.167 26.667 58.5 47s29 45 38 74s13.5 61.833 13.5 98.5z" />
    <glyph glyph-name="afii10049" unicode="&#x42f;" horiz-adv-x="603" 
d="M20 0v22.002l175 230c-18 2 -36.5 8.5 -55.5 19.5s-36.333 25.667 -52 44s-28.5 40.666 -38.5 66.999s-15 56.166 -15 89.499s6.16699 63.833 18.5 91.5s29.166 51.5 50.499 71.5s46.833 35.667 76.5 47s61.834 17 96.501 17h273v-699h-124v232h-99l-85.5 -116.5
l-86.5 -115.5h-134zM159 466.002c0 -16 3 -31.168 9 -45.501s14.333 -27.166 25 -38.499s23.167 -20.333 37.5 -27s29.833 -10 46.5 -10h148v241h-147c-36.667 0 -65.667 -11 -87 -33s-32 -51 -32 -87z" />
    <glyph glyph-name="afii10065" unicode="&#x430;" horiz-adv-x="575" 
d="M390 48l-10.0088 -11.5c-3.33301 -3.66699 -7 -7.16699 -11 -10.5c-15.333 -12 -32.666 -20.5 -51.999 -25.5s-41.333 -7.5 -66 -7.5s-49.167 3.66699 -73.5 11s-46.166 17.833 -65.499 31.5s-35 30.667 -47 51s-18 43.5 -18 69.5c0 30 5.83301 55.667 17.5 77
s27 38.666 46 51.999s40.833 23 65.5 29s50.334 9 77.001 9c18.667 0 39.334 -1.66699 62.001 -5l54 -8v14c0 9.33301 -1.5 21 -4.5 35s-9.83301 24.667 -20.5 32c-13.333 9.33301 -27.833 15.333 -43.5 18s-32.167 4 -49.5 4c-12 0 -24.5 -1.16699 -37.5 -3.5
s-26 -5.5 -39 -9.5s-25.333 -8.33301 -37 -13l-31.5 -13l-20 74c6 6 15.333 12 28 18s27 11.5 43 16.5s32.833 9.16699 50.5 12.5s34.834 5 51.501 5c10.667 0 22.834 -0.333008 36.501 -1s27.5 -2.33398 41.5 -5.00098s27.833 -6.5 41.5 -11.5s26.167 -11.833 37.5 -20.5
c26.667 -19.333 44.5 -39.5 53.5 -60.5s13.5 -47.167 13.5 -78.5v-166c0 -13.333 0.5 -25.666 1.5 -36.999s5.16699 -20.666 12.5 -27.999c10.667 -10.667 24 -12 40 -4l22 -69c-11.333 -9.33301 -21.666 -15.833 -30.999 -19.5s-19.666 -5.5 -30.999 -5.5
c-14 0 -29 1.83301 -45 5.5s-29.667 10.5 -41 20.5c-4 3.33301 -7.66699 7.33301 -11 12s-6.66602 10 -9.99902 16zM368.991 235c-13.333 2.66699 -29.834 5.49902 -49.501 8.49902s-38.167 4.5 -55.5 4.5c-34 0 -59.5 -7.5 -76.5 -22.5s-25.5 -35.5 -25.5 -61.5
c0 -27.333 8.16699 -48.166 24.5 -62.499s39.5 -21.5 69.5 -21.5c27.333 0 50.333 3.5 69 10.5s34.334 16.167 47.001 27.5c-1.33301 4.66699 -2 9.5 -2 14.5v15.5z" />
    </font>
</defs>
</svg>
