<?xml version="1.0" encoding="utf-8"?>
<!-- Generator: Adobe Illustrator 16.0.0, SVG Export Plug-In . SVG Version: 6.00 Build 0)  -->
<!DOCTYPE svg PUBLIC "-//W3C//DTD SVG 1.1//EN" "http://www.w3.org/Graphics/SVG/1.1/DTD/svg11.dtd">
<svg version="1.1" id="Layer_1" xmlns="http://www.w3.org/2000/svg" xmlns:xlink="http://www.w3.org/1999/xlink" x="0px" y="0px"
	 width="21px" height="16px" viewBox="0 0 21 16" enable-background="new 0 0 21 16" xml:space="preserve">
<path fill="#FFFFFF" d="M19.072,1.88l1.642-1.542V0h-5.687l-4.052,9.91L6.365,0H0.402v0.338L2.32,2.605
	c0.187,0.167,0.285,0.413,0.26,0.659v8.912c0.059,0.321-0.047,0.651-0.277,0.884l-2.16,2.572v0.334h6.125v-0.338l-2.16-2.568
	c-0.234-0.233-0.345-0.558-0.297-0.884V4.468l5.376,11.502H9.81l4.624-11.502v9.163c0,0.242,0,0.291-0.162,0.45l-1.662,1.581V16
	h8.066v-0.338l-1.603-1.541c-0.14-0.105-0.214-0.28-0.183-0.45V2.33C18.859,2.159,18.932,1.984,19.072,1.88z"/>
</svg>
