<svg width="402" height="313" viewBox="0 0 402 313" fill="none" xmlns="http://www.w3.org/2000/svg">
<path d="M313.6 311.696C313.997 311.944 314.455 312.075 314.923 312.075L380.229 312.075C380.734 312.075 381.227 311.922 381.643 311.636L400.415 298.75C401.094 298.284 401.5 297.513 401.5 296.689L401.5 2.99957C401.5 1.61884 400.381 0.499573 399 0.499573L260.447 0.499585L176.316 0.499592L148.039 0.499595C147.48 0.499595 146.937 0.687095 146.497 1.03213L135.572 9.59686C135.308 9.80389 134.982 9.91637 134.646 9.91637L15.266 9.91639C14.6116 9.91639 13.9833 10.1729 13.5159 10.6311L1.24994 22.6548C0.770238 23.125 0.499975 23.7684 0.499975 24.4401L0.500488 309.575C0.500488 310.956 1.61978 312.075 3.00049 312.075L78.0102 312.075C78.4781 312.075 78.9367 311.944 79.3337 311.696L98.5128 299.727C98.751 299.578 99.0262 299.5 99.307 299.5L293.627 299.5C293.907 299.5 294.182 299.578 294.421 299.727L313.6 311.696Z" fill="#13151C"/>
<path d="M313.6 311.696C313.997 311.944 314.455 312.075 314.923 312.075L380.229 312.075C380.734 312.075 381.227 311.922 381.643 311.636L400.415 298.75C401.094 298.284 401.5 297.513 401.5 296.689L401.5 2.99957C401.5 1.61884 400.381 0.499573 399 0.499573L260.447 0.499585L176.316 0.499592L148.039 0.499595C147.48 0.499595 146.937 0.687095 146.497 1.03213L135.572 9.59686C135.308 9.80389 134.982 9.91637 134.646 9.91637L15.266 9.91639C14.6116 9.91639 13.9833 10.1729 13.5159 10.6311L1.24994 22.6548C0.770238 23.125 0.499975 23.7684 0.499975 24.4401L0.500488 309.575C0.500488 310.956 1.61978 312.075 3.00049 312.075L78.0102 312.075C78.4781 312.075 78.9367 311.944 79.3337 311.696L98.5128 299.727C98.751 299.578 99.0262 299.5 99.307 299.5L293.627 299.5C293.907 299.5 294.182 299.578 294.421 299.727L313.6 311.696Z" fill="url(#paint0_linear)"/>
<path d="M313.6 311.696C313.997 311.944 314.455 312.075 314.923 312.075L380.229 312.075C380.734 312.075 381.227 311.922 381.643 311.636L400.415 298.75C401.094 298.284 401.5 297.513 401.5 296.689L401.5 2.99957C401.5 1.61884 400.381 0.499573 399 0.499573L260.447 0.499585L176.316 0.499592L148.039 0.499595C147.48 0.499595 146.937 0.687095 146.497 1.03213L135.572 9.59686C135.308 9.80389 134.982 9.91637 134.646 9.91637L15.266 9.91639C14.6116 9.91639 13.9833 10.1729 13.5159 10.6311L1.24994 22.6548C0.770238 23.125 0.499975 23.7684 0.499975 24.4401L0.500488 309.575C0.500488 310.956 1.61978 312.075 3.00049 312.075L78.0102 312.075C78.4781 312.075 78.9367 311.944 79.3337 311.696L98.5128 299.727C98.751 299.578 99.0262 299.5 99.307 299.5L293.627 299.5C293.907 299.5 294.182 299.578 294.421 299.727L313.6 311.696Z" stroke="#7BF5FB"/>
<defs>
<linearGradient id="paint0_linear" x1="108.81" y1="246.844" x2="108.81" y2="6.64968" gradientUnits="userSpaceOnUse">
<stop offset="0.71875" stop-color="#1A232A" stop-opacity="0"/>
<stop offset="1" stop-color="#7BF5FB" stop-opacity="0.1"/>
</linearGradient>
</defs>
</svg>
