<svg width="20" height="20" viewBox="0 0 20 20" fill="none" xmlns="http://www.w3.org/2000/svg">
<path fill-rule="evenodd" clip-rule="evenodd" d="M8.19688 2.01935C9.91785 1.63052 11.7184 1.80841 13.33 2.5265C13.7886 2.73085 14.326 2.52472 14.5304 2.06611C14.7347 1.6075 14.5286 1.07007 14.07 0.865724C12.1003 -0.0119393 9.89959 -0.229366 7.79619 0.24587C5.69278 0.721106 3.79935 1.86354 2.39828 3.5028C0.997207 5.14205 0.163562 7.19029 0.0216768 9.34204C-0.120209 11.4938 0.437266 13.6338 1.61096 15.4428C2.78465 17.2518 4.51168 18.633 6.53447 19.3803C8.55726 20.1276 10.7674 20.201 12.8354 19.5896C14.9033 18.9782 16.7182 17.7147 18.0093 15.9875C19.3005 14.2604 19.9988 12.1616 20 10.0052V9.16884C20 8.66676 19.593 8.25975 19.0909 8.25975C18.5888 8.25975 18.1818 8.66676 18.1818 9.16884V10.0047C18.1808 11.769 17.6095 13.4858 16.5531 14.8989C15.4967 16.312 14.0118 17.3458 12.3198 17.8461C10.6279 18.3463 8.81957 18.2862 7.16457 17.6748C5.50956 17.0634 4.09654 15.9333 3.13624 14.4532C2.17595 12.9731 1.71983 11.2222 1.83592 9.46167C1.95201 7.70114 2.63408 6.02531 3.78041 4.68411C4.92674 3.3429 6.47591 2.40818 8.19688 2.01935ZM19.734 3.3751C20.0889 3.0199 20.0886 2.4443 19.7334 2.08945C19.3782 1.73461 18.8026 1.7349 18.4478 2.0901L9.99967 10.5466L7.91555 8.4625C7.56053 8.10748 6.98492 8.10748 6.6299 8.4625C6.27488 8.81752 6.27488 9.39313 6.6299 9.74815L9.35717 12.4754C9.52772 12.646 9.75904 12.7417 10.0002 12.7417C10.2414 12.7416 10.4727 12.6457 10.6431 12.4751L19.734 3.3751Z" fill="#7BF5FB"/>
</svg>
