<svg width="320" height="80" viewBox="0 0 320 80" fill="none" xmlns="http://www.w3.org/2000/svg">
<path d="M1 46.625L71.8237 34.4389C75.3698 33.8287 79.0181 34.3595 82.2434 35.9548L118.503 53.8897C123.683 56.4518 129.81 56.207 134.769 53.2399L154.374 41.5091C156.45 40.2673 158.766 39.4827 161.169 39.2076L206.965 33.9641C209.63 33.659 212.184 32.7279 214.42 31.2469L251.411 6.74229C255.913 3.76019 261.564 3.09411 266.635 4.94774L281.738 10.4677C285.339 11.7838 289.28 11.844 292.919 10.6385L319 2" stroke="#7BF5FB" stroke-width="3"/>
<path opacity="0.5" d="M71.8155 34.4924L1 46.6966V80H319V2L292.927 10.6497C289.283 11.8587 285.336 11.7984 281.73 10.4784L266.646 4.95652C261.569 3.09768 255.909 3.7654 251.404 6.75499L214.422 31.2922C212.185 32.7766 209.628 33.71 206.96 34.016L161.174 39.2668C158.768 39.5427 156.449 40.3294 154.372 41.5742L134.778 53.3165C129.814 56.2913 123.678 56.5367 118.492 53.9677L82.2494 36.0123C79.0205 34.4126 75.3667 33.8804 71.8155 34.4924Z" fill="url(#paint0_linear)"/>
<defs>
<linearGradient id="paint0_linear" x1="160" y1="2" x2="160" y2="77.3708" gradientUnits="userSpaceOnUse">
<stop stop-color="#7BF5FB"/>
<stop offset="1" stop-color="#13141E" stop-opacity="0"/>
</linearGradient>
</defs>
</svg>
