<svg width="21" height="16" viewBox="0 0 21 16" fill="none" xmlns="http://www.w3.org/2000/svg">
<path d="M19.0726 1.88042L20.714 0.337684V0H15.0277L10.9751 9.90989L6.36458 0H0.402292V0.337684L2.31972 2.60547C2.50658 2.77305 2.60429 3.01811 2.57944 3.26484V12.1768C2.63858 12.4977 2.53229 12.8278 2.30258 13.0611L0.142578 15.6328V15.9663H6.26686V15.6286L4.10686 13.0611C3.87286 12.8269 3.76229 12.5027 3.80944 12.1768V4.46821L9.18544 15.9705H9.81029L14.4329 4.46821V13.6312C14.4329 13.8728 14.4329 13.9225 14.2717 14.0808L12.6089 15.6615V16H20.6763V15.6623L19.0734 14.1204C18.9329 14.016 18.86 13.8408 18.89 13.6707V2.33011C18.86 2.15916 18.932 1.984 19.0726 1.88042Z" fill="#7BF5FB"/>
</svg>
